<svg width="110" height="20" viewBox="0 0 110 20" fill="none" xmlns="http://www.w3.org/2000/svg">
<path d="M19.2344 5.98093C20.3829 7.10122 20.3829 8.91825 19.2344 10.0392L9.4568 19.5799C8.88286 20.14 7.95178 20.14 7.37722 19.5799C6.80329 19.0197 6.80329 18.1112 7.37722 17.5511L19.2344 5.98093ZM18.99 12.5573C20.1379 13.6783 20.1379 15.4947 18.99 16.615L16.8271 18.7259C15.6786 19.8462 13.8164 19.8462 12.6686 18.7259L18.99 12.5573ZM6.95304 11.6282C8.24627 10.3663 10.225 10.2516 11.3728 11.3719L4.73875 17.8462C4.09188 18.4771 3.10254 18.5348 2.52835 17.9746C1.95429 17.4145 2.01288 16.4483 2.6593 15.8174L6.95304 11.6282ZM0.634619 11.2579C1.20436 10.6933 2.13167 10.6896 2.70579 11.2497C3.27985 11.8099 3.28336 12.7215 2.71375 13.286C2.14402 13.8506 1.2167 13.8543 0.642574 13.2942C0.0684509 12.734 0.0649451 11.8224 0.634619 11.2579ZM11.7306 0.418905C12.3096 -0.146256 13.2569 -0.138728 13.8465 0.436459C14.4054 0.98157 14.4129 1.85875 13.8634 2.39572L6.01005 10.0592C5.44552 10.61 4.52196 10.6025 3.94796 10.0429C3.37377 9.48217 3.36613 8.58117 3.93079 8.03042L11.7306 0.418905ZM16.5157 2.29045C17.1604 1.66138 18.1491 1.60563 18.7231 2.16578C19.297 2.72593 19.24 3.6902 18.5953 4.31927L14.2976 8.51225C13.0088 9.77039 11.0326 9.88191 9.88411 8.76161L16.5157 2.29045ZM4.64978 0.986576C5.79827 -0.133721 7.65918 -0.133721 8.80767 0.986576L0.860996 8.74094C-0.287061 7.62065 -0.286936 5.80423 0.860996 4.68393L4.64978 0.986576Z" fill="#B8B8B8"/>
<path d="M36.6379 17.4044C35.3453 17.4044 34.1949 17.1212 33.1855 16.5548C32.1943 15.9702 31.4154 15.1651 30.849 14.1381C30.2826 13.1112 29.9988 11.9163 29.9988 10.5529C29.9988 9.17261 30.2732 7.95958 30.8221 6.9151C31.3885 5.87062 32.1679 5.05672 33.1592 4.47213C34.1679 3.88818 35.3365 3.59619 36.6642 3.59619C37.9568 3.59619 39.0809 3.88818 40.037 4.47213C40.9925 5.03855 41.7362 5.79982 42.2676 6.75596C42.7983 7.71209 43.0639 8.76535 43.0639 9.91572C43.0639 10.093 43.0552 10.2879 43.0376 10.5003C43.0376 10.6945 43.0288 10.9163 43.0107 11.1638H32.7607C32.849 12.4389 33.2651 13.4119 34.0088 14.0849C34.7701 14.7403 35.6466 15.0673 36.6379 15.0673C37.4342 15.0673 38.0984 14.8906 38.6291 14.5366C39.178 14.1645 39.5852 13.6688 39.8509 13.0492H42.6654C42.3114 14.2885 41.6034 15.3242 40.5414 16.1563C39.4969 16.9884 38.1955 17.4044 36.6379 17.4044ZM36.6379 5.90634C35.6993 5.90634 34.8672 6.18954 34.1416 6.75596C33.4154 7.30483 32.9731 8.13691 32.8139 9.25219H40.2494C40.1961 8.22525 39.8334 7.41071 39.1604 6.80921C38.4875 6.20708 37.6466 5.90634 36.6379 5.90634Z" fill="#B8B8B8"/>
<path d="M45.188 17.0855V3.91448H47.6842L47.8966 6.22463C48.3039 5.41073 48.8966 4.77289 49.6755 4.31299C50.4724 3.83492 51.3841 3.59619 52.411 3.59619C54.0038 3.59619 55.2519 4.0918 56.1548 5.08302C57.0758 6.07425 57.5357 7.55231 57.5357 9.51785V17.0855H54.7475V9.80983C54.7475 7.26034 53.703 5.98591 51.614 5.98591C50.5696 5.98591 49.7024 6.35746 49.0119 7.10119C48.339 7.84492 48.0025 8.90695 48.0025 10.2879V17.0855H45.188Z" fill="#B8B8B8"/>
<path d="M64.9142 17.4045C63.3208 17.4045 62.0639 16.9089 61.1429 15.917C60.24 14.9258 59.7888 13.4477 59.7888 11.4828V3.91455C61.3434 3.91455 62.6034 5.17458 62.6034 6.72971V11.1908C62.6034 13.7397 63.6479 15.0141 65.7368 15.0141C66.7813 15.0141 67.6403 14.6426 68.3126 13.8989C68.9856 13.1557 69.3221 12.0937 69.3221 10.7128V3.91455H72.1366V17.0856H69.6403L69.4279 14.7754C69.0207 15.59 68.4192 16.2359 67.6222 16.714C66.8434 17.1745 65.9405 17.4045 64.9142 17.4045Z" fill="#B8B8B8"/>
<path d="M74.9211 17.0855V3.91448H77.4167L77.656 5.77351C78.0808 5.10058 78.6385 4.56988 79.329 4.18015C80.037 3.79043 80.8515 3.59619 81.772 3.59619C83.8609 3.59619 85.3127 4.41888 86.1272 6.06549C86.6047 5.30421 87.2425 4.70207 88.0389 4.25972C88.8534 3.81736 89.7293 3.59619 90.6679 3.59619C92.3139 3.59619 93.6065 4.0918 94.5445 5.08302C95.4831 6.07425 95.9524 7.55231 95.9524 9.51785V17.0855H93.1372V9.80983C93.1372 7.26034 92.1636 5.98591 90.2162 5.98591C89.225 5.98591 88.4104 6.35746 87.7732 7.10119C87.1535 7.84492 86.844 8.90695 86.844 10.2879V17.0855H84.0288V9.80983C84.0288 7.26034 83.0464 5.98591 81.0815 5.98591C80.1078 5.98591 79.3027 6.35746 78.6648 7.10119C78.0458 7.84492 77.7356 8.90695 77.7356 10.2879V17.0855H74.9211Z" fill="#B8B8B8"/>
<path d="M102.91 17.4044C101.794 17.4044 100.874 17.2183 100.149 16.8468C99.4223 16.4746 98.8822 15.9877 98.5282 15.3862C98.1742 14.7666 97.9975 14.0937 97.9975 13.3681C97.9975 12.0937 98.4931 11.0843 99.4843 10.3405C100.476 9.59743 101.892 9.22525 103.733 9.22525H107.185V8.98652C107.185 7.95958 106.902 7.18953 106.335 6.67637C105.786 6.16259 105.07 5.90634 104.184 5.90634C103.405 5.90634 102.724 6.10119 102.14 6.49029C101.573 6.86184 101.228 7.41949 101.104 8.16322H98.2895C98.3778 7.20708 98.6967 6.39317 99.2456 5.72023C99.812 5.02976 100.52 4.50783 101.37 4.15382C102.237 3.78164 103.184 3.59619 104.211 3.59619C106.052 3.59619 107.477 4.08303 108.486 5.05671C109.496 6.01222 110 7.32237 110 8.98652V17.0855H107.557L107.318 14.8286C106.946 15.5542 106.406 16.1651 105.698 16.6607C104.99 17.1563 104.061 17.4044 102.91 17.4044ZM103.467 15.1206C104.229 15.1206 104.866 14.9433 105.38 14.5893C105.91 14.2177 106.318 13.7309 106.601 13.1287C106.902 12.5272 107.088 11.8631 107.159 11.1375H104.025C102.91 11.1375 102.113 11.3324 101.635 11.7215C101.175 12.1112 100.945 12.5981 100.945 13.182C100.945 13.7841 101.166 14.2622 101.608 14.6162C102.069 14.9527 102.689 15.1206 103.467 15.1206Z" fill="#B8B8B8"/>
</svg>
