<svg width="87" height="20" viewBox="0 0 87 20" fill="none" xmlns="http://www.w3.org/2000/svg">
<path d="M40.1088 6.31493C41.1334 4.81442 42.407 4.07654 44.2464 3.9992C46.2133 3.91651 47.7978 5.12042 48.1772 7.06412C48.3768 8.08689 48.2982 9.36846 48.2986 10.4291L48.2999 15.5873L45.1568 15.5936C45.1045 13.8218 45.1755 12.026 45.1491 10.2515C45.1402 9.62846 45.178 9.12995 45.0667 8.50723C44.7796 6.90655 43.1258 6.51195 41.8008 7.0848C41.2382 7.3274 40.9198 7.55097 40.4748 7.98353C40.3927 9.80246 40.4523 12.083 40.4533 13.9367L40.4537 15.5902L37.2644 15.5947C37.2325 14.0423 37.281 12.4522 37.2615 10.8974C37.2529 10.2082 37.3041 9.0971 37.1866 8.44821C37.1003 7.94429 36.8156 7.49621 36.3965 7.20446C35.2019 6.38714 33.2652 7.04595 32.4998 8.16323C32.5367 10.6157 32.4916 13.1236 32.5072 15.5847C31.6167 15.6351 30.2414 15.5916 29.3109 15.5959C29.2622 12.9637 29.3313 10.31 29.3033 7.67548C29.2914 6.55442 29.295 5.41344 29.3201 4.29289L32.5357 4.2977C32.4594 4.90757 32.5589 5.6048 32.4436 6.22395C32.5054 6.12651 32.5689 6.03017 32.6341 5.93502C33.4663 4.72744 34.6224 4.26183 35.9911 4.01169C36.4583 3.9314 37.4961 4.0629 37.9457 4.22937C39.055 4.64012 39.6099 5.29987 40.1088 6.31493Z" fill="#B8B8B8"/>
<path d="M55.6219 3.84564C59.005 3.48323 62.0381 5.9447 62.386 9.3353C62.7339 12.7259 60.2641 15.7539 56.878 16.0883C53.5115 16.4209 50.5098 13.9644 50.164 10.5935C49.8182 7.22258 52.2583 4.20595 55.6219 3.84564ZM56.6087 13.1435C58.3572 12.9582 59.6269 11.3916 59.4485 9.63943C59.2701 7.88726 57.7111 6.60947 55.9613 6.78143C54.2022 6.95428 52.918 8.52641 53.0973 10.288C53.2765 12.0496 54.8509 13.3298 56.6087 13.1435Z" fill="#B8B8B8"/>
<path d="M67.0921 4.30629C68.8483 4.23885 70.9927 4.29369 72.7722 4.29765C72.7378 5.05782 72.7815 5.83884 72.7688 6.60105C72.762 7.00067 72.0742 6.86846 71.7578 6.86692L69.1737 6.85807C68.5637 6.85641 67.5586 6.75531 67.062 7.16007C66.6678 7.48178 66.9023 7.91565 67.1767 8.2319C67.5764 8.41033 68.0467 8.38918 68.477 8.38165C69.723 8.35986 71.1371 8.38986 72.1465 9.22939C72.8822 9.8442 73.2603 10.6554 73.3274 11.6094C73.4846 13.8542 72.0258 15.3832 69.8538 15.5829C67.9655 15.6277 65.9299 15.5887 64.0272 15.5949C64.0123 14.8228 63.9987 13.7891 64.042 13.0304C65.2141 13.0056 66.4184 13.0502 67.5896 13.0279C68.347 13.0133 69.7166 13.2031 70.1949 12.4926C70.3619 12.2424 70.4226 11.9358 70.3631 11.6408C70.1049 10.341 68.0335 10.8862 67.0531 10.7427C66.3602 10.6873 65.7706 10.5143 65.1822 10.1302C63.7884 9.21965 63.4928 7.06309 64.4286 5.72612C65.1024 4.76424 66.0021 4.51041 67.0921 4.30629Z" fill="#B8B8B8"/>
<path d="M8.56635 0H13.153C13.616 0.163571 14.2102 0.167247 14.7631 0.371402C16.7911 1.12026 18.2941 2.45078 19.2221 4.39477C20.0494 6.12766 19.9824 7.52498 19.9699 9.36757C19.9658 9.96881 19.9917 10.7086 19.958 11.2889C19.757 11.6065 18.7774 12.5373 18.4704 12.8426L15.6031 15.7063L12.6891 18.6288C12.3122 19.0054 11.6912 19.6705 11.309 20H7.10621C6.92482 19.9439 6.48752 19.8796 6.27151 19.8422C5.57611 19.7216 5.13435 19.5918 4.498 19.2973C2.51844 18.3811 1.07501 16.7823 0.358293 14.7205C0.171834 14.1841 0.153794 13.6092 0 13.1778V8.58643C0.445662 8.10983 0.908397 7.64515 1.3747 7.18885C3.79449 4.82106 6.13523 2.35352 8.56635 0ZM15.5677 15.5865C15.6071 15.3262 15.5903 14.7473 15.5901 14.4659L15.5875 12.3597L15.5878 9.21123C15.5897 8.62643 15.6203 7.66068 15.5331 7.10604C15.452 6.58464 15.2458 6.09072 14.9322 5.66668C13.9524 4.32962 12.7033 4.32511 11.2152 4.33128L9.02887 4.33549L5.89216 4.33336C5.44289 4.33306 4.7409 4.30923 4.311 4.33817C4.27578 4.6537 4.31737 5.02443 4.3203 5.35566L4.32434 7.43851L4.32417 10.672C4.32208 11.2627 4.28326 12.2778 4.37922 12.8234C4.47637 13.3994 4.71694 13.9416 5.07879 14.3998C6.13668 15.7221 7.52052 15.6239 9.03465 15.6208L11.8741 15.6164L14.2729 15.6194C14.5585 15.6196 15.3297 15.6349 15.5677 15.5865Z" fill="#B8B8B8"/>
<path d="M86.9999 10.747C86.9383 10.9089 86.8895 11.1943 86.8525 11.3706C86.0118 15.3979 81.3161 16.9584 77.8458 15.3014C76.4682 14.6466 75.4075 13.4703 74.896 12.0315C74.3646 10.5218 74.464 8.72345 75.1411 7.26967C76.5978 4.14437 80.8071 3.21113 83.777 4.65252C85.1355 5.3032 86.1775 6.47158 86.6707 7.89694C86.8241 8.3486 86.8674 8.79588 86.9999 9.17745V10.747ZM81.1623 13.1393C82.9065 12.9303 84.1546 11.3489 83.9549 9.6006C83.7549 7.85226 82.1827 6.59409 80.4363 6.78507C78.6776 6.97745 77.41 8.56647 77.6113 10.3276C77.8123 12.0887 79.4053 13.3499 81.1623 13.1393Z" fill="#B8B8B8"/>
</svg>
