<svg width="99" height="42" viewBox="0 0 99 42" fill="none" xmlns="http://www.w3.org/2000/svg">
<path d="M36.8414 27.6077C39.7517 27.6077 42.0428 25.7062 42.5588 22.8953H39.5247C39.0087 24.0941 38.0592 24.7555 36.8414 24.7555C35.2315 24.7555 33.9725 23.412 33.9725 21.6966C33.9725 19.9605 35.2109 18.6377 36.8414 18.6377C38.0386 18.6377 39.0499 19.2991 39.5247 20.3945H42.5175C41.9808 17.6456 39.7517 15.8062 36.8621 15.8062C33.4771 15.8062 30.9177 18.3277 30.9177 21.6759C30.9177 25.0242 33.4771 27.6077 36.8414 27.6077Z" fill="#B8B8B8"/>
<path d="M53.6425 16.1162L53.3329 17.1703C52.3628 16.3229 51.1038 15.8062 49.659 15.8062C46.3153 15.8062 43.8178 18.3277 43.8178 21.6966C43.8178 25.0655 46.3153 27.6077 49.659 27.6077C51.0831 27.6077 52.3215 27.1116 53.271 26.2643L53.5393 27.277H55.8923V16.1162H53.6425ZM49.9066 24.7555C48.1522 24.7555 46.8725 23.4327 46.8725 21.6966C46.8725 19.9398 48.1522 18.6377 49.9066 18.6377C51.6611 18.6377 52.9407 19.9398 52.9407 21.6966C52.9407 23.4534 51.6611 24.7555 49.9066 24.7555Z" fill="#B8B8B8"/>
<path d="M64.5081 16.0542C63.0633 16.0542 62.0726 16.5089 61.2676 17.5009L60.7309 16.1162H58.8114V27.277H61.8249V21.4899C61.8249 19.6711 62.4854 18.9064 64.1779 18.9064H65.4988V16.0542H64.5081Z" fill="#B8B8B8"/>
<path d="M80.1504 15.8682C78.7263 15.8682 77.4672 16.5709 76.7035 17.6456C76.043 16.5295 74.8872 15.8682 73.463 15.8682C72.1421 15.8682 70.9243 16.5089 70.14 17.5009L69.5827 16.1162H67.4774V27.277H70.4908V21.2419C70.4908 19.5058 71.2958 18.5137 72.6581 18.5137C73.7313 18.5137 74.3093 19.2991 74.3093 20.7872V27.277H77.2402V21.2419C77.2402 19.5058 78.0451 18.5137 79.3867 18.5137C80.4807 18.5137 81.0586 19.2991 81.0586 20.7872V27.277H84.072V20.2911C84.072 17.6663 82.4621 15.8682 80.1504 15.8682Z" fill="#B8B8B8"/>
<path d="M95.9293 16.1162L95.6197 17.1703C94.6496 16.3229 93.3906 15.8062 91.9458 15.8062C88.6021 15.8062 86.1046 18.3277 86.1046 21.6966C86.1046 25.0655 88.6021 27.6077 91.9458 27.6077C93.3699 27.6077 94.6084 27.1116 95.5578 26.2643L95.8261 27.277H98.1791V16.1162H95.9293ZM92.1935 24.7555C90.439 24.7555 89.1594 23.4327 89.1594 21.6966C89.1594 19.9398 90.439 18.6377 92.1935 18.6377C93.9479 18.6377 95.2276 19.9398 95.2276 21.6966C95.2276 23.4534 93.9479 24.7555 92.1935 24.7555Z" fill="#B8B8B8"/>
<path fill-rule="evenodd" clip-rule="evenodd" d="M3.6963 19.356C4.73561 19.356 5.57814 20.3305 5.57813 21.5326C5.57813 22.2555 5.91446 23.2473 6.65408 24.0929C7.36963 24.911 8.34395 25.4504 9.4359 25.4504C10.5696 25.4504 11.6928 24.8989 12.5357 24.0447C13.4053 23.1633 13.7641 22.1915 13.7641 21.5326C13.7641 20.3305 14.6067 19.356 15.646 19.356C16.6853 19.356 17.5278 20.3305 17.5278 21.5326C17.5278 23.812 16.4282 25.8874 15.0161 27.3187C13.5772 28.7771 11.5954 29.8036 9.4359 29.8036C7.23463 29.8036 5.33914 28.7105 4.00819 27.1888C2.70131 25.6946 1.81444 23.6392 1.81445 21.5325C1.81446 20.3304 2.65699 19.356 3.6963 19.356Z" fill="#B8B8B8"/>
<path fill-rule="evenodd" clip-rule="evenodd" d="M9.55961 22.3086C10.6138 22.3086 11.4683 21.3129 11.4683 20.0847C11.4683 19.346 11.8095 18.3327 12.5596 17.4687C13.2854 16.6328 14.2736 16.0816 15.3812 16.0816C16.5311 16.0816 17.6704 16.6451 18.5252 17.5179C19.4073 18.4185 19.7713 19.4114 19.7713 20.0847C19.7713 21.3129 20.6258 22.3086 21.68 22.3086C22.7341 22.3086 23.5887 21.3129 23.5887 20.0847C23.5887 17.7557 22.4734 15.6351 21.0411 14.1728C19.5817 12.6827 17.5716 11.6338 15.3812 11.6338C13.1485 11.6338 11.2259 12.7506 9.87595 14.3054C8.5504 15.8321 7.65087 17.9322 7.65088 20.0847C7.65088 21.3129 8.50545 22.3086 9.55961 22.3086Z" fill="#B8B8B8"/>
</svg>
