<svg width="69" height="42" viewBox="0 0 69 42" fill="none" xmlns="http://www.w3.org/2000/svg">
<g clip-path="url(#clip0_310_3025)">
<path d="M64.0441 12.1307L62.5548 16.069H67.3767L68.866 12.1307H64.0441ZM26.3548 16.9774L21.5081 29.8268H26.33L31.1767 16.9774H26.3548ZM21.23 12.1307L14.5409 29.8268H19.3628L26.0528 12.1307H21.23ZM45.0352 19.5022C45.0352 17.7101 43.6218 16.7505 41.6523 16.7505C40.0871 16.7505 38.6481 17.1292 37.4616 18.3157L37.941 16.9782H33.2708L28.4242 29.8276H33.2461L35.9219 22.7342C36.4269 21.3959 37.2091 20.2605 38.7743 20.2605C39.4559 20.2605 39.7843 20.4874 39.7843 21.018C39.7843 21.2704 39.7083 21.5988 39.5574 22.0023L36.6043 29.8268H41.4262L44.1524 22.6319C44.5559 21.5972 45.0352 20.2844 45.0352 19.5022ZM52.9621 29.8268H57.8087L55.0826 23.1624L61.6967 16.9774H56.3698L51.4472 21.6219L55.0314 12.1299H50.2103L43.5203 29.826H48.3423L50.589 23.8687L52.9621 29.8268ZM6.68998 12.1307L0 29.8268H5.30132L7.59842 23.768H14.7422L16.3322 19.527H9.18841L10.3493 16.4724H18.0996L19.7407 12.1307H6.68998Z" fill="#B8B8B8"/>
</g>
<defs>
<clipPath id="clip0_310_3025">
<rect width="68.8966" height="18" fill="white" transform="translate(0 12)"/>
</clipPath>
</defs>
</svg>
