<svg width="98" height="42" viewBox="0 0 98 42" fill="none" xmlns="http://www.w3.org/2000/svg">
<g clip-path="url(#clip0_1666_1906)">
<path d="M19.3877 9C19.8774 9.00005 20.3497 9.07433 20.7939 9.21191C20.942 9.25778 21.0871 9.31055 21.2285 9.37012C21.3699 9.42965 21.5077 9.49593 21.6416 9.56836C21.7087 9.60462 21.7748 9.6423 21.8398 9.68164C21.9047 9.72086 21.9685 9.76153 22.0312 9.80371C22.0941 9.84598 22.1561 9.88942 22.2168 9.93457C22.2776 9.97986 22.337 10.0271 22.3955 10.0752C22.9208 10.5067 23.3506 11.049 23.6494 11.666C23.6826 11.7345 23.7143 11.8038 23.7441 11.874C23.834 12.0854 23.9094 12.3045 23.9678 12.5303C23.9872 12.6054 24.0048 12.6813 24.0205 12.7578C24.0835 13.0641 24.1162 13.3813 24.1162 13.7061V28.2939C24.1162 28.6187 24.0835 28.9359 24.0205 29.2422C24.0048 29.3187 23.9872 29.3946 23.9678 29.4697C23.9094 29.6955 23.834 29.9146 23.7441 30.126C23.7143 30.1962 23.6826 30.2655 23.6494 30.334C23.3552 30.9416 22.9334 31.476 22.4189 31.9043C22.4106 31.9112 22.4029 31.9189 22.3945 31.9258C22.3363 31.9736 22.2773 32.0204 22.2168 32.0654C22.0956 32.1556 21.9696 32.2398 21.8398 32.3184C21.7748 32.3577 21.7087 32.3954 21.6416 32.4316C21.5077 32.5041 21.3699 32.5704 21.2285 32.6299C21.0871 32.6895 20.942 32.7422 20.7939 32.7881C20.3497 32.9257 19.8774 33 19.3877 33H4.72852C4.64697 33 4.56589 32.9982 4.48535 32.9941C4.32421 32.986 4.16528 32.9691 4.00879 32.9453C3.38242 32.8501 2.79648 32.6329 2.27637 32.3184C2.14657 32.2398 2.02062 32.1556 1.89941 32.0654C0.746265 31.2073 0 29.8371 0 28.2939V13.7061C0 11.1071 2.11702 9.00004 4.72852 9H19.3877ZM6.88574 21.9297L6.85645 21.9678H10.8203V28.6211L11.4365 27.8066L11.5195 27.6982L17.2598 20.125H13.2959V13.4707L6.88574 21.9297ZM51.2412 19.0801H53.1719V20.3516H51.2412V24.6855C51.2413 25.1425 51.3096 25.4994 51.4473 25.7559C51.5967 26.0012 51.8672 26.124 52.2578 26.124C52.3726 26.124 52.505 26.1131 52.6543 26.0908C52.8152 26.0574 52.9881 26.0183 53.1719 25.9736V27.2451C52.9994 27.3037 52.8268 27.3493 52.6543 27.3828L52.3105 27.4414C52.1404 27.4664 51.9732 27.4795 51.8096 27.4795C51.3959 27.4795 51.0105 27.4013 50.6543 27.2451C50.3097 27.089 50.0339 26.8379 49.8271 26.4922C49.6318 26.1353 49.5342 25.6778 49.5342 25.1201V20.3516H45.6807V24.6855C45.6807 25.1426 45.7489 25.4994 45.8867 25.7559C46.0361 26.0012 46.3066 26.124 46.6973 26.124C46.8122 26.124 46.9444 26.1131 47.0938 26.0908C47.2546 26.0574 47.4274 26.0183 47.6113 25.9736V27.2451C47.4388 27.3037 47.2662 27.3493 47.0938 27.3828L46.75 27.4414C46.5798 27.4665 46.4127 27.4795 46.249 27.4795C45.8352 27.4795 45.45 27.4013 45.0938 27.2451C44.7492 27.089 44.4734 26.838 44.2666 26.4922C44.0712 26.1352 43.9736 25.6779 43.9736 25.1201V20.3516H42.2842V19.0801H43.9736V16.9717L45.6807 16.0518V19.0801H49.5342V16.9717L51.2412 16.0518V19.0801ZM57.7539 18.9297C58.4203 18.9297 58.9949 19.0407 59.4775 19.2637C59.9602 19.4756 60.3567 19.7776 60.667 20.168C60.9773 20.5472 61.208 20.9764 61.3574 21.4561C61.5182 21.9356 61.5986 22.4432 61.5986 22.9785C61.5986 23.0343 61.5925 23.1406 61.5811 23.2969C61.581 23.4417 61.5699 23.5812 61.5469 23.7148H55.5303C55.5648 24.451 55.7944 25.0204 56.2197 25.4219C56.6564 25.8121 57.231 26.0068 57.9434 26.0068C58.4261 26.0068 58.8571 25.9341 59.2363 25.7891C59.6156 25.633 59.9664 25.3937 60.2881 25.0703L61.3223 26.1074C60.989 26.4308 60.6443 26.6928 60.2881 26.8936C59.9434 27.0943 59.5753 27.2399 59.1846 27.3291C58.8053 27.4295 58.3742 27.4795 57.8916 27.4795C57.202 27.4795 56.6043 27.3676 56.0986 27.1445C55.593 26.9215 55.1732 26.6149 54.8398 26.2246C54.5067 25.823 54.2544 25.371 54.082 24.8691C53.921 24.356 53.8398 23.8204 53.8398 23.2627C53.8399 22.7051 53.921 22.1694 54.082 21.6562C54.2429 21.1322 54.4839 20.669 54.8057 20.2676C55.1274 19.8549 55.5301 19.5321 56.0127 19.2979C56.5069 19.0525 57.0873 18.9297 57.7539 18.9297ZM74.4385 19.0801H76.3691V20.3516H74.4385V24.6855C74.4385 25.1427 74.5077 25.4994 74.6455 25.7559C74.7949 26.0013 75.0652 26.124 75.4561 26.124C75.5709 26.124 75.7033 26.1131 75.8525 26.0908C76.0133 26.0574 76.1855 26.0183 76.3691 25.9736V27.2451C76.1394 27.3232 75.9095 27.3786 75.6797 27.4121C75.4499 27.4567 75.226 27.4795 75.0078 27.4795C74.5941 27.4795 74.2088 27.4013 73.8525 27.2451C73.5077 27.089 73.2313 26.8381 73.0244 26.4922C72.8291 26.1353 72.7314 25.6778 72.7314 25.1201V20.3516H71.042V19.0801H72.7314V16.9717L74.4385 16.0518V19.0801ZM84.8857 18.9297C85.7015 18.9297 86.4196 19.1135 87.04 19.4814C87.6606 19.8495 88.1496 20.3571 88.5059 21.0039C88.8736 21.6398 89.0576 22.3708 89.0576 23.1963C89.0576 24.0215 88.8735 24.7575 88.5059 25.4043C88.1496 26.04 87.6556 26.5484 87.0234 26.9277C86.4029 27.2958 85.69 27.4794 84.8857 27.4795C84.0813 27.4795 83.3625 27.2957 82.7305 26.9277C82.0983 26.5596 81.5982 26.0512 81.2305 25.4043C80.8743 24.7575 80.6963 24.0215 80.6963 23.1963C80.6963 22.3708 80.8742 21.6398 81.2305 21.0039C81.5867 20.3571 82.0808 19.8495 82.7129 19.4814C83.3565 19.1133 84.0812 18.9297 84.8857 18.9297ZM43.1875 27.3291H41.2744L40.3105 24.7354H35.3984L34.4297 27.3291H32.499L37.1709 15.667H38.5332L43.1875 27.3291ZM67.2881 18.9297C68.2306 18.9297 68.9663 19.197 69.4951 19.7324C70.0352 20.2567 70.3057 21.0269 70.3057 22.042V27.3291H68.6162V22.6436C68.6162 21.8517 68.4668 21.2714 68.168 20.9033C67.8806 20.5354 67.4322 20.3516 66.8232 20.3516C66.3637 20.3516 65.9782 20.4517 65.668 20.6523C65.3692 20.8531 65.1394 21.1716 64.9785 21.6064C64.8176 22.0415 64.7363 22.5936 64.7363 23.2627V27.3291H63.0303V19.0801H64.7363V20.2266C64.8246 20.0882 64.9229 19.9626 65.0303 19.8496C65.3175 19.5487 65.6504 19.3202 66.0293 19.1641C66.4201 19.0079 66.8399 18.9297 67.2881 18.9297ZM79.2754 27.3291H77.5859V19.0801H79.2754V27.3291ZM94.75 18.9297C95.6925 18.9297 96.4283 19.197 96.957 19.7324C97.4971 20.2567 97.7676 21.0269 97.7676 22.042V27.3291H96.0771V22.6436C96.0771 21.8517 95.9277 21.2714 95.6289 20.9033C95.3416 20.5355 94.8931 20.3516 94.2842 20.3516C93.8249 20.3516 93.44 20.4518 93.1299 20.6523C92.831 20.8531 92.6003 21.1715 92.4395 21.6064C92.2786 22.0414 92.1983 22.5937 92.1982 23.2627V27.3291H90.4922V19.0801H92.1982V20.2266C92.2864 20.0883 92.3838 19.9625 92.4912 19.8496C92.7784 19.5485 93.1122 19.3202 93.4912 19.1641C93.882 19.0079 94.3019 18.9297 94.75 18.9297ZM84.8857 20.3682C84.3686 20.3682 83.9203 20.4856 83.541 20.7197C83.1732 20.954 82.8856 21.2831 82.6787 21.707C82.4833 22.1197 82.3857 22.6162 82.3857 23.1963C82.3858 23.765 82.4833 24.2617 82.6787 24.6855C82.8856 25.1093 83.1734 25.4377 83.541 25.6719C83.9203 25.9062 84.3685 26.0234 84.8857 26.0234C85.3912 26.0234 85.8276 25.9062 86.1953 25.6719C86.5746 25.4377 86.8622 25.1093 87.0576 24.6855C87.2645 24.2617 87.3681 23.765 87.3682 23.1963C87.3682 22.6162 87.2644 22.1143 87.0576 21.6904C86.8622 21.2665 86.5747 20.9428 86.1953 20.7197C85.8277 20.4856 85.3911 20.3682 84.8857 20.3682ZM35.9668 23.2129H39.7451L37.8604 18.1426L35.9668 23.2129ZM57.8057 20.3018C57.3343 20.3018 56.9319 20.4072 56.5986 20.6191C56.2653 20.8199 56.0072 21.0883 55.8232 21.4229C55.651 21.7573 55.5472 22.1196 55.5127 22.5098H59.9717C59.9753 22.4596 59.9775 22.4095 59.9775 22.3594C59.9775 22.1029 59.9317 21.8518 59.8398 21.6064C59.7479 21.3612 59.6097 21.1437 59.4258 20.9541C59.242 20.7533 59.0121 20.5969 58.7363 20.4854C58.4721 20.3627 58.1618 20.3018 57.8057 20.3018ZM79.3789 17.6582H77.4648V15.667H79.3789V17.6582Z" fill="#B8B8B8"/>
</g>
<defs>
<clipPath id="clip0_1666_1906">
<rect width="98" height="24" fill="white" transform="translate(0 9)"/>
</clipPath>
</defs>
</svg>
