<svg width="108" height="42" viewBox="0 0 108 42" fill="none" xmlns="http://www.w3.org/2000/svg">
<g clip-path="url(#clip0_310_2984)">
<path d="M9.6227 12.9695C9.21713 13.3475 8.81856 13.7184 8.41998 14.0877C6.5687 15.806 4.71741 17.5262 2.86438 19.2411C2.43958 19.6348 1.99905 20.0128 1.46586 20.2437C0.831286 20.5185 0.467671 20.347 0.263138 19.6628C-0.0218097 18.7056 0.130279 17.8132 0.680944 16.9907C1.14945 16.2908 1.74032 15.708 2.34693 15.1411C3.31365 14.2381 4.28737 13.344 5.27332 12.4655C5.70511 12.0805 6.17711 11.7288 6.754 11.6116C8.48116 11.2633 9.5825 12.9187 9.62445 12.9677L9.6227 12.9695Z" fill="#B8B8B8"/>
<path d="M1.31201 21.712C2.36265 21.4093 3.15106 20.7426 3.9185 20.0409C6.3659 17.808 8.8098 15.5734 11.2677 13.3528C11.8096 12.8628 12.3795 12.3939 12.9826 11.9844C13.7501 11.4629 14.5839 11.3877 15.4056 11.8847C15.7027 12.0631 15.9947 12.2714 16.2359 12.5199C17.0733 13.3861 17.9002 14.2662 18.706 15.1622C19.5626 16.1141 20.4052 17.0801 21.2251 18.0635C21.5066 18.4012 21.7373 18.7949 21.9279 19.1939C22.2827 19.9359 22.1918 20.6691 21.7601 21.3603C21.3737 21.9797 20.8563 22.4872 20.3231 22.9684C18.2358 24.8548 16.1485 26.7412 14.0368 28.6013C13.4704 29.1018 12.8463 29.5497 12.2029 29.9452C10.9915 30.6924 9.77653 30.5997 8.6717 29.7142C8.02838 29.1998 7.42352 28.624 6.87111 28.0116C5.0915 26.0395 3.3451 24.0393 1.58647 22.048C1.49731 21.9482 1.4169 21.8397 1.31201 21.7103V21.712Z" fill="#B8B8B8"/>
<path d="M37.5203 11.9417H40.174V26.3292H37.5203V25.1166C36.7389 26.1175 35.6271 26.6162 34.1884 26.6162C32.7496 26.6162 31.6203 26.0913 30.6396 25.0431C29.6589 23.9949 29.1694 22.7105 29.1694 21.1898C29.1694 19.6692 29.6589 18.3848 30.6396 17.3366C31.6203 16.2884 32.8021 15.7634 34.1884 15.7634C35.5746 15.7634 36.7389 16.2639 37.5203 17.2631V11.9399V11.9417ZM32.6343 23.2774C33.1762 23.8182 33.858 24.0894 34.6813 24.0894C35.5047 24.0894 36.183 23.8182 36.7179 23.2774C37.2528 22.7367 37.5203 22.0403 37.5203 21.1916C37.5203 20.3429 37.2528 19.6464 36.7179 19.1057C36.183 18.565 35.5047 18.2938 34.6813 18.2938C33.858 18.2938 33.1762 18.565 32.6343 19.1057C32.0923 19.6464 31.8214 20.3429 31.8214 21.1916C31.8214 22.0403 32.0923 22.7367 32.6343 23.2774Z" fill="#B8B8B8"/>
<path d="M49.0412 16.0522H51.8802L48.1304 26.3468C47.5955 27.815 46.8875 28.8806 46.0029 29.5456C45.1201 30.2106 44.0206 30.5098 42.7059 30.4398V27.9742C43.4192 27.9882 43.9838 27.8377 44.4034 27.5227C44.8212 27.2078 45.1551 26.7003 45.4016 26.0021L41.1851 16.054H44.0852L46.7669 22.9608L49.043 16.054L49.0412 16.0522Z" fill="#B8B8B8"/>
<path d="M58.6251 15.7635C59.7491 15.7635 60.6791 16.1397 61.4116 16.8939C62.1458 17.6481 62.5112 18.6893 62.5112 20.0174V26.3275H59.8575V20.3464C59.8575 19.6622 59.6722 19.1372 59.3016 18.7733C58.931 18.411 58.438 18.2291 57.8209 18.2291C57.1357 18.2291 56.5867 18.4408 56.1759 18.866C55.7651 19.2912 55.5588 19.9282 55.5588 20.7769V26.3258H52.9052V16.0487H55.5588V17.2001C56.2039 16.2412 57.2248 15.7617 58.6233 15.7617L58.6251 15.7635Z" fill="#B8B8B8"/>
<path d="M72.1719 16.0524H74.8256V26.3295H72.1719V25.1168C71.3765 26.1177 70.2595 26.6165 68.819 26.6165C67.3785 26.6165 66.2719 26.0915 65.2912 25.0433C64.3105 23.9951 63.821 22.7107 63.821 21.1901C63.821 19.6694 64.3105 18.385 65.2912 17.3368C66.2719 16.2886 67.4467 15.7637 68.819 15.7637C70.2595 15.7637 71.3765 16.2641 72.1719 17.2633V16.0507V16.0524ZM67.2754 23.2777C67.8103 23.8184 68.4886 24.0896 69.312 24.0896C70.1353 24.0896 70.8171 23.8184 71.359 23.2777C71.901 22.737 72.1719 22.0405 72.1719 21.1918C72.1719 20.3431 71.901 19.6467 71.359 19.106C70.8171 18.5652 70.1353 18.294 69.312 18.294C68.4886 18.294 67.8103 18.5652 67.2754 19.106C66.7404 19.6467 66.473 20.3431 66.473 21.1918C66.473 22.0405 66.7404 22.737 67.2754 23.2777Z" fill="#B8B8B8"/>
<path d="M87.8789 15.7637C89.0589 15.7637 90.0011 16.1469 90.7074 16.9151C91.4136 17.6833 91.7667 18.7105 91.7667 19.9984V26.3295H89.1131V20.1839C89.1131 19.5679 88.9627 19.0885 88.6603 18.7455C88.3579 18.4025 87.9331 18.231 87.3841 18.231C86.781 18.231 86.3108 18.4305 85.9751 18.8277C85.6395 19.2249 85.4717 19.8007 85.4717 20.5549V26.3312H82.818V20.1856C82.818 19.5697 82.6677 19.0902 82.3652 18.7472C82.0628 18.4042 81.638 18.2328 81.0891 18.2328C80.5 18.2328 80.0297 18.4322 79.6801 18.8295C79.3304 19.2267 79.1556 19.8024 79.1556 20.5566V26.333H76.502V16.0559H79.1556V17.1461C79.7727 16.2274 80.7255 15.7689 82.0156 15.7689C83.3057 15.7689 84.2095 16.2624 84.8126 17.2493C85.4979 16.2624 86.5206 15.7689 87.8771 15.7689L87.8789 15.7637Z" fill="#B8B8B8"/>
<path d="M94.7668 14.8186C94.328 14.8186 93.9469 14.6576 93.6252 14.3356C93.3036 14.0136 93.141 13.6339 93.141 13.1947C93.141 12.7555 93.3018 12.3723 93.6252 12.0433C93.9469 11.7143 94.328 11.5498 94.7668 11.5498C95.2056 11.5498 95.6059 11.7143 95.9293 12.0433C96.2509 12.3723 96.4118 12.7555 96.4118 13.1947C96.4118 13.6339 96.2509 14.0136 95.9293 14.3356C95.6076 14.6576 95.2195 14.8186 94.7668 14.8186ZM93.4504 26.3293V16.0523H96.1041V26.3293H93.4504Z" fill="#B8B8B8"/>
<path d="M102.836 26.6165C101.286 26.6165 99.9936 26.0967 98.9587 25.0538C97.9238 24.0126 97.4064 22.7247 97.4064 21.1901C97.4064 19.6554 97.9238 18.3675 98.9587 17.3263C99.9936 16.2851 101.287 15.7637 102.836 15.7637C103.838 15.7637 104.749 16.0034 105.572 16.4829C106.395 16.9623 107.019 17.6063 107.444 18.4147L105.161 19.7499C104.955 19.3247 104.644 18.9887 104.226 18.742C103.808 18.4952 103.338 18.3727 102.817 18.3727C102.021 18.3727 101.362 18.637 100.841 19.1637C100.321 19.6922 100.06 20.3659 100.06 21.1883C100.06 22.0108 100.321 22.6652 100.841 23.1919C101.362 23.7204 102.021 23.9829 102.817 23.9829C103.352 23.9829 103.827 23.8639 104.247 23.6224C104.665 23.3827 104.978 23.0502 105.182 22.625L107.486 23.9409C107.033 24.7493 106.395 25.3968 105.574 25.8833C104.75 26.3697 103.84 26.613 102.838 26.613L102.836 26.6165Z" fill="#B8B8B8"/>
</g>
<defs>
<clipPath id="clip0_310_2984">
<rect width="107.606" height="18.9" fill="white" transform="translate(0 11.5498)"/>
</clipPath>
</defs>
</svg>
