<svg width="110" height="42" viewBox="0 0 110 42" fill="none" xmlns="http://www.w3.org/2000/svg">
<path fill-rule="evenodd" clip-rule="evenodd" d="M59.1654 17.4729C61.9191 17.4729 63.4567 18.475 63.4366 21.1836L63.4165 24.7651C63.4065 26.3328 63.4568 27.2953 63.698 28.3271H61.909C61.8286 27.8608 61.7884 27.4936 61.7683 26.8487C61.0045 28.0294 59.7582 28.605 57.919 28.605C55.708 28.605 54.1101 27.4043 54.1101 25.4894V25.4696C54.1102 22.8107 57.1955 21.7986 61.6176 21.7391V20.9453C61.6176 19.4076 60.6627 18.8718 59.1351 18.8718C57.4768 18.8718 56.502 19.4573 56.4819 20.8959H54.6426C54.6828 18.6338 56.5523 17.4729 59.1654 17.4729ZM61.6479 23.0688C57.3463 23.2176 56.0297 23.9319 56.0297 25.4202V25.43C56.0297 26.6702 56.9944 27.2555 58.3814 27.2555C60.2306 27.2555 61.6378 26.2336 61.6479 24.0509V23.0688Z" fill="#B8B8B8"/>
<path fill-rule="evenodd" clip-rule="evenodd" d="M75.4992 17.4729C78.8358 17.4729 80.8257 19.993 80.7252 23.525V23.535H72.092V23.5448C72.2528 25.7176 73.6197 27.1168 75.6196 27.1168C77.3483 27.1168 78.3131 26.442 78.7352 25.3011H80.5847C80.0118 27.2357 78.3132 28.6049 75.5696 28.605C72.2228 28.605 70.1724 26.2435 70.1724 23.0091V22.9893C70.1724 19.6457 72.4741 17.4729 75.4992 17.4729ZM75.489 18.9114C73.7101 18.9114 72.3735 19.9335 72.1222 22.0666V22.0764H78.8056V22.0666C78.7051 20.2311 77.4489 18.9114 75.489 18.9114Z" fill="#B8B8B8"/>
<path fill-rule="evenodd" clip-rule="evenodd" d="M97.7786 17.4729C100.532 17.4729 102.07 18.475 102.05 21.1836L102.03 24.7651C102.02 26.3328 102.07 27.2953 102.311 28.3271H100.522C100.442 27.8608 100.402 27.4936 100.382 26.8487C99.6178 28.0294 98.3715 28.605 96.5323 28.605C94.3213 28.6049 92.7234 27.4043 92.7234 25.4894V25.4696C92.7235 22.8107 95.8088 21.7986 100.231 21.7391V20.9453C100.231 19.4076 99.276 18.8718 97.7484 18.8718C96.0902 18.8718 95.1153 19.4573 95.0952 20.8959H93.2561C93.2963 18.6338 95.1656 17.4729 97.7786 17.4729ZM100.261 23.0688C95.9596 23.2176 94.643 23.9319 94.643 25.4202V25.43C94.643 26.6702 95.6078 27.2555 96.9947 27.2555C98.8439 27.2555 100.251 26.2336 100.261 24.0509V23.0688Z" fill="#B8B8B8"/>
<path d="M49.923 26.3925H49.9332L52.5864 17.7407H54.3251L50.9883 28.3469H48.9683L46.0938 19.6756H46.0839L43.34 28.3469H41.2998L37.9733 17.7407H39.8527L42.4658 26.3925H42.4757L45.1894 17.7209H47.109L49.923 26.3925Z" fill="#B8B8B8"/>
<path d="M67.4629 17.7407H70.0056V19.2688H67.4629V25.0728C67.4629 26.5809 68.0659 26.7993 69.3624 26.7993H69.9253V28.3271H68.87C66.5082 28.3271 65.6538 27.6227 65.6538 25.2614V19.2688H63.9654V17.7407H65.6538V15.062H67.4629V17.7407Z" fill="#B8B8B8"/>
<path d="M93.069 14.9231H92.677C91.2198 14.9231 90.5263 15.5283 90.5263 16.8677V17.7407H93.0591V19.2688H90.5263V28.3271H88.7172V19.2688H87.455V19.3779H86.9222C84.8821 19.3779 83.7766 20.4991 83.7766 22.8207V28.3271H81.9676V17.7407H83.7766V19.7052C84.3596 18.475 85.5153 17.6316 87.2439 17.6316H87.455V17.7407H88.7172V16.8379C88.7172 14.5857 90.0942 13.395 92.5264 13.395H93.069V14.9231Z" fill="#B8B8B8"/>
<path d="M105.734 28.3271H103.925V13.395H105.734V28.3271Z" fill="#B8B8B8"/>
<path d="M109.59 28.3271H107.781V13.395H109.59V28.3271Z" fill="#B8B8B8"/>
<path d="M0 15.6107C5.90713e-05 14.5435 1.22112 13.9217 2.10206 14.5402L11.6085 21.215L11.6775 21.246C11.9417 21.3645 12.2418 21.1738 12.2419 20.8873V15.6107C12.2419 14.5436 13.4627 13.9218 14.3437 14.5402L23.7883 21.1715C24.3498 21.5658 24.6833 22.2041 24.6833 22.8843V26.8947C24.6832 27.9576 23.4711 28.5804 22.5893 27.9707L12.9993 21.3385L12.9742 21.3298C12.7144 21.2388 12.4415 21.429 12.4414 21.7011V21.7997L12.4417 26.8947C12.4416 27.9575 11.2295 28.5803 10.3477 27.9707L0.907641 21.4423C0.338916 21.049 2.34394e-05 20.4064 0 19.7209V15.6107Z" fill="#B8B8B8"/>
<path d="M26.8686 13.4178C28.294 13.4179 29.4497 14.5587 29.4497 15.9658C29.4496 17.3728 28.2939 18.5135 26.8686 18.5135C25.4433 18.5135 24.2879 17.3728 24.2878 15.9658C24.2878 14.5586 25.4433 13.4178 26.8686 13.4178Z" fill="#B8B8B8"/>
</svg>
