<svg width="83" height="42" viewBox="0 0 83 42" fill="none" xmlns="http://www.w3.org/2000/svg">
<g clip-path="url(#clip0_310_3028)">
<path d="M29.2644 14.2236H37.3609V15.8105H30.9077V20.6034H36.7355V22.1676H30.9077V28.2382H29.2644V14.2236Z" fill="#B8B8B8"/>
<path d="M39.072 14.2236H40.7351V28.2283H39.072V14.2236Z" fill="#B8B8B8"/>
<path d="M43.5627 27.4854C42.9302 26.7814 42.614 25.7965 42.614 24.5306V18.2539H44.2757V24.2779C44.2757 25.2313 44.4912 25.9292 44.9223 26.3716C45.3533 26.8139 45.9331 27.0356 46.6615 27.0365C47.1943 27.045 47.7167 26.8882 48.1566 26.5876C48.5913 26.2905 48.9415 25.8858 49.1731 25.413C49.4134 24.9403 49.5378 24.4171 49.5359 23.8868V18.2539H51.199V28.2294H49.6135V26.788H49.5359C49.2246 27.32 48.7701 27.7538 48.2244 28.0403C47.6409 28.3748 46.9798 28.5501 46.3072 28.5485C45.1119 28.5438 44.1971 28.1894 43.5627 27.4854Z" fill="#B8B8B8"/>
<path d="M56.0738 28.341C55.7504 28.2226 55.4541 28.0401 55.2028 27.8046C54.9461 27.5583 54.7462 27.2592 54.6169 26.9279C54.4762 26.5385 54.4096 26.1262 54.4206 25.7123V19.7603H52.6799V18.254H54.4206V15.4375H56.0823V18.254H58.5077V19.7603H56.0823V25.3184C56.0823 25.8831 56.1868 26.2911 56.3957 26.558C56.6432 26.8516 57.0018 26.9984 57.4715 26.9984C57.8611 26.995 58.2414 26.8793 58.567 26.6653V28.2888C58.3765 28.3777 58.176 28.4436 57.9698 28.485C57.7147 28.5277 57.4562 28.5471 57.1976 28.5429C56.8138 28.5451 56.4328 28.4767 56.0738 28.341Z" fill="#B8B8B8"/>
<path d="M62.9464 28.341C62.6236 28.2222 62.3278 28.0398 62.0768 27.8046C61.8197 27.5584 61.6193 27.2592 61.4895 26.9279C61.3493 26.5384 61.2832 26.1261 61.2947 25.7123V19.7603H59.554V18.254H61.2947V15.4375H62.9563V18.254H65.3817V19.7603H62.9563V25.3184C62.9563 25.8831 63.0608 26.2911 63.2683 26.558C63.5168 26.8516 63.8758 26.9984 64.3455 26.9984C64.7347 26.9951 65.1146 26.8794 65.4396 26.6653V28.2888C65.2496 28.3779 65.0496 28.4438 64.8438 28.485C64.5882 28.5277 64.3293 28.5471 64.0702 28.5429C63.6864 28.5446 63.3056 28.4762 62.9464 28.341Z" fill="#B8B8B8"/>
<path d="M68.5694 27.8567C67.8168 27.4029 67.2045 26.7496 66.8005 25.9692C66.3678 25.132 66.1491 24.2008 66.1638 23.2586C66.1544 22.3379 66.3583 21.4275 66.7595 20.5988C67.139 19.8124 67.7244 19.1435 68.4537 18.6633C69.2098 18.1745 70.0947 17.9228 70.9948 17.9405C71.8862 17.9181 72.7661 18.1445 73.536 18.5941C74.2502 19.0263 74.8246 19.6552 75.1906 20.4054C75.5872 21.2285 75.785 22.1333 75.768 23.0468C75.7709 23.2181 75.7509 23.389 75.7087 23.5551H67.8268C67.8425 24.2306 68.0316 24.8908 68.376 25.4722C68.6746 25.9694 69.1038 26.3751 69.617 26.6454C70.1018 26.9026 70.6423 27.0369 71.1911 27.0365C72.4692 27.0365 73.4537 26.4369 74.1445 25.2379L75.5563 25.9226C75.1512 26.7046 74.5474 27.3663 73.8057 27.8412C73.0687 28.3118 72.1788 28.5471 71.136 28.5471C70.2331 28.5589 69.3446 28.3199 68.5694 27.8567ZM74.0061 22.1842C73.9742 21.7473 73.8541 21.3213 73.6532 20.932C73.4267 20.4962 73.0848 20.1309 72.665 19.876C72.1534 19.5726 71.5652 19.4231 70.9708 19.4454C70.236 19.4272 69.5234 19.6979 68.9859 20.1993C68.4285 20.7307 68.0551 21.4261 67.92 22.1842H74.0061Z" fill="#B8B8B8"/>
<path d="M76.8438 18.2541H78.4292V19.8579H78.5068C78.7189 19.2876 79.1167 18.8053 79.6362 18.4885C80.1558 18.1353 80.7685 17.9442 81.3967 17.9393C81.7985 17.9297 82.1979 18.0032 82.5699 18.1553V19.9355C82.1303 19.7223 81.6466 19.6154 81.1581 19.6235C80.6833 19.6215 80.2192 19.7649 79.8282 20.0344C79.4212 20.3178 79.0912 20.6982 78.8682 21.1412C78.6273 21.6045 78.5032 22.1197 78.5068 22.6419V28.2297H76.8452V18.2541H76.8438Z" fill="#B8B8B8"/>
<path d="M19.3835 20.0767L12.9233 26.5384L19.3835 33H12L9.23012 30.2301L5.53835 26.5384L12 20.0767H19.3835ZM12 9L0 21L3.69318 24.6932L19.3835 9H12Z" fill="#B8B8B8"/>
</g>
<defs>
<clipPath id="clip0_310_3028">
<rect width="82.5755" height="24" fill="white" transform="translate(0 9)"/>
</clipPath>
</defs>
</svg>
