<svg width="82" height="42" viewBox="0 0 82 42" fill="none" xmlns="http://www.w3.org/2000/svg">
<g clip-path="url(#clip0_310_3066)">
<path d="M6.40415 36C6.31562 36 6.22795 35.9826 6.14617 35.9487C6.06438 35.9148 5.99008 35.8651 5.9275 35.8024C5.86493 35.7398 5.81532 35.6655 5.7815 35.5836C5.74767 35.5018 5.73031 35.4141 5.7304 35.3256V24.5403H0.673654C0.53996 24.541 0.409078 24.5019 0.297664 24.428C0.18625 24.3541 0.099342 24.2488 0.0479995 24.1253C-0.00334296 24.0019 -0.0167984 23.8659 0.00934552 23.7348C0.0354894 23.6037 0.100051 23.4833 0.194813 23.389L5.7304 17.8554V12.4043C5.7304 12.2256 5.80138 12.0542 5.92773 11.9279C6.05409 11.8015 6.22546 11.7305 6.40415 11.7305H11.8553L17.3883 6.19493C17.4513 6.13254 17.5261 6.08321 17.6083 6.04977C17.6904 6.01632 17.7784 5.99941 17.8671 6.00002H35.056C35.1893 5.99996 35.3195 6.03942 35.4304 6.1134C35.5412 6.18739 35.6276 6.29259 35.6787 6.41568C35.7297 6.53878 35.7431 6.67425 35.7172 6.80496C35.6912 6.93567 35.6271 7.05575 35.5329 7.15001L29.8024 12.8812C29.6754 13.0065 29.5039 13.0766 29.3255 13.0761H12.4134L7.07791 18.4115V23.1915H11.4609V18.1348C11.4609 17.9561 11.5319 17.7847 11.6582 17.6583C11.7846 17.532 11.956 17.461 12.1347 17.461H23.595C23.7283 17.461 23.8585 17.5004 23.9694 17.5744C24.0802 17.6484 24.1666 17.7536 24.2177 17.8767C24.2687 17.9998 24.2821 18.1352 24.2562 18.266C24.2302 18.3967 24.1661 18.5167 24.0719 18.611L18.3414 24.3415C18.2148 24.467 18.0435 24.5372 17.8651 24.5364H12.8084V29.5932C12.8091 29.7715 12.739 29.9428 12.6135 30.0694L6.88299 35.7999C6.82037 35.8633 6.74581 35.9136 6.66361 35.9479C6.58142 35.9823 6.49323 36 6.40415 36ZM7.07791 24.539V33.7L11.4609 29.3177V24.539H7.07791ZM12.8084 23.1915H17.5858L21.9681 18.8085H12.8071L12.8084 23.1915ZM2.30054 23.1915H5.7304V19.7617L2.30054 23.1915ZM7.07791 13.078V16.5079L10.5078 13.078H7.07791ZM13.7615 11.7305H29.0468L33.4298 7.34753H18.1439L13.7615 11.7305Z" fill="#B8B8B8"/>
<path d="M38.0579 17.0125V20.4729H43.548V22.2596H38.0579V26.6127H35.9463V15.2427H44.2458V17.0125H38.0579Z" fill="#B8B8B8"/>
<path d="M47.5515 21.6581V15.2422H49.6631V21.5776C49.6631 23.9165 50.7189 24.9236 52.5543 24.9236C54.3898 24.9236 55.4293 23.9165 55.4293 21.5776V15.2422H57.5084V21.6581C57.5084 24.9717 55.6405 26.7747 52.5374 26.7747C49.4194 26.7753 47.5515 24.9717 47.5515 21.6581Z" fill="#B8B8B8"/>
<path d="M60.8621 25.4107L61.593 23.7702C62.5026 24.5011 63.9482 25.0209 65.3451 25.0209C67.1156 25.0209 67.8628 24.3874 67.8628 23.5428C67.8628 21.0901 61.1057 22.6982 61.1057 18.475C61.1057 16.6389 62.5676 15.0796 65.6862 15.0796C67.0506 15.0796 68.48 15.4369 69.4715 16.0867L68.8048 17.7272C67.7815 17.1262 66.6608 16.8338 65.67 16.8338C63.9157 16.8338 63.201 17.516 63.201 18.3769C63.201 20.7977 69.9425 19.2215 69.9425 23.3966C69.9425 25.2158 68.4637 26.7751 65.3451 26.7751C63.5746 26.7751 61.8041 26.2229 60.8621 25.4107Z" fill="#B8B8B8"/>
<path d="M81.9215 24.8417V26.6122H73.3933V15.2422H81.6941V17.0127H75.5055V19.9689H80.9956V21.7069H75.5055V24.8417H81.9215Z" fill="#B8B8B8"/>
</g>
<defs>
<clipPath id="clip0_310_3066">
<rect width="81.9214" height="30" fill="white" transform="translate(0 6)"/>
</clipPath>
</defs>
</svg>
