<svg width="102" height="42" viewBox="0 0 102 42" fill="none" xmlns="http://www.w3.org/2000/svg">
<g clip-path="url(#clip0_1666_2062)">
<path d="M46.5356 14.4829L49.8564 14.4785V20.8591C49.8559 22.9297 49.7232 25.8139 50.2704 27.757L47.6108 27.7577C47.2048 27.1246 47.0131 26.5449 46.7879 25.8338C46.1838 27.1247 45.2766 27.634 43.9375 27.9276C43.4032 28.0125 42.8316 28.0234 42.2989 27.9312C41.2322 27.7391 40.2845 27.1332 39.6622 26.2454C37.8741 23.7128 38.2078 19.1086 40.8957 17.275C42.5318 16.1589 44.6351 16.1566 46.5139 16.4863C46.5124 15.8175 46.5058 15.1512 46.5356 14.4829ZM44.0694 25.1864C44.5196 25.199 44.9085 25.2182 45.3351 25.0308C46.1606 24.6682 46.5189 23.7599 46.5217 22.8983C46.526 21.6439 46.5165 20.3834 46.5131 19.126C46.0179 18.9782 45.1599 18.8423 44.6531 18.9143C42.4526 19.0824 41.9519 20.9958 42.0711 22.9078C42.1556 24.2637 42.713 24.9791 44.0694 25.1864Z" fill="#B8B8B8"/>
<path d="M76.7508 16.3356C78.2886 16.1432 80.3436 16.4993 81.606 17.4325C84.4435 19.5294 84.3559 25.3223 81.2039 27.114C80.2861 27.6357 79.511 27.8185 78.4753 27.9578C74.9603 28.1945 71.9668 26.9266 71.6092 23.0813C71.2521 19.2429 72.8068 16.7694 76.7508 16.3356ZM78.2267 25.1561C78.827 25.0089 79.3604 24.8083 79.6784 24.2295C80.1974 23.286 80.1989 21.8115 79.9721 20.7836C79.6388 19.2749 78.3327 18.9395 76.9682 19.1001C76.3362 19.2623 75.8013 19.5012 75.4794 20.1057C74.7969 21.3897 74.7721 24.0393 76.1569 24.8792C76.6794 25.1962 77.6428 25.2626 78.2267 25.1561Z" fill="#B8B8B8"/>
<path d="M17.5122 16.335C19.0504 16.1512 21.0717 16.4929 22.3381 17.4188C24.7956 19.2156 24.9761 23.5597 23.2901 25.9216C22.343 27.2484 20.8035 27.7398 19.2722 27.9517C15.7478 28.2426 12.6918 26.904 12.3568 23.0404C12.0254 19.2177 13.5622 16.765 17.5122 16.335ZM18.9801 25.1559C19.6028 25.0077 20.0844 24.8072 20.4199 24.2195C20.9506 23.2899 20.9675 21.8679 20.7409 20.8468C20.3971 19.2976 19.1454 18.9417 17.7421 19.1C17.0942 19.2457 16.6275 19.4553 16.2703 20.0449C15.7108 20.9684 15.6987 22.3427 15.9143 23.3732C16.2597 25.0244 17.5139 25.3125 18.9801 25.1559Z" fill="#B8B8B8"/>
<path d="M30.5348 16.3353C32.0558 16.1345 34.1242 16.5106 35.3717 17.4326C38.2101 19.5303 38.12 25.3359 34.96 27.1176C34.0408 27.6359 33.3323 27.8103 32.2989 27.9498C28.8349 28.3213 25.6925 26.8364 25.3789 23.0754C25.0579 19.2268 26.5419 16.7622 30.5348 16.3353ZM32.032 25.1489C32.6456 24.9904 33.1407 24.7757 33.4618 24.1827C33.9796 23.2266 33.9841 21.7901 33.7346 20.7561C33.3818 19.2941 32.0974 18.9306 30.7632 19.099C30.1317 19.2454 29.5939 19.4808 29.2663 20.0722C28.5677 21.3332 28.5365 24.0155 29.8969 24.862C30.4642 25.215 31.3979 25.2544 32.032 25.1489Z" fill="#B8B8B8"/>
<path d="M91.3973 16.5327C92.1754 16.5843 93.3448 16.553 94.1432 16.5368L94.1392 21.8176C94.1392 23.3719 93.9114 25.24 96.0832 25.1935C98.1372 25.1494 97.8078 22.8074 97.8073 21.3782L97.8028 17.5307C97.8009 17.2051 97.8073 16.8709 97.8103 16.5446C98.782 16.5488 99.781 16.5642 100.75 16.5354L100.753 20.9406C100.754 22.2833 100.828 23.4595 100.552 24.7856C99.8068 28.3587 94.6231 29.2269 92.7856 26.063C91.7757 27.6388 90.3325 28.1637 88.5331 27.9513C87.4653 27.8253 86.4489 27.3345 85.7828 26.4708C85.3628 25.922 85.0721 25.2851 84.9324 24.6079C84.6808 23.3918 84.8408 20.9789 84.7972 19.6455C84.7803 19.121 84.767 16.9585 84.8209 16.5384C85.711 16.5802 86.8585 16.553 87.7614 16.5381L87.756 21.2295C87.7555 22.094 87.7169 22.962 87.8179 23.817C88.0408 25.7005 91.0769 25.6551 91.323 23.7779C91.4355 22.9212 91.3949 22.0684 91.3939 21.2076L91.3973 16.5327Z" fill="#B8B8B8"/>
<path d="M65.7129 14.4818L69.0145 14.481C69.118 17.738 68.9238 21.0625 69.0472 24.3243C69.0932 25.5349 70.2854 25.2069 70.898 24.6444C70.9139 25.4158 70.9713 26.2889 70.8693 27.0516C70.8599 27.121 70.7138 27.2686 70.6588 27.3223C70.06 27.7635 69.1611 28.0464 68.4251 27.988C65.5772 27.7622 65.6857 25.4295 65.6876 23.3673V20.6525C65.6871 18.8293 65.6129 16.2412 65.7129 14.4818Z" fill="#B8B8B8"/>
<path d="M58.981 18.9153C59.3955 18.8214 61.4059 18.8911 61.918 18.8909C61.9081 19.865 61.918 20.8537 61.92 21.8289C60.9963 21.8203 59.3227 21.706 58.5268 22.1118C56.51 23.1401 56.6868 24.8317 56.7304 26.7415C56.7358 26.9857 56.7685 27.5013 56.6898 27.707C56.5897 27.7849 56.3758 27.7589 56.2396 27.7561L53.2614 27.758C53.2352 27.2311 53.2921 26.5581 53.2466 26.0585C52.9152 22.4064 55.2143 19.1777 58.981 18.9153Z" fill="#B8B8B8"/>
<path d="M7.14309 18.9156C7.41461 18.8409 9.62437 18.8934 10.034 18.8932L10.0361 21.8271C8.7599 21.8246 7.15116 21.6321 6.12157 22.4154C4.60984 23.5655 4.80587 24.9956 4.81788 26.6682C4.82022 26.9938 4.84336 27.3966 4.79321 27.7067C4.69685 27.7817 4.61189 27.7566 4.46989 27.7591L1.37644 27.7607C1.36295 25.2195 1.05859 23.0239 2.87132 20.9821C4.00917 19.7005 5.44575 19.0236 7.14309 18.9156Z" fill="#B8B8B8"/>
<path d="M1.37061 14.4785C4.80447 14.5456 8.44521 14.4854 11.8996 14.4803C11.8928 15.4896 11.896 16.4989 11.9091 17.508L6.70741 17.5067C5.25776 17.511 3.47323 17.7546 2.33419 16.7127C1.64164 16.0791 1.41658 15.3921 1.37061 14.4785Z" fill="#B8B8B8"/>
<path d="M53.2505 14.4814L63.7941 14.4785L63.7956 17.5077C61.5227 17.4661 59.2325 17.5303 56.9592 17.5092C56.5352 17.5052 56.1583 17.5174 55.7368 17.4371C54.2341 17.1508 53.3055 15.9956 53.2505 14.4814Z" fill="#B8B8B8"/>
</g>
<defs>
<clipPath id="clip0_1666_2062">
<rect width="101.434" height="15.1148" fill="white" transform="translate(0 13.4424)"/>
</clipPath>
</defs>
</svg>
