<svg width="75" height="42" viewBox="0 0 75 42" fill="none" xmlns="http://www.w3.org/2000/svg">
<g clip-path="url(#clip0_310_2976)">
<path d="M31.706 21.3234C31.706 24.8213 28.9696 27.3988 25.6115 27.3988C22.2533 27.3988 19.5169 24.8213 19.5169 21.3234C19.5169 17.8009 22.2533 15.248 25.6115 15.248C28.9696 15.248 31.706 17.8009 31.706 21.3234ZM29.0381 21.3234C29.0381 19.1376 27.4521 17.642 25.6115 17.642C23.7708 17.642 22.1848 19.1376 22.1848 21.3234C22.1848 23.4873 23.7708 25.0048 25.6115 25.0048C27.4521 25.0048 29.0381 23.4846 29.0381 21.3234Z" fill="#B8B8B8"/>
<path d="M44.8525 21.3234C44.8525 24.8213 42.1161 27.3988 38.7579 27.3988C35.3998 27.3988 32.6634 24.8213 32.6634 21.3234C32.6634 17.8036 35.3998 15.248 38.7579 15.248C42.1161 15.248 44.8525 17.8009 44.8525 21.3234ZM42.1846 21.3234C42.1846 19.1376 40.5986 17.642 38.7579 17.642C36.9172 17.642 35.3313 19.1376 35.3313 21.3234C35.3313 23.4873 36.9172 25.0048 38.7579 25.0048C40.5986 25.0048 42.1846 23.4846 42.1846 21.3234Z" fill="#B8B8B8"/>
<path d="M57.4527 15.6151V26.5223C57.4527 31.009 54.8067 32.8414 51.6787 32.8414C48.7341 32.8414 46.9619 30.872 46.2935 29.2614L48.6163 28.2945C49.0299 29.2833 50.0434 30.4502 51.6759 30.4502C53.6782 30.4502 54.919 29.2148 54.919 26.8893V26.0155H54.8259C54.2288 26.7524 53.0783 27.3961 51.6266 27.3961C48.5889 27.3961 45.806 24.7501 45.806 21.3453C45.806 17.916 48.5889 15.248 51.6266 15.248C53.0756 15.248 54.226 15.8917 54.8259 16.6067H54.919V15.6178H57.4527V15.6151ZM55.108 21.3453C55.108 19.2061 53.681 17.642 51.8649 17.642C50.0242 17.642 48.4821 19.2061 48.4821 21.3453C48.4821 23.4627 50.0242 25.0048 51.8649 25.0048C53.681 25.0048 55.108 23.4627 55.108 21.3453Z" fill="#B8B8B8"/>
<path d="M61.631 9.22168V27.026H59.0288V9.22168H61.631Z" fill="#B8B8B8"/>
<path d="M71.7702 23.3223L73.841 24.7028C73.1726 25.6916 71.562 27.3954 68.7791 27.3954C65.3278 27.3954 62.7502 24.7275 62.7502 21.32C62.7502 17.7071 65.3497 15.2446 68.4805 15.2446C71.6332 15.2446 73.1753 17.7537 73.6793 19.1095L73.956 19.7998L65.8345 23.1634C66.4563 24.3823 67.4232 25.0041 68.7791 25.0041C70.1377 25.0041 71.0799 24.3358 71.7702 23.3223ZM65.3962 21.1365L70.8252 18.8822C70.5266 18.1234 69.6282 17.5948 68.5709 17.5948C67.215 17.5948 65.3278 18.7918 65.3962 21.1365Z" fill="#B8B8B8"/>
<path d="M9.66523 19.7428V17.1653H18.351C18.4359 17.6145 18.4797 18.1459 18.4797 18.7211C18.4797 20.6549 17.9511 23.0462 16.2473 24.7499C14.5902 26.4755 12.4728 27.3959 9.66797 27.3959C4.46911 27.3959 0.0974731 23.1612 0.0974731 17.9624C0.0974731 12.7635 4.46911 8.52881 9.66797 8.52881C12.544 8.52881 14.5929 9.65733 16.1323 11.1282L14.3135 12.947C13.2097 11.9116 11.7141 11.1063 9.66523 11.1063C5.86881 11.1063 2.8996 14.1659 2.8996 17.9624C2.8996 21.7588 5.86881 24.8184 9.66523 24.8184C12.1277 24.8184 13.5301 23.8296 14.4286 22.9311C15.1572 22.2025 15.6365 21.1616 15.8255 19.74L9.66523 19.7428Z" fill="#B8B8B8"/>
</g>
<defs>
<clipPath id="clip0_310_2976">
<rect width="74.5042" height="25.1999" fill="white" transform="translate(0 8.3999)"/>
</clipPath>
</defs>
</svg>
