<svg width="68" height="42" viewBox="0 0 68 42" fill="none" xmlns="http://www.w3.org/2000/svg">
<g clip-path="url(#clip0_1666_1996)">
<path d="M11.9297 9C15.1044 9 18.1207 10.2569 20.3652 12.5146C22.61 14.7724 23.8594 17.8065 23.8594 21C23.8594 24.1934 22.6097 27.2277 20.3652 29.4854C18.1207 31.743 15.1043 33 11.9297 33C8.75535 32.9999 5.73824 31.743 3.49414 29.4854C1.24963 27.2279 0 24.1931 0 21C1.24405e-07 17.8066 1.24964 14.7724 3.49414 12.5146C5.73849 10.2571 8.75511 9.00005 11.9297 9ZM15.6787 27.4932C15.1082 27.827 14.4961 28.0828 13.8584 28.2539C14.1641 28.4268 14.4689 28.635 14.7715 28.876C14.725 29.2101 14.6203 29.5331 14.4619 29.8301C13.0362 28.5148 11.4381 28.1197 9.8916 29.5527C9.03514 30.4139 7.88099 30.8481 6.71484 30.8389C7.36846 31.1896 8.05524 31.4732 8.76562 31.6855C8.62324 31.5432 8.49026 31.3911 8.36719 31.2305C8.66949 31.1264 8.96211 30.9944 9.24023 30.8359C9.91906 31.6184 10.8944 32.0721 11.9297 32.0723C13.8833 32.0726 15.5596 30.4826 15.5762 28.501C15.5792 28.1374 15.6142 27.8015 15.6787 27.4932ZM19.1455 22.9258C18.9767 23.5673 18.7239 24.1827 18.3936 24.7568C18.7307 24.662 19.0928 24.5926 19.4756 24.5479C19.6775 24.8173 19.8307 25.1207 19.9277 25.4434C17.9921 25.5274 16.5874 26.3811 16.501 28.498C16.5009 29.7192 15.9925 30.8438 15.1631 31.665C15.8704 31.4485 16.554 31.1611 17.2041 30.8066C17.0033 30.8072 16.8015 30.7947 16.6016 30.7686C16.7425 30.4797 16.8572 30.1782 16.9424 29.8682C17.9722 29.9385 18.9817 29.5654 19.7139 28.8291C21.095 27.4396 21.1617 25.1229 19.7803 23.71C19.5271 23.4511 19.3164 23.1896 19.1455 22.9258ZM1.32715 24.252C1.54241 24.9634 1.82844 25.6514 2.18066 26.3057C2.18004 26.1036 2.19278 25.9006 2.21875 25.6992C2.50607 25.841 2.80584 25.9564 3.11426 26.042C3.0444 27.078 3.41444 28.0935 4.14648 28.8301C5.52795 30.2192 7.83065 30.2862 9.23535 28.8965C9.49297 28.6416 9.75392 28.43 10.0166 28.2578C9.37836 28.0878 8.76548 27.8331 8.19434 27.5C8.28912 27.8398 8.35761 28.2048 8.40234 28.5908C8.13451 28.7939 7.83353 28.9473 7.5127 29.0449C7.42919 27.098 6.58014 25.6855 4.47559 25.5986C3.26177 25.5985 2.14334 25.0864 1.32715 24.252ZM11.9297 14.3457C10.1696 14.3458 8.4967 15.0428 7.25195 16.2939C6.00714 17.546 5.31445 19.2295 5.31445 21C5.31445 22.7704 6.0064 24.4551 7.25098 25.707C8.49536 26.9587 10.1699 27.6542 11.9297 27.6543C13.69 27.6543 15.3648 26.9592 16.6094 25.707C17.8537 24.455 18.5459 22.7707 18.5459 21C18.5459 19.2292 17.853 17.5463 16.6084 16.2939C15.3636 15.0422 13.6901 14.3457 11.9297 14.3457ZM43.7373 16.1621V18.4678L46.4688 18.4512V19.5156H43.7373V24.2793C43.7373 25.3409 44.1458 25.7391 44.8818 25.7393C45.3235 25.7393 45.7825 25.5896 46.2568 25.291L46.6162 26.3359C46.0112 26.7506 45.3569 26.9834 44.6699 27C43.4103 27 42.4776 26.2369 42.4775 24.5117V19.5156H41.2334V18.4678H42.4775V16.1621H43.7373ZM52.1367 18.1582C54.6888 18.1582 56.5049 19.9502 56.5049 22.5547C56.5047 25.1752 54.6887 26.9834 52.1367 26.9834C49.5849 26.9832 47.7688 25.1751 47.7686 22.5547C47.7686 19.9504 49.5848 18.1584 52.1367 18.1582ZM34.7188 15L40.2002 26.9336H38.7715L37.4033 23.916H31.7695L30.4014 26.9336H28.9727L34.4541 15H34.7188ZM63.5391 15.3213C65.8457 15.3213 67.2373 16.3999 67.2373 18.2246C67.2373 19.5847 66.4683 20.5635 65.127 20.8457C66.7791 21.0945 67.7441 22.1898 67.7441 23.7822C67.7439 25.7559 66.2063 26.9335 63.6221 26.9336H59.1465V15.3213H63.5391ZM18.3857 17.2295C18.7176 17.8034 18.9718 18.4191 19.1416 19.0605C19.3135 18.7529 19.5205 18.4459 19.7598 18.1416C20.0919 18.1884 20.4127 18.294 20.708 18.4531C19.4005 19.8873 19.0082 21.4942 20.4326 23.0498C21.2889 23.9113 21.7201 25.0732 21.7109 26.2461C22.0597 25.5886 22.3416 24.8973 22.5527 24.1826C22.4115 24.326 22.2604 24.46 22.1006 24.584C21.9972 24.2794 21.8655 23.985 21.708 23.7051C22.4857 23.0222 22.9374 22.0414 22.9375 21C22.9378 19.0349 21.3569 17.3495 19.3867 17.333C19.0255 17.3298 18.6924 17.294 18.3857 17.2295ZM52.1367 19.3359C50.3374 19.3361 49.0451 20.6631 49.0449 22.5703C49.0449 24.4945 50.3373 25.8221 52.1367 25.8223C53.9362 25.8223 55.2295 24.4946 55.2295 22.5703C55.2293 20.6629 53.936 19.3359 52.1367 19.3359ZM60.4551 21.5918V25.6729H63.4746C65.339 25.6728 66.4188 24.9265 66.4189 23.5996C66.4189 22.3389 65.3392 21.5918 63.4746 21.5918H60.4551ZM2.14844 15.7539C1.79957 16.4113 1.51779 17.1027 1.30664 17.8174C1.44791 17.6741 1.59918 17.5399 1.75879 17.416C1.8623 17.7205 1.99464 18.0148 2.15234 18.2949C1.37435 18.9777 0.921945 19.9585 0.921875 21C0.92175 22.9652 2.50345 24.6516 4.47363 24.668C4.83546 24.6711 5.16891 24.7054 5.47559 24.7705C5.14359 24.1966 4.88906 23.5811 4.71875 22.9395C4.54681 23.2472 4.33923 23.5539 4.09961 23.8584C3.76736 23.8115 3.44666 23.7061 3.15137 23.5469C4.45897 22.1126 4.85141 20.5059 3.42676 18.9502C2.57053 18.0886 2.13932 16.9268 2.14844 15.7539ZM11.9297 18.5928C13.2516 18.5928 14.3232 19.6703 14.3232 21C14.3232 22.3298 13.2516 23.4072 11.9297 23.4072C10.6078 23.4071 9.53613 22.3297 9.53613 21C9.53613 19.6704 10.6078 18.5929 11.9297 18.5928ZM32.3652 22.6035H36.8076L34.5869 17.7051L32.3652 22.6035ZM60.4551 16.5986V20.3311H63.4746C65.0115 20.331 65.9119 19.6512 65.9121 18.4404C65.9121 17.2628 65.0123 16.5987 63.4746 16.5986H60.4551ZM8.69727 10.335C7.98979 10.5514 7.30567 10.8388 6.65527 11.1934C6.85629 11.1926 7.05769 11.2053 7.25781 11.2314C7.11694 11.5203 7.00301 11.8218 6.91797 12.1318C5.88792 12.0615 4.87786 12.4345 4.14551 13.1709C2.76455 14.5604 2.69767 16.8772 4.0791 18.29C4.33246 18.5493 4.54395 18.8109 4.71484 19.0752C4.88391 18.433 5.13753 17.817 5.46875 17.2422C5.13061 17.3373 4.76764 17.4071 4.38379 17.4521C4.18175 17.1827 4.02879 16.8793 3.93164 16.5566C5.86736 16.4726 7.27185 15.6187 7.3584 13.502C7.35849 12.2806 7.86774 11.1562 8.69727 10.335ZM19.7139 13.1699C18.3326 11.7804 16.0288 11.7138 14.624 13.1035C14.3665 13.3582 14.1062 13.5701 13.8438 13.7422C14.4817 13.9121 15.0938 14.1667 15.665 14.499C15.5706 14.1595 15.5015 13.7947 15.457 13.4092C15.7247 13.206 16.026 13.0528 16.3467 12.9551C16.4302 14.9021 17.2794 16.3153 19.3838 16.4023C20.5978 16.4024 21.716 16.9136 22.5322 17.748C22.317 17.0367 22.0309 16.3486 21.6787 15.6943C21.6794 15.8965 21.6675 16.0994 21.6416 16.3008C21.3543 16.159 21.0537 16.0436 20.7451 15.958C20.8151 14.9221 20.4459 13.9065 19.7139 13.1699ZM11.9297 9.92773C9.976 9.92748 8.3004 11.5181 8.28418 13.5C8.28117 13.8636 8.24615 14.1993 8.18164 14.5078C8.75238 14.1736 9.36406 13.9173 10.002 13.7461C9.69601 13.5731 9.39055 13.3649 9.08789 13.124C9.13442 12.7897 9.24013 12.4671 9.39844 12.1699C10.8242 13.4851 12.4215 13.88 13.9678 12.4473C14.8243 11.5857 15.9795 11.152 17.1455 11.1611C16.4917 10.8101 15.8045 10.5259 15.0938 10.3135C15.2364 10.4559 15.3699 10.6086 15.4932 10.7695C15.1905 10.8737 14.8976 11.0055 14.6191 11.1641C13.9404 10.3817 12.965 9.92775 11.9297 9.92773Z" fill="#B8B8B8"/>
</g>
<defs>
<clipPath id="clip0_1666_1996">
<rect width="68" height="24" fill="white" transform="translate(0 9)"/>
</clipPath>
</defs>
</svg>
