<svg width="101" height="42" viewBox="0 0 101 42" fill="none" xmlns="http://www.w3.org/2000/svg">
<path d="M9.22656 27.9741C11.1019 27.9741 12.4843 29.3061 12.4844 31.5269C12.4844 33.7477 11.102 35.0806 9.22656 35.0806C7.35139 35.0804 5.96973 33.7475 5.96973 31.5269C5.96979 29.3063 7.35143 27.9743 9.22656 27.9741ZM28.8662 32.4155C28.8663 33.5504 29.4092 34.1918 30.4453 34.1919H30.5439C31.5803 34.1919 32.1239 33.5505 32.124 32.4155V28.0728H33.1104V32.5142C33.1103 34.0439 32.2223 35.0805 30.4951 35.0806C28.7185 35.0806 27.879 34.044 27.8789 32.5142V28.0728H28.8662V32.4155ZM36.7158 27.9741C38.2456 27.9742 39.2231 28.8126 39.2725 30.145H38.2852C38.2357 29.3554 37.6036 28.8618 36.7646 28.8618H36.666C35.8075 28.8619 35.2354 29.3261 35.2354 29.938C35.2354 30.4709 35.6004 30.7863 36.1826 30.9048L37.2881 31.1226C38.4823 31.3594 39.1737 31.9908 39.1738 33.1157C39.1738 34.3297 38.147 35.0805 36.6172 35.0806C34.9887 35.0806 33.9519 34.2909 33.9023 32.7612H34.8896C34.8899 33.6986 35.6201 34.1918 36.6562 34.1919H36.7549C37.6826 34.1919 38.1865 33.7282 38.1865 33.1558C38.1865 32.5932 37.831 32.2677 37.1006 32.1196L35.9951 31.8921C34.8897 31.6651 34.2481 31.0433 34.248 29.9478C34.248 28.862 35.2254 27.9741 36.7158 27.9741ZM57.876 27.9741C59.4059 27.9741 60.3832 28.8126 60.4326 30.145H59.4463C59.3969 29.3554 58.7647 28.8618 57.9258 28.8618H57.8271C56.9684 28.8618 56.3955 29.326 56.3955 29.938C56.3956 30.4709 56.7614 30.7863 57.3438 30.9048L58.4492 31.1226C59.6432 31.3595 60.3338 31.9909 60.334 33.1157C60.334 34.3298 59.3073 35.0806 57.7773 35.0806C56.1491 35.0804 55.113 34.2908 55.0635 32.7612H56.0508C56.051 33.6987 56.7811 34.1919 57.8174 34.1919H57.916C58.8437 34.1919 59.3466 33.7282 59.3467 33.1558C59.3467 32.5932 58.9919 32.2677 58.2617 32.1196L57.1562 31.8921C56.0508 31.6651 55.4092 31.0434 55.4092 29.9478C55.4092 28.8621 56.3858 27.9743 57.876 27.9741ZM63.6602 27.9741C65.19 27.9741 66.1674 28.8126 66.2168 30.145H65.2305C65.1811 29.3554 64.5489 28.8618 63.71 28.8618H63.6113C62.7526 28.8618 62.1797 29.326 62.1797 29.938C62.1797 30.4709 62.5456 30.7863 63.1279 30.9048L64.2334 31.1226C65.4274 31.3595 66.118 31.9909 66.1182 33.1157C66.1182 34.3298 65.0914 35.0806 63.5615 35.0806C61.9333 35.0804 60.8972 34.2908 60.8477 32.7612H61.835C61.8352 33.6987 62.5653 34.1919 63.6016 34.1919H63.7002C64.6279 34.1919 65.1308 33.7282 65.1309 33.1558C65.1309 32.5932 64.776 32.2677 64.0459 32.1196L62.9404 31.8921C61.8349 31.6651 61.1934 31.0434 61.1934 29.9478C61.1934 28.8621 62.17 27.9743 63.6602 27.9741ZM5.72656 28.9604H1.87695V31.1812H5.2334V32.0698H1.87695V34.9819H0.890625V28.0728H5.72656V28.9604ZM16.4199 28.0728C17.7031 28.0728 18.5918 28.862 18.5918 29.9478C18.5918 30.836 18.0985 31.4973 17.457 31.6948C18.2463 31.6949 18.4931 31.9711 18.4932 32.6616V34.9819H17.5059V32.9087C17.5058 32.366 17.3581 32.2183 16.8154 32.2183H14.4463V34.9819H13.459V28.0728H16.4199ZM24.7988 28.0728C25.8845 28.0728 26.7723 28.7631 26.7725 29.8979C26.7725 30.6876 26.2989 31.2313 25.6475 31.478C26.4272 31.6063 26.9208 32.2079 26.9209 33.106C26.9209 34.2509 25.9832 34.9819 24.8975 34.9819H21.7881V28.0728H24.7988ZM41.207 34.9819H40.2197V28.0728H41.207V34.9819ZM47.1807 33.7876V28.0728H48.167V34.9819H46.7852L43.5771 29.2661V34.9819H42.5908V28.0728H43.9727L47.1807 33.7876ZM54.5859 28.9604H50.5391V30.9839H53.9941V31.8726H50.5391V34.0933H54.6846V34.9819H49.5527V28.0728H54.5859V28.9604ZM9.17773 28.8618C7.89461 28.8618 6.95709 29.849 6.95703 31.5269C6.95703 33.2048 7.89457 34.1919 9.17773 34.1919H9.27637C10.5595 34.1919 11.4971 33.2048 11.4971 31.5269C11.497 29.849 10.5595 28.8618 9.27637 28.8618H9.17773ZM22.7754 34.0933H24.7002C25.4404 34.0932 25.9336 33.6982 25.9336 33.0073C25.9335 32.3165 25.4404 31.9214 24.7002 31.9214H22.7754V34.0933ZM14.4463 31.3296H16.2725C17.1112 31.3295 17.6043 30.7869 17.6045 30.0962C17.6045 29.3559 17.1114 28.9605 16.2725 28.9604H14.4463V31.3296ZM22.7754 31.0337H24.6504C25.3413 31.0337 25.7861 30.6382 25.7861 29.9966C25.7859 29.3553 25.3412 28.9604 24.6504 28.9604H22.7754V31.0337ZM63.0293 6.91943C66.003 6.91949 67.6757 8.20484 67.6758 11.5063C67.6758 12.4935 67.5457 13.4582 67.3066 14.6567H67.3057C66.1982 20.4008 63.7882 22.4155 59.9883 22.4155C56.9917 22.4155 55.3418 21.1293 55.3418 17.8276C55.3418 16.8406 55.4487 15.8758 55.6895 14.6772C56.8409 8.93537 59.2086 6.91943 63.0293 6.91943ZM84.3555 6.92529C86.5698 6.92529 87.723 7.9444 87.748 9.64307C87.7558 10.1319 87.6968 10.6426 87.5361 11.3843H87.5381V11.3862L85.9043 18.7349C85.6827 19.7744 85.373 20.5179 84.9717 21.0483C84.3597 21.8767 83.3574 22.2817 82.002 22.2817C79.7664 22.2817 78.4849 21.3037 78.46 19.6274C78.4522 19.1386 78.5117 18.6929 78.6914 17.8872L80.3242 10.5386C80.8672 8.05259 82.141 6.92536 84.3555 6.92529ZM6.56152 7.16846C9.54874 7.16849 11.1436 8.30912 11.1436 11.6011C11.1436 12.5848 11.0116 13.5453 10.7725 14.7397H10.7705C9.65937 20.465 7.24407 22.1812 3.42871 22.1812C2.61252 22.1811 2.30252 22.1646 1.4668 22.1724V22.1733H0L3.11133 7.22021C3.11133 7.22021 6.20769 7.16846 6.56152 7.16846ZM95.7881 20.5845L98.7441 7.16846H100.616L97.2754 22.1548H94.2178L92.0391 8.50928L89.085 22.1548H87.1416L90.502 7.16846H93.5918L95.7881 20.5845ZM17.4395 22.1519H15.5693L15.7832 19.353L15.9346 17.6128L16.001 16.9399H13.9277L13.6777 17.6128L12.9688 19.3511L11.8496 22.1509H9.87402L16.0195 7.17334H18.5977L17.4395 22.1519ZM20.7266 22.1489H18.877L22.3779 7.17236H24.2061L20.7266 22.1489ZM25.3848 20.4731H29.7031L29.3164 22.1489H23.1475L26.6738 7.17236H28.5205L25.3848 20.4731ZM33.6826 14.4702L37.7002 7.17236H39.7852L34.1543 16.3579L32.8223 22.1489H30.9521L32.3057 16.3149L31.2744 7.17236H33.1455L33.6826 14.4702ZM75.5264 8.84912H72.8184L69.8926 22.1489H68.0225L70.9482 8.84912H67.9814L68.3906 7.17236H75.9355L75.5264 8.84912ZM75.6582 22.1489H73.8096L77.1211 7.17236H78.9473L75.6582 22.1489ZM45.1641 15.7749C45.3173 17.4301 45.4027 18.7666 45.5137 20.5747H45.5576C46.2767 18.7894 46.8894 17.4341 47.6943 15.7749L51.9199 7.18799H55.0605L53.3828 22.144H51.333L52.4023 13.2134C52.5992 11.5995 52.8168 10.2212 53.0791 8.56592L53.0352 8.54346C52.2933 10.1572 51.6389 11.5767 50.834 13.2134L46.5176 22.1431H43.8789L43.0508 13.2134C42.8978 11.5995 42.7887 10.1569 42.6797 8.56592H42.6377C42.2688 10.1569 41.9188 11.5786 41.46 13.2134L39.0615 22.1431H36.9902L41.2168 7.18799H44.3125L45.1641 15.7749ZM62.7881 8.50732C60.3134 8.50742 58.6427 10.1157 57.7305 14.7212C57.4914 15.7917 57.3613 16.8426 57.3613 17.7017C57.3614 19.9289 58.3152 20.8295 60.2041 20.8296C62.7016 20.8296 64.3501 19.2213 65.2852 14.6157C65.5032 13.5455 65.6553 12.4933 65.6553 11.6343C65.6552 9.42623 64.7003 8.50732 62.7881 8.50732ZM84.2715 8.49756C83.6267 8.49734 83.1358 8.70996 82.7988 9.13428C82.5236 9.47383 82.3823 9.91962 82.1777 10.7896L80.5439 18.1792C80.4427 18.6244 80.3856 19.0496 80.3896 19.3687C80.4031 20.2616 80.9902 20.7485 82 20.7485C83.0743 20.7484 83.6459 20.1329 83.9883 18.604L85.6426 11.2993C85.8032 10.5764 85.8641 10.2359 85.8584 9.896C85.8448 8.98334 85.28 8.49432 84.2695 8.49365L84.2715 8.49756ZM4.60156 8.84033V8.83545L2.2207 20.3745C2.88394 20.3843 3.08304 20.3919 3.95898 20.3882C6.46587 20.375 7.96914 19.3251 8.9082 14.7349L8.91016 14.7368C9.12816 13.6706 9.2793 12.6221 9.2793 11.7671C9.27916 9.56649 8.12759 8.83959 6.20801 8.82275C5.52319 8.81536 5.34734 8.82319 4.60156 8.84033ZM14.584 15.1792H16.1807L16.9648 8.53369L14.584 15.1792Z" fill="#B8B8B8"/>
</svg>
