<svg width="100" height="42" viewBox="0 0 100 42" fill="none" xmlns="http://www.w3.org/2000/svg">
<g clip-path="url(#clip0_310_3047)">
<path opacity="0.6" d="M14.6265 23.4709C14.6265 21.5304 13.5974 14.4019 13.2626 9.3386C13.226 8.78549 12.4202 8.60906 12.1403 9.09959C8.83083 14.9004 4.19466 24.4809 3.31985 26.6312C2.22557 29.3209 14.6265 25.051 14.6265 23.4709Z" fill="#B8B8B8"/>
<path opacity="0.8" d="M11.377 27.4809V13.6783C11.377 13.0188 12.1035 12.6362 12.6194 13.0412C17.8631 17.157 23.1371 24.181 22.7298 25.0673C22.0496 26.5474 15.9278 27.5416 12.3814 28.2942C11.8677 28.4033 11.377 28.0106 11.377 27.4809Z" fill="#B8B8B8"/>
<path d="M21.1222 23.2376C20.8331 20.387 12.4541 28.3968 3.8991 28.63C3.31952 28.6458 3.01375 29.3991 3.47615 29.74C17.1258 39.8025 21.2795 24.7892 21.1222 23.2376Z" fill="#B8B8B8"/>
<path d="M35.3287 26.6229V16.9542H33.46V28.3292H41.1625V26.6229H35.3287Z" fill="#B8B8B8"/>
<path d="M43.9589 28.2154V20.0904H42.0739V28.2154H43.9589ZM43.0164 19.2292C43.6826 19.2292 44.2026 18.6929 44.2026 18.0429C44.2026 17.3767 43.6826 16.8404 43.0164 16.8404C42.3501 16.8404 41.8301 17.3767 41.8301 18.0429C41.8301 18.6929 42.3501 19.2292 43.0164 19.2292Z" fill="#B8B8B8"/>
<path d="M48.911 18.6929C49.2523 18.4329 49.7885 18.4004 50.6498 18.4329V16.7267C49.6098 16.6779 48.5373 16.7267 47.676 17.4092C46.9448 17.9779 46.6198 18.7742 46.6198 19.9279V20.0904H45.011V21.7967H46.6198V28.2154H48.4885V21.7967H50.6498V20.0904H48.4885V19.9279C48.4885 19.0179 48.7648 18.8067 48.911 18.6929Z" fill="#B8B8B8"/>
<path d="M59.8847 24.8517H60.2097C60.2585 24.6242 60.2747 24.3967 60.2747 24.1529C60.2747 21.8129 58.2272 19.9117 55.6922 19.9117C53.1735 19.9117 51.126 21.8129 51.126 24.1529C51.126 26.4929 53.3197 28.3942 56.001 28.3942C57.6747 28.3942 59.186 27.6629 60.0797 26.4929L58.341 25.7617C57.7885 26.3304 56.9272 26.6879 56.001 26.6879C54.636 26.6879 53.4822 25.9079 53.1085 24.8517H59.8847ZM53.1085 23.4542C53.4335 22.3979 54.4735 21.6179 55.6922 21.6179C56.9272 21.6179 57.9672 22.3979 58.2922 23.4542H53.1085Z" fill="#B8B8B8"/>
<path d="M69.8154 21.1629C69.3929 20.7729 68.8892 20.4479 68.3204 20.2204C67.7517 20.0092 67.1342 19.9117 66.5329 19.9117C65.9154 19.9279 65.3142 20.0579 64.7779 20.3017C64.2904 20.5292 63.8517 20.8542 63.4942 21.2117V16.8404H61.6254V28.2154H63.4942V27.0942C63.8517 27.4679 64.2904 27.7767 64.7779 28.0042C65.3142 28.2479 65.9154 28.3779 66.5329 28.3942C67.1342 28.4104 67.7517 28.2967 68.3204 28.0854C68.8892 27.8742 69.3929 27.5492 69.8154 27.1429C70.6442 26.3467 71.1154 25.2417 71.0992 24.1529C71.1154 23.0642 70.6442 21.9592 69.8154 21.1629ZM68.4342 25.9242C67.9304 26.3954 67.2479 26.6554 66.5329 26.6879C66.1754 26.7042 65.8179 26.6554 65.4604 26.5579C65.1192 26.4604 64.7779 26.2979 64.4854 26.0704C63.8842 25.6154 63.4942 24.9004 63.4942 24.1529C63.4942 23.4054 63.8842 22.6904 64.4854 22.2517C64.7779 22.0242 65.1192 21.8454 65.4604 21.7479C65.8179 21.6504 66.1754 21.6017 66.5329 21.6179C67.2479 21.6504 67.9304 21.9104 68.4342 22.3817C68.9379 22.8367 69.2304 23.4867 69.2304 24.1529C69.2304 24.8192 68.9379 25.4692 68.4342 25.9242Z" fill="#B8B8B8"/>
<path d="M76.5923 19.9117C74.0735 19.9117 72.026 21.8129 72.026 24.1529C72.026 26.4929 74.0735 28.3942 76.5923 28.3942C79.1273 28.3942 81.1748 26.4929 81.1748 24.1529C81.1748 21.8129 79.1273 19.9117 76.5923 19.9117ZM76.5923 26.6879C75.1135 26.6879 73.8948 25.5504 73.8948 24.1529C73.8948 22.7554 75.1135 21.6179 76.5923 21.6179C78.0873 21.6179 79.306 22.7554 79.306 24.1529C79.306 25.5504 78.0873 26.6879 76.5923 26.6879Z" fill="#B8B8B8"/>
<path d="M89.7079 20.0904V21.2117C89.3504 20.8542 88.9117 20.5292 88.4242 20.3017C87.8879 20.0579 87.2867 19.9279 86.6692 19.9117C86.0679 19.9117 85.4504 20.0092 84.8817 20.2204C84.3129 20.4479 83.8092 20.7729 83.3867 21.1629C82.5579 21.9592 82.0867 23.0642 82.1029 24.1529C82.0867 25.2417 82.5579 26.3467 83.3867 27.1429C83.8092 27.5492 84.3129 27.8742 84.8817 28.0854C85.4504 28.2967 86.0679 28.4104 86.6692 28.3942C87.2867 28.3779 87.8879 28.2479 88.4242 28.0042C88.9117 27.7767 89.3504 27.4679 89.7079 27.0942V28.2154H91.5767V20.0904H89.7079ZM88.7167 26.0704C88.4242 26.2979 88.0829 26.4604 87.7417 26.5579C87.3842 26.6554 87.0267 26.7042 86.6692 26.6879C85.9542 26.6554 85.2717 26.3954 84.7679 25.9242C84.2642 25.4692 83.9717 24.8192 83.9717 24.1529C83.9717 23.4867 84.2642 22.8367 84.7679 22.3817C85.2717 21.9104 85.9542 21.6504 86.6692 21.6179C87.0267 21.6017 87.3842 21.6504 87.7417 21.7479C88.0829 21.8454 88.4242 22.0242 88.7167 22.2517C89.3179 22.6904 89.7079 23.4054 89.7079 24.1529C89.7079 24.9004 89.3179 25.6154 88.7167 26.0704Z" fill="#B8B8B8"/>
<path d="M98.6786 21.8617V20.1554H96.3711V17.3442L94.4861 18.3192V20.1554H92.6661V21.8617H94.4861V25.1767C94.4861 26.2004 94.6323 27.2404 95.6236 27.8904C96.1598 28.2479 96.8586 28.3617 97.6061 28.3617C97.9636 28.3617 98.3211 28.3292 98.6786 28.2967V26.5742C97.9798 26.6554 97.0536 26.7204 96.7123 26.4929C96.5336 26.3954 96.3711 26.2004 96.3711 25.1767V21.8617H98.6786Z" fill="#B8B8B8"/>
</g>
<defs>
<clipPath id="clip0_310_3047">
<rect width="99.9375" height="26" fill="white" transform="translate(0 8)"/>
</clipPath>
</defs>
</svg>
