<svg width="122" height="42" viewBox="0 0 122 42" fill="none" xmlns="http://www.w3.org/2000/svg">
<path fill-rule="evenodd" clip-rule="evenodd" d="M0.000439452 17.4999C2.6395 18.2062 4.81122 18.0296 6.51561 16.9701C7.24325 16.5178 7.88252 15.9796 8.52218 15.4411C10.13 14.0876 11.7403 12.7319 14.7627 12.7319C18.9874 12.7319 22.4287 16.1683 22.4287 21.2083C22.4127 26.229 18.9771 29.6493 14.7622 29.6493C11.7399 29.6493 10.1296 28.2937 8.52174 26.9401C7.88207 26.4016 7.24281 25.8635 6.51517 25.4111C4.81078 24.3516 2.63906 24.175 0 24.8814C0.597866 24.2673 1.03771 23.8552 1.31953 23.6452C2.41726 22.8273 3.73425 22.4135 4.61835 22.3208C6.45519 22.1282 8.42699 22.5937 9.89646 23.5569C10.3143 23.8308 10.6733 24.1559 11.0323 24.481C11.9359 25.2993 12.8393 26.1175 14.6798 26.1175C17.2513 26.1175 19.13 24.0983 19.1219 21.173C19.1148 18.2667 17.2414 16.2637 14.6802 16.2637C12.8398 16.2637 11.9363 17.0819 11.0327 17.9002C10.6737 18.2253 10.3147 18.5504 9.8969 18.8243C8.42743 19.7875 6.45563 20.2531 4.61879 20.0604C3.73469 19.9677 2.4177 19.5539 1.31997 18.736C1.03815 18.526 0.598305 18.114 0.000439452 17.4999ZM100.987 17.5988H98.2359V27.5397H100.987V17.5988ZM98.5652 15.9097C98.8579 16.1815 99.2087 16.3174 99.6177 16.3174C100.027 16.3174 100.375 16.1815 100.664 15.9097C100.956 15.6335 101.103 15.3035 101.103 14.9195C101.103 14.5398 100.956 14.214 100.664 13.9422C100.375 13.6661 100.027 13.528 99.6177 13.528C99.2087 13.528 98.8579 13.6661 98.5652 13.9422C98.2768 14.214 98.1326 14.5398 98.1326 14.9195C98.1326 15.3035 98.2768 15.6335 98.5652 15.9097ZM42.8563 24.6015C43.403 23.5875 43.6763 22.3579 43.6763 20.9125C43.6763 19.4671 43.403 18.2374 42.8563 17.2235C42.3139 16.2095 41.5735 15.4372 40.6351 14.9065C39.701 14.3715 38.6507 14.104 37.4842 14.104C36.309 14.104 35.2544 14.3715 34.3203 14.9065C33.3862 15.4372 32.648 16.2095 32.1056 17.2235C31.5632 18.2374 31.2921 19.4671 31.2921 20.9125C31.2921 22.3536 31.5632 23.5811 32.1056 24.595C32.648 25.6089 33.3862 26.3834 34.3203 26.9184C35.2544 27.4534 36.309 27.7209 37.4842 27.7209C38.6507 27.7209 39.701 27.4556 40.6351 26.9249C41.5735 26.3899 42.3139 25.6154 42.8563 24.6015ZM40.422 18.5437C40.7018 19.1866 40.8417 19.9762 40.8417 20.9125C40.8417 21.8487 40.7018 22.6383 40.422 23.2812C40.1465 23.9241 39.757 24.4116 39.2534 24.7439C38.7497 25.0761 38.16 25.2422 37.4842 25.2422C36.8084 25.2422 36.2186 25.0761 35.715 24.7439C35.2114 24.4116 34.8197 23.9241 34.5399 23.2812C34.2644 22.6383 34.1266 21.8487 34.1266 20.9125C34.1266 19.9762 34.2644 19.1866 34.5399 18.5437C34.8197 17.9009 35.2114 17.4133 35.715 17.0811C36.2186 16.7489 36.8084 16.5828 37.4842 16.5828C38.16 16.5828 38.7497 16.7489 39.2534 17.0811C39.757 17.4133 40.1465 17.9009 40.422 18.5437ZM45.1502 17.5988V31.2676H47.9008V25.9476H47.9847C48.1096 26.2238 48.2904 26.4978 48.5271 26.7696C48.7639 27.0371 49.0673 27.2593 49.4375 27.4362C49.812 27.6131 50.2662 27.7015 50.7999 27.7015C51.5532 27.7015 52.2333 27.5074 52.8403 27.1191C53.4515 26.7264 53.9337 26.1504 54.2866 25.3911C54.6439 24.6274 54.8225 23.6911 54.8225 22.5822C54.8225 21.4432 54.6396 20.4961 54.2737 19.7411C53.9078 18.9817 53.4193 18.4143 52.808 18.0389C52.1968 17.6593 51.5296 17.4694 50.8064 17.4694C50.2511 17.4694 49.7862 17.5643 49.4117 17.7542C49.0415 17.9397 48.7402 18.1727 48.5077 18.4531C48.2796 18.7293 48.1053 19.0011 47.9847 19.2686H47.8621V17.5988H45.1502ZM48.0881 24.1161C47.9245 23.676 47.8427 23.1604 47.8427 22.5693C47.8427 21.9782 47.9245 21.4647 48.0881 21.029C48.2516 20.5932 48.4862 20.2567 48.7919 20.0193C49.1018 19.782 49.4806 19.6634 49.9283 19.6634C50.3802 19.6634 50.7612 19.7864 51.0711 20.0323C51.381 20.2782 51.6156 20.6191 51.7749 21.0549C51.9342 21.4906 52.0138 21.9954 52.0138 22.5693C52.0138 23.1474 51.932 23.6587 51.7685 24.1031C51.6092 24.5432 51.3746 24.8884 51.0647 25.1386C50.7547 25.3846 50.3759 25.5075 49.9283 25.5075C49.4849 25.5075 49.1082 25.3867 48.7983 25.1451C48.4884 24.8992 48.2516 24.5562 48.0881 24.1161ZM60.6306 27.7339C59.6104 27.7339 58.7323 27.5268 57.9962 27.1126C57.2644 26.6941 56.7005 26.103 56.3045 25.3393C55.9085 24.5713 55.7105 23.663 55.7105 22.6146C55.7105 21.592 55.9085 20.6946 56.3045 19.9223C56.7005 19.15 57.258 18.5481 57.9768 18.1166C58.7 17.6851 59.548 17.4694 60.5208 17.4694C61.1751 17.4694 61.7842 17.5751 62.3481 17.7865C62.9163 17.9936 63.4114 18.3064 63.8332 18.725C64.2593 19.1435 64.5908 19.6699 64.8276 20.3041C65.0643 20.934 65.1827 21.6718 65.1827 22.5175V23.2747H58.4288V23.2812C58.4288 23.7731 58.5192 24.1981 58.7 24.5562C58.8851 24.9143 59.1455 25.1904 59.4813 25.3846C59.817 25.5787 60.2152 25.6758 60.6758 25.6758C60.9814 25.6758 61.2612 25.6327 61.5152 25.5464C61.7692 25.4601 61.9865 25.3306 62.1673 25.1581C62.3481 24.9855 62.4859 24.7741 62.5806 24.5238L65.1246 24.6921C64.9954 25.3048 64.7307 25.8398 64.3304 26.2971C63.9344 26.7502 63.4221 27.104 62.7936 27.3585C62.1695 27.6088 61.4485 27.7339 60.6306 27.7339ZM58.7065 20.5889C58.5397 20.8834 58.448 21.2092 58.4314 21.5661H62.5935C62.5935 21.1692 62.5074 20.8176 62.3352 20.5112C62.163 20.2049 61.9241 19.9654 61.6185 19.7928C61.3172 19.6159 60.9664 19.5275 60.566 19.5275C60.1485 19.5275 59.7783 19.6246 59.4555 19.8187C59.1369 20.0086 58.8873 20.2653 58.7065 20.5889ZM69.1828 27.5397V21.7927C69.1871 21.3655 69.2668 21.0009 69.4217 20.6989C69.581 20.3926 69.8005 20.1596 70.0803 19.9999C70.3644 19.8403 70.6916 19.7605 71.0618 19.7605C71.6127 19.7605 72.0453 19.9331 72.3596 20.2782C72.6738 20.6191 72.8288 21.0937 72.8245 21.7021V27.5397H75.5751V21.2102C75.5751 20.4379 75.433 19.7734 75.1489 19.2168C74.8648 18.6559 74.4667 18.2245 73.9544 17.9224C73.4422 17.6204 72.8417 17.4694 72.153 17.4694C71.4169 17.4694 70.7906 17.6398 70.274 17.9807C69.7575 18.3172 69.3894 18.7746 69.1699 19.3527H69.0537V17.5988H66.4322V27.5397H69.1828ZM79.9481 27.5397H77.1975V14.2852H79.9481V27.5397ZM82.3228 31.1834C82.6284 31.2395 82.9555 31.2676 83.3042 31.2676C83.9843 31.2676 84.5654 31.1575 85.0475 30.9375C85.5296 30.7218 85.9278 30.4133 86.2421 30.012C86.5606 29.6151 86.8124 29.1491 86.9975 28.6141L90.8522 17.5988H87.9402L85.8676 24.8992H85.7643L83.711 17.5988H80.8183L84.376 27.8245L84.2146 28.2452C84.0941 28.5558 83.937 28.7759 83.7433 28.9053C83.5539 29.0347 83.3279 29.0952 83.0653 29.0865C82.807 29.0779 82.5165 29.024 82.1936 28.9247L81.5738 30.9828C81.7718 31.0648 82.0214 31.1317 82.3228 31.1834ZM96.9896 17.5988V19.6699H95.1236V24.485C95.1236 24.7395 95.1623 24.938 95.2398 25.0804C95.3173 25.2185 95.4249 25.3155 95.5626 25.3716C95.7047 25.4277 95.8683 25.4558 96.0534 25.4558C96.1825 25.4558 96.3116 25.445 96.4408 25.4234C96.5699 25.3975 96.6689 25.3781 96.7378 25.3652L97.1704 27.4168C97.0326 27.4599 96.8389 27.5095 96.5893 27.5656C96.3396 27.626 96.0361 27.6627 95.6789 27.6756C95.016 27.7015 94.4348 27.6131 93.9355 27.4103C93.4405 27.2075 93.0552 26.8925 92.7797 26.4654C92.5042 26.0382 92.3687 25.4989 92.373 24.8474V19.6699H91.017V17.5988H92.373V15.2172H95.1236V17.5988H96.9896ZM107.125 27.7339C106.11 27.7339 105.236 27.5182 104.504 27.0867C103.777 26.6509 103.217 26.0469 102.825 25.2746C102.438 24.5022 102.244 23.6134 102.244 22.6081C102.244 21.5899 102.44 20.6967 102.832 19.9287C103.228 19.1564 103.789 18.5545 104.517 18.1231C105.244 17.6873 106.11 17.4694 107.113 17.4694C107.978 17.4694 108.735 17.6269 109.385 17.9419C110.035 18.2568 110.55 18.6991 110.929 19.2686C111.307 19.8381 111.516 20.5069 111.555 21.2749H108.959C108.886 20.7787 108.692 20.3796 108.378 20.0776C108.068 19.7713 107.661 19.6181 107.158 19.6181C106.732 19.6181 106.359 19.7346 106.041 19.9676C105.727 20.1962 105.481 20.5306 105.305 20.9707C105.128 21.4108 105.04 21.9437 105.04 22.5693C105.04 23.2035 105.126 23.7429 105.298 24.1873C105.475 24.6317 105.722 24.9704 106.041 25.2034C106.359 25.4364 106.732 25.5528 107.158 25.5528C107.472 25.5528 107.754 25.4881 108.004 25.3587C108.258 25.2293 108.466 25.0416 108.63 24.7956C108.798 24.5454 108.908 24.2455 108.959 23.896H111.555C111.512 24.6554 111.305 25.3242 110.935 25.9023C110.569 26.4762 110.063 26.9249 109.418 27.2485C108.772 27.5721 108.008 27.7339 107.125 27.7339ZM118.504 20.5889L121.022 20.4336C120.902 19.5189 120.48 18.7962 119.757 18.2655C119.038 17.7348 118.052 17.4694 116.8 17.4694C115.952 17.4694 115.211 17.5945 114.578 17.8448C113.95 18.095 113.461 18.451 113.113 18.9126C112.768 19.3743 112.596 19.9244 112.596 20.563C112.596 21.3051 112.831 21.9156 113.3 22.3945C113.773 22.8735 114.494 23.21 115.463 23.4042L117.181 23.7472C117.611 23.8335 117.93 23.9586 118.136 24.1226C118.343 24.2822 118.448 24.4871 118.453 24.7374C118.448 25.0351 118.298 25.2789 118.001 25.4687C117.708 25.6542 117.32 25.747 116.838 25.747C116.348 25.747 115.945 25.6435 115.631 25.4364C115.317 25.2249 115.119 24.9186 115.037 24.5173L112.331 24.6597C112.465 25.6089 112.919 26.3597 113.694 26.912C114.473 27.4599 115.519 27.7339 116.832 27.7339C117.693 27.7339 118.453 27.598 119.111 27.3262C119.774 27.05 120.295 26.666 120.674 26.1742C121.057 25.6823 121.248 25.1106 121.248 24.4591C121.248 23.7429 121.012 23.1647 120.538 22.7246C120.065 22.2845 119.346 21.9652 118.382 21.7668L116.586 21.4043C116.126 21.3051 115.801 21.1735 115.612 21.0096C115.422 20.8456 115.327 20.645 115.327 20.4077C115.327 20.11 115.474 19.8727 115.766 19.6958C116.059 19.5145 116.419 19.4239 116.845 19.4239C117.163 19.4239 117.437 19.4779 117.665 19.5857C117.897 19.6893 118.084 19.8295 118.227 20.0064C118.369 20.179 118.461 20.3731 118.504 20.5889Z" fill="#B8B8B8"/>
</svg>
