<svg width="111" height="42" viewBox="0 0 111 42" fill="none" xmlns="http://www.w3.org/2000/svg">
<path d="M41.3925 18.7972H42.6987V15.3816H44.9312C46.5343 15.3816 47.7099 14.6514 47.7099 12.8847C47.7099 11.118 46.5343 10.376 44.9312 10.376H41.3925V18.7972ZM42.6987 14.2627V11.4949H44.8718C45.8574 11.4949 46.3562 11.9307 46.3562 12.8847C46.3562 13.8269 45.8574 14.2627 44.8718 14.2627H42.6987Z" fill="#B8B8B8"/>
<path d="M49.6952 15.6878C49.6952 14.5454 50.4552 13.7563 51.512 13.7563C51.6545 13.7563 51.7614 13.768 51.9039 13.7916V12.6845C51.7258 12.6609 51.5595 12.6491 51.3458 12.6491C50.5264 12.6491 50.0395 13.1791 49.7189 13.9329H49.6952V12.7905H48.5315V18.7972H49.6952V15.6878Z" fill="#B8B8B8"/>
<path d="M55.1121 18.9739C57.0002 18.9739 58.1402 17.6665 58.1402 15.7821C58.1402 13.9094 57.0002 12.602 55.124 12.602C53.224 12.602 52.084 13.9211 52.084 15.7938C52.084 17.6783 53.224 18.9739 55.1121 18.9739ZM53.2953 15.7938C53.2953 14.5336 53.8653 13.5678 55.124 13.5678C56.3589 13.5678 56.9289 14.5336 56.9289 15.7938C56.9289 17.0423 56.3589 18.0199 55.124 18.0199C53.8653 18.0199 53.2953 17.0423 53.2953 15.7938Z" fill="#B8B8B8"/>
<path d="M62.1824 18.9621C63.7261 18.9621 64.9017 17.7725 64.9017 15.7938C64.9017 13.8151 63.7261 12.6138 62.1824 12.6138C61.2324 12.6138 60.6506 13.0731 60.3181 13.4971H60.2943V10.376H59.1306V18.7972H60.2943V18.0552H60.3181C60.6506 18.5381 61.2324 18.9621 62.1824 18.9621ZM60.3062 15.7938C60.3062 14.4276 60.9474 13.5796 61.9924 13.5796C63.1324 13.5796 63.6786 14.616 63.6786 15.7938C63.6786 16.9716 63.1324 18.0081 61.9924 18.0081C60.9474 18.0081 60.3062 17.1483 60.3062 15.7938Z" fill="#B8B8B8"/>
<path d="M67.5772 18.9621C68.5628 18.9621 69.2516 18.5734 69.6434 17.9492H69.6672C69.7384 18.6323 70.0472 18.8561 70.629 18.8561C70.819 18.8561 71.0209 18.8326 71.2228 18.7854V18.0788C71.1515 18.0905 71.1159 18.0905 71.0803 18.0905C70.8547 18.0905 70.7953 17.8668 70.7953 17.431V14.6749C70.7953 13.1202 69.7978 12.602 68.551 12.602C66.6985 12.602 65.9385 13.5089 65.8791 14.6632H67.0666C67.126 13.8623 67.4466 13.5325 68.5035 13.5325C69.3941 13.5325 69.6553 13.8976 69.6553 14.3334C69.6553 14.9223 69.0735 15.04 68.1235 15.2167C66.6154 15.4994 65.5942 15.8998 65.5942 17.2425C65.5942 18.2672 66.366 18.9621 67.5772 18.9621ZM66.8054 17.1601C66.8054 16.5359 67.2566 16.2414 68.3253 16.0294C68.9428 15.8998 69.4653 15.7703 69.6553 15.5936V16.4534C69.6553 17.5016 68.8835 18.0317 67.8385 18.0317C67.1141 18.0317 66.8054 17.7254 66.8054 17.1601Z" fill="#B8B8B8"/>
<path d="M75.2632 18.9621C76.8069 18.9621 77.9825 17.7725 77.9825 15.7938C77.9825 13.8151 76.8069 12.6138 75.2632 12.6138C74.3132 12.6138 73.7313 13.0731 73.3988 13.4971H73.3751V10.376H72.2114V18.7972H73.3751V18.0552H73.3988C73.7313 18.5381 74.3132 18.9621 75.2632 18.9621ZM73.3869 15.7938C73.3869 14.4276 74.0282 13.5796 75.0732 13.5796C76.2131 13.5796 76.7594 14.616 76.7594 15.7938C76.7594 16.9716 76.2131 18.0081 75.0732 18.0081C74.0282 18.0081 73.3869 17.1483 73.3869 15.7938Z" fill="#B8B8B8"/>
<path d="M78.9837 18.7972H80.1474V10.376H78.9837V18.7972Z" fill="#B8B8B8"/>
<path d="M82.2374 20.9055C83.1755 20.9055 83.7574 20.4226 84.3393 18.9386L86.7379 12.7905H85.5149L83.8524 17.3839H83.8286L82.0593 12.7905H80.7887L83.2349 18.7383C82.9974 19.6806 82.4512 19.9161 81.9881 19.9161C81.7981 19.9161 81.6912 19.9043 81.4893 19.8808V20.823C81.7981 20.8819 81.9762 20.9055 82.2374 20.9055Z" fill="#B8B8B8"/>
<path d="M45.2834 31.8081C47.7126 31.8081 49.124 30.6101 49.124 28.766C49.124 26.7738 47.2376 26.2623 45.4055 25.7239C44.1705 25.3605 43.6277 25.1451 43.6277 24.499C43.6277 23.9471 44.1434 23.7048 44.8762 23.7048C45.8126 23.7048 46.4098 24.149 46.5183 24.8894H48.9883C48.9204 22.9376 47.1426 21.7531 44.8762 21.7531C42.7863 21.7531 41.1306 22.5741 41.1306 24.674C41.1306 26.3969 42.637 27.043 44.3198 27.5545C45.6634 27.9584 46.6269 28.1737 46.6269 28.9948C46.6269 29.4929 46.1655 29.8563 45.2562 29.8563C44.157 29.8563 43.302 29.439 43.302 28.3218H40.832C40.832 30.5293 42.7456 31.8081 45.2834 31.8081Z" fill="#B8B8B8"/>
<path d="M53.3771 31.8215C55.7113 31.8215 57.1091 30.3005 57.1091 28.1199C57.1091 25.9527 55.7113 24.4721 53.4178 24.4721C51.0835 24.4721 49.6857 25.9931 49.6857 28.1603C49.6857 30.3409 51.0835 31.8215 53.3771 31.8215ZM51.8842 28.1468C51.8842 26.8142 52.4271 26.0873 53.4042 26.0873C54.3677 26.0873 54.9106 26.8142 54.9106 28.1468C54.9106 29.4794 54.3677 30.2063 53.4042 30.2063C52.4271 30.2063 51.8842 29.4794 51.8842 28.1468Z" fill="#B8B8B8"/>
<path d="M62.2908 27.6218V31.5927H64.4622V27.6084C64.4622 26.6527 64.8965 26.2354 65.5886 26.2354C66.3622 26.2354 66.5793 26.5854 66.5793 27.6218V31.5927H68.7778V26.9354C68.7778 25.3605 67.95 24.4855 66.5522 24.4855C65.4258 24.4855 64.8151 25.0105 64.2179 25.697H64.1908C63.9194 24.9836 63.2815 24.4855 62.3723 24.4855C61.3273 24.4855 60.5673 25.0643 60.2009 25.697H60.1737V24.7009H58.0024V31.5927H60.1737V27.6084C60.1737 26.6527 60.6216 26.2354 61.3002 26.2354C62.0737 26.2354 62.2908 26.5854 62.2908 27.6218Z" fill="#B8B8B8"/>
<path d="M73.2415 31.8215C75.1957 31.8215 76.3493 30.9062 76.7428 29.5063H74.5307C74.395 29.8563 74.0693 30.2063 73.2958 30.2063C72.4815 30.2063 71.8029 29.6813 71.8029 28.7256H76.7971V28.4026C76.7971 25.8585 75.6028 24.4721 73.2415 24.4721C70.9072 24.4721 69.6316 26.1277 69.6316 28.1468C69.6316 30.3005 70.9887 31.8215 73.2415 31.8215ZM71.8165 27.393C71.8708 26.5046 72.4136 26.0335 73.2415 26.0335C74.0829 26.0335 74.6122 26.5046 74.6122 27.393H71.8165Z" fill="#B8B8B8"/>
<path d="M80.3049 31.7273C80.7392 31.7273 81.1328 31.6869 81.5942 31.5792V30.0582C81.3363 30.0986 81.2142 30.112 81.0106 30.112C80.5899 30.112 80.3049 30.0447 80.3049 29.3044V26.3162H81.5128V24.7009H80.3049V22.7761H78.1335V24.7009H77.17V26.3162H78.1335V29.3583C78.1335 31.0408 78.785 31.7273 80.3049 31.7273Z" fill="#B8B8B8"/>
<path d="M87.0937 27.6218V31.5927H89.2651V26.9354C89.2651 25.3605 88.3558 24.4855 87.0122 24.4855C85.7773 24.4855 85.0987 25.0643 84.7323 25.697H84.7052V21.9684H82.5338V31.5927H84.7052V27.6084C84.7052 26.6527 85.1801 26.2354 86.008 26.2354C86.7273 26.2354 87.0937 26.5854 87.0937 27.6218Z" fill="#B8B8B8"/>
<path d="M90.4193 31.5927H92.5907V24.7009H90.4193V31.5927ZM90.4193 23.8798H92.5907V21.9684H90.4193V23.8798Z" fill="#B8B8B8"/>
<path d="M98.3455 27.6218V31.5927H100.517V26.9354C100.517 25.3605 99.6076 24.4855 98.2641 24.4855C97.0291 24.4855 96.3506 25.0643 95.9841 25.697H95.957V24.7009H93.7856V31.5927H95.957V27.6084C95.957 26.6527 96.432 26.2354 97.2598 26.2354C97.9791 26.2354 98.3455 26.5854 98.3455 27.6218Z" fill="#B8B8B8"/>
<path d="M104.942 34.056C107.072 34.056 108.416 33.2349 108.416 30.7716V24.7009H106.245V25.3874H106.218C105.946 25.024 105.335 24.4855 104.318 24.4855C102.54 24.4855 101.4 25.8854 101.4 27.8776C101.4 29.8698 102.54 31.2696 104.318 31.2696C105.335 31.2696 105.946 30.7312 106.218 30.3678H106.245V30.7716C106.245 31.9965 105.919 32.508 104.942 32.508C104.182 32.508 103.87 32.1984 103.734 31.8215H101.535C101.78 32.9253 102.784 34.056 104.942 34.056ZM103.625 27.8776C103.625 26.7604 104.033 26.1008 104.915 26.1008C105.797 26.1008 106.204 26.7604 106.204 27.8776C106.204 28.9948 105.797 29.6544 104.915 29.6544C104.033 29.6544 103.625 28.9948 103.625 27.8776Z" fill="#B8B8B8"/>
<path d="M3.9856 31.4426C4.65841 30.7701 5.74933 30.7701 6.42213 31.4426L7.23463 32.2551C7.90733 32.9279 7.90722 34.0188 7.23463 34.6917C6.56179 35.3645 5.47097 35.3644 4.7981 34.6917L3.9856 33.8801C3.31274 33.2073 3.31274 32.1155 3.9856 31.4426ZM17.6965 15.929C19.9145 15.9291 21.9216 16.8297 23.3792 18.2795C24.8368 19.7295 25.7307 21.7431 25.7307 23.9602C25.7307 26.1772 24.8296 28.183 23.3792 29.6399C21.9286 31.0898 19.9146 31.9913 17.6965 31.9915C16.2741 31.9915 14.8722 31.7661 13.5413 31.3508C12.7878 31.1115 12.0556 30.8153 11.3655 30.4563L11.0208 30.7991C9.44432 32.7348 8.78787 31.6508 7.9358 30.7991C7.08377 29.9475 5.99809 29.2886 7.9358 27.7161L8.06275 27.592C8.66132 26.9938 8.87984 26.7757 9.45728 26.1985C10.1896 25.4384 11.3864 25.2977 12.2737 25.9241C13.0552 26.466 13.9285 26.9021 14.8508 27.1907C15.7311 27.4652 16.6825 27.6135 17.6965 27.6135C18.7034 27.6134 19.6187 27.2047 20.2805 26.5432C20.9424 25.8816 21.3508 24.9667 21.3508 23.9602C21.3508 22.9538 20.9424 22.0388 20.2805 21.3772C19.6187 20.7157 18.7104 20.307 17.6965 20.3069C16.4855 20.3069 15.5063 19.3289 15.5061 18.1184C15.5061 16.9078 16.4853 15.929 17.6965 15.929ZM17.6965 10.0803C19.1188 10.0804 20.5201 10.3048 21.8508 10.72C22.6043 10.9593 23.3365 11.2556 24.0266 11.6145L24.3792 11.2717C25.9352 9.76585 26.2381 10.0473 27.4631 11.2717C28.3152 12.1234 29.1845 12.648 27.4631 14.3547L27.3294 14.4788C26.7308 15.077 26.5122 15.2952 25.9348 15.8723C25.2025 16.6325 24.0057 16.7732 23.1184 16.1467C22.3369 15.6049 21.4636 15.1687 20.5413 14.8801C19.6612 14.6057 18.7104 14.4583 17.6965 14.4583C16.6896 14.4583 15.7735 14.866 15.1116 15.5276C14.4497 16.1891 14.0414 17.1042 14.0413 18.1106C14.0413 19.1171 14.4496 20.033 15.1116 20.6946C15.7805 21.3561 16.6896 21.7639 17.6965 21.7639C18.9075 21.7642 19.886 22.7429 19.886 23.9534C19.8858 25.1637 18.9074 26.1416 17.6965 26.1419C15.4783 26.1419 13.4706 25.2412 12.0129 23.7913C10.5553 22.3413 9.66138 20.3277 9.66138 18.1106C9.66149 15.8937 10.5625 13.8878 12.0129 12.4309C13.4636 10.981 15.4783 10.0803 17.6965 10.0803ZM28.1067 7.32154C28.7796 6.64868 29.8713 6.64868 30.5442 7.32154L31.3557 8.13404C32.0285 8.80691 32.0286 9.89773 31.3557 10.5706C30.6829 11.2432 29.592 11.2433 28.9192 10.5706L28.1067 9.75806C27.4341 9.08527 27.4341 7.99435 28.1067 7.32154Z" fill="#B8B8B8"/>
</svg>
