<svg width="82" height="42" viewBox="0 0 82 42" fill="none" xmlns="http://www.w3.org/2000/svg">
<g clip-path="url(#clip0_310_3038)">
<path fill-rule="evenodd" clip-rule="evenodd" d="M12.8162 13.8169C12.8162 12.2676 11.5486 11 9.99932 11C8.45003 11 7.18241 12.2676 7.18239 13.8169L7.18237 14.0282C7.18237 16.3239 5.32321 18.1831 3.02744 18.1831L2.81617 18.1831C1.26688 18.1831 -0.000732422 19.4508 -0.000732422 21C-0.000732422 22.5564 1.25983 23.817 2.81618 23.817C4.37252 23.817 5.63308 22.5564 5.63308 21C5.63308 20.9766 5.63322 20.9529 5.63265 20.9296L5.63307 20.7887C5.63307 18.5 7.49927 16.6338 9.78801 16.6338H9.98643L9.99932 16.6338C11.5486 16.6338 12.8162 15.3662 12.8162 13.8169ZM2.60491 16.6338H0.914763C0.407719 16.6338 -0.000732422 16.2183 -0.000732422 15.7183V15.5071C-0.000732422 13.0282 2.02744 11 4.50632 11H4.71759C5.22463 11 5.63308 11.4155 5.63308 11.9155V13.6056C5.63308 15.2676 4.27393 16.6338 2.60491 16.6338ZM17.3937 25.3662H19.0838C19.5908 25.3662 19.9993 25.7817 19.9993 26.2817V26.493C19.9993 28.9719 17.9711 31 15.4922 31H15.281C14.7739 31 14.3655 30.5916 14.3655 30.0845V28.3944C14.3655 26.7324 15.7246 25.3662 17.3937 25.3662ZM19.9993 21C19.9993 19.4507 18.7317 18.1831 17.1824 18.1831C15.6568 18.1831 14.4043 19.4123 14.3664 20.9292C14.3664 20.9294 14.3666 20.9292 14.3664 20.9292C14.3661 20.9292 14.3655 20.9298 14.3655 20.93V20.9848L14.3655 21L14.3655 21.0153V21.2113C14.3655 23.5071 12.5064 25.3662 10.2106 25.3662H9.99932C8.45002 25.3662 7.18241 26.6338 7.18241 28.1831C7.18241 29.7324 8.45002 31 9.99932 31C11.5486 31 12.8162 29.7324 12.8162 28.1831L12.8162 28.1797V27.9719C12.8162 25.6831 14.6824 23.8169 16.9712 23.8169H17.1666L17.1824 23.817L17.1982 23.8169L17.2528 23.8165C18.7697 23.7785 19.9993 22.5257 19.9993 21ZM9.99931 18.1831C8.47372 18.1831 7.22126 19.4123 7.18329 20.9291C7.18329 20.9294 7.18354 20.9291 7.18329 20.9291C7.18305 20.9291 7.18241 20.9298 7.18241 20.93V21.2113C7.18241 23.5071 5.32325 25.3662 3.02747 25.3662H2.74737C2.74649 25.3662 2.74578 25.3669 2.74578 25.3678C2.74578 25.3687 2.74502 25.3694 2.74412 25.3694C2.69797 25.3673 2.65156 25.3662 2.60491 25.3662H0.914763C0.414762 25.3662 -0.000732422 25.7817 -0.000732422 26.2817V26.493C-0.000732422 28.9719 2.02744 31 4.50632 31H4.71759C5.22463 31 5.63308 30.5916 5.63308 30.0845V28.3944C5.63308 28.3247 5.6307 28.2555 5.62599 28.1869C5.62585 28.1849 5.62748 28.1831 5.62955 28.1831C5.63151 28.1831 5.63311 28.1815 5.63311 28.1796V27.9719C5.63311 25.6831 7.49931 23.8169 9.78804 23.8169H9.98349L9.99932 23.817C11.5486 23.817 12.8162 22.5493 12.8162 21C12.8162 20.9767 12.8164 20.9529 12.8158 20.9296L12.8162 20.7888C12.8162 18.5 14.6824 16.6338 16.9711 16.6338H17.3875C17.3896 16.6338 17.3916 16.6338 17.3937 16.6338H19.0838C19.5908 16.6338 19.9993 16.2183 19.9993 15.7183V15.5071C19.9993 13.0282 17.9711 11 15.4922 11H15.281C14.7739 11 14.3655 11.4155 14.3655 11.9155V13.6056C14.3655 13.6983 14.3697 13.7899 14.378 13.8805C14.3783 13.8842 14.3754 13.8873 14.3717 13.8873C14.3683 13.8873 14.3655 13.8901 14.3655 13.8936V14.0282C14.3655 16.324 12.5064 18.1831 10.2106 18.1831L9.99931 18.1831Z" fill="#B8B8B8"/>
</g>
<path d="M32.7847 28.2223C31.7567 28.2223 30.8282 28.0423 29.9993 27.6823C29.1769 27.3159 28.499 26.7952 27.9657 26.1202C27.4389 25.4389 27.1047 24.6289 26.9634 23.6904L29.7006 23.2854C29.8933 24.0825 30.2917 24.6964 30.8957 25.1271C31.4997 25.5578 32.1872 25.7731 32.9582 25.7731C33.3887 25.7731 33.8063 25.7056 34.2111 25.5706C34.6159 25.4356 34.9468 25.2364 35.2039 24.9728C35.4673 24.7092 35.599 24.3846 35.599 23.9989C35.599 23.8575 35.5765 23.7225 35.5315 23.5939C35.493 23.459 35.4255 23.3336 35.3292 23.2179C35.2328 23.1022 35.0946 22.9929 34.9147 22.8901C34.7412 22.7872 34.5196 22.694 34.2497 22.6104L30.6451 21.5498C30.3752 21.4726 30.0604 21.3633 29.7006 21.2219C29.3472 21.0805 29.0034 20.878 28.6693 20.6145C28.3352 20.3509 28.0557 20.0038 27.8308 19.5731C27.6123 19.136 27.5031 18.5864 27.5031 17.9242C27.5031 16.9921 27.7376 16.2175 28.2067 15.6004C28.6757 14.9833 29.3022 14.5237 30.0861 14.2216C30.87 13.9195 31.7374 13.7716 32.6883 13.778C33.6457 13.7909 34.5003 13.9548 35.252 14.2698C36.0038 14.5848 36.6335 15.0444 37.1411 15.6486C37.6487 16.2465 38.0149 16.9793 38.2398 17.8471L35.4063 18.3292C35.3034 17.8792 35.1139 17.5 34.8376 17.1914C34.5613 16.8829 34.2304 16.6482 33.8449 16.4875C33.4658 16.3268 33.0674 16.24 32.6498 16.2272C32.2386 16.2143 31.8498 16.2722 31.4836 16.4008C31.1238 16.5229 30.8282 16.7029 30.5969 16.9407C30.372 17.1786 30.2596 17.4614 30.2596 17.7893C30.2596 18.0914 30.3527 18.3389 30.5391 18.5317C30.7254 18.7181 30.9599 18.8692 31.2426 18.9849C31.5254 19.1006 31.8145 19.197 32.1101 19.2742L34.5196 19.9299C34.8794 20.0263 35.2777 20.1548 35.7147 20.3155C36.1516 20.4698 36.5692 20.6884 36.9676 20.9712C37.3724 21.2476 37.7033 21.6141 37.9603 22.0705C38.2238 22.5269 38.3555 23.1054 38.3555 23.8061C38.3555 24.5518 38.1981 25.2042 37.8832 25.7635C37.5748 26.3163 37.1572 26.7759 36.6303 27.1423C36.1034 27.5023 35.5058 27.7723 34.8376 27.9523C34.1758 28.1323 33.4915 28.2223 32.7847 28.2223Z" fill="#B8B8B8"/>
<path d="M45.1194 28.2223C44.0528 28.2223 43.1115 27.9941 42.2955 27.5377C41.4859 27.0748 40.8498 26.4417 40.3871 25.6381C39.9309 24.8282 39.7028 23.9025 39.7028 22.8611C39.7028 21.7233 39.9277 20.7334 40.3775 19.8913C40.8273 19.0492 41.4473 18.3967 42.2376 17.9339C43.0279 17.4646 43.9371 17.23 44.9652 17.23C46.0575 17.23 46.9859 17.4871 47.7506 18.0014C48.5152 18.5156 49.0806 19.2388 49.4468 20.1709C49.8131 21.103 49.9416 22.199 49.8324 23.459H47.2397V22.4947C47.2397 21.4341 47.0695 20.6723 46.7289 20.2095C46.3948 19.7402 45.8454 19.5056 45.0808 19.5056C44.1877 19.5056 43.5291 19.7788 43.105 20.3252C42.6874 20.8652 42.4786 21.6655 42.4786 22.7261C42.4786 23.6968 42.6874 24.4489 43.105 24.9824C43.5291 25.5096 44.1492 25.7731 44.9652 25.7731C45.4792 25.7731 45.9193 25.6606 46.2856 25.4356C46.6518 25.2106 46.9313 24.886 47.1241 24.4618L49.7456 25.2139C49.3537 26.1652 48.7336 26.9045 47.8855 27.4316C47.0438 27.9587 46.1217 28.2223 45.1194 28.2223ZM41.669 23.459V21.5112H48.5698V23.459H41.669Z" fill="#B8B8B8"/>
<path d="M54.519 28.2223C53.7736 28.2223 53.1408 28.0809 52.6203 27.798C52.1063 27.5087 51.7143 27.1263 51.4445 26.6506C51.181 26.1685 51.0493 25.6381 51.0493 25.0596C51.0493 24.5775 51.1232 24.1371 51.271 23.7386C51.4188 23.34 51.6565 22.9897 51.9842 22.6876C52.3183 22.379 52.7649 22.1219 53.3239 21.9162C53.7094 21.7748 54.1688 21.6494 54.7021 21.5401C55.2354 21.4308 55.8394 21.328 56.514 21.2316C57.1887 21.1287 57.9308 21.0162 58.7404 20.8941L57.7959 21.4148C57.7959 20.7977 57.6481 20.3445 57.3526 20.0552C57.057 19.7659 56.5622 19.6213 55.8683 19.6213C55.4828 19.6213 55.0812 19.7145 54.6636 19.9009C54.2459 20.0873 53.9536 20.4184 53.7865 20.8941L51.4156 20.142C51.679 19.2806 52.1737 18.5799 52.8998 18.04C53.6259 17.5 54.6154 17.23 55.8683 17.23C56.7871 17.23 57.6031 17.3714 58.3164 17.6543C59.0296 17.9371 59.5693 18.4256 59.9355 19.1199C60.1411 19.5056 60.2632 19.8913 60.3018 20.277C60.3403 20.6627 60.3596 21.0934 60.3596 21.5691V27.933H58.0658V25.7924L58.3935 26.236C57.8859 26.9366 57.3365 27.4445 56.7454 27.7594C56.1607 28.068 55.4185 28.2223 54.519 28.2223ZM55.078 26.1588C55.5599 26.1588 55.9647 26.0752 56.2924 25.9081C56.6265 25.7345 56.8899 25.5385 57.0827 25.3199C57.2819 25.1014 57.4168 24.9182 57.4875 24.7703C57.6224 24.4875 57.6995 24.1596 57.7188 23.7868C57.7445 23.4075 57.7573 23.0925 57.7573 22.8418L58.5284 23.0347C57.7509 23.1633 57.1212 23.2725 56.6393 23.3625C56.1574 23.4461 55.7687 23.5232 55.4731 23.5939C55.1776 23.6647 54.9174 23.7418 54.6925 23.8254C54.4355 23.9282 54.2266 24.0407 54.066 24.1628C53.9118 24.2786 53.7961 24.4071 53.719 24.5485C53.6484 24.69 53.613 24.8475 53.613 25.021C53.613 25.2589 53.6708 25.4646 53.7865 25.6381C53.9086 25.8053 54.0788 25.9338 54.2973 26.0238C54.5158 26.1138 54.776 26.1588 55.078 26.1588Z" fill="#B8B8B8"/>
<path d="M75.2023 27.933V21.7812C75.2023 21.0934 75.0384 20.5598 74.7107 20.1806C74.3895 19.7949 73.9429 19.602 73.371 19.602C73.0048 19.602 72.6867 19.6888 72.4169 19.8624C72.147 20.0295 71.935 20.2673 71.7808 20.5759C71.633 20.878 71.5591 21.2284 71.5591 21.6269L70.4604 20.8941C70.4604 20.1806 70.6274 19.5506 70.9615 19.0042C71.3021 18.4578 71.7551 18.0335 72.3205 17.7314C72.8923 17.4228 73.5252 17.2686 74.2192 17.2686C75.4079 17.2686 76.3042 17.6221 76.9082 18.3292C77.5186 19.0299 77.8238 19.9491 77.8238 21.0869V27.933H75.2023ZM62.6536 27.933V17.5193H64.9667V20.9712H65.2944V27.933H62.6536ZM68.9376 27.933V21.7812C68.9376 21.0934 68.7737 20.5598 68.446 20.1806C68.1248 19.7949 67.6782 19.602 67.1063 19.602C66.5602 19.602 66.1201 19.7916 65.7859 20.1709C65.4583 20.5437 65.2944 21.0291 65.2944 21.6269L64.1957 20.8555C64.1957 20.1741 64.3659 19.5634 64.7065 19.0235C65.047 18.4835 65.5032 18.056 66.0751 17.741C66.6534 17.4261 67.2991 17.2686 68.0123 17.2686C68.8283 17.2686 69.4966 17.4421 70.017 17.7893C70.5439 18.1364 70.9326 18.5992 71.1832 19.1777C71.4338 19.7563 71.5591 20.3927 71.5591 21.0869V27.933H68.9376Z" fill="#B8B8B8"/>
<defs>
<clipPath id="clip0_310_3038">
<rect y="11" width="20" height="20" rx="10" fill="white"/>
</clipPath>
</defs>
</svg>
