<svg width="56" height="42" viewBox="0 0 56 42" fill="none" xmlns="http://www.w3.org/2000/svg">
<path d="M2.88989 23.7129V27.7555L3.02923 27.8397C4.39333 28.6632 5.72045 29 7.11275 29C8.76581 29 10.191 28.5274 11.2087 27.6919C12.2304 26.8531 12.8269 25.659 12.8269 24.2592C12.8269 23.4533 12.6334 22.7538 12.118 22.0905C11.6117 21.4389 10.8088 20.8405 9.62886 20.1989L7.12026 18.8429L7.11929 18.8423C5.8688 18.1785 5.30582 17.4178 5.30582 16.4937C5.30582 15.8811 5.55852 15.3663 6.01219 14.999C6.47054 14.6279 7.1521 14.3941 8.02047 14.3941C8.8789 14.3941 9.53717 14.6122 10.013 15.0053C10.4885 15.398 10.8131 15.9914 10.9556 16.8015L10.9975 17.0399H12.1785V13.8604L12.0146 13.7819C10.8118 13.2055 9.66688 12.936 8.45271 12.936C5.3701 12.936 3.01957 14.7538 3.01957 17.3757C3.01957 18.1751 3.23151 18.8619 3.71683 19.4923C4.19492 20.1132 4.92612 20.6633 5.93504 21.22L8.33492 22.5326C9.13157 22.9661 9.64337 23.3579 9.95635 23.7563C10.2612 24.1444 10.3893 24.5535 10.3893 25.0551C10.3893 25.7949 10.1078 26.4089 9.62158 26.8406C9.1328 27.2746 8.41678 27.5419 7.52339 27.5419C6.54148 27.5419 5.75606 27.2266 5.18622 26.6425C4.61241 26.0543 4.2304 25.1657 4.11584 23.9736L4.09079 23.7129H2.88989Z" fill="#B8B8B8"/>
<path d="M14.2854 27.6074V28.7849H20.2673V27.6074L19.3794 27.4601L19.3783 27.4599C18.945 27.3844 18.7718 27.3038 18.6835 27.2026C18.5973 27.104 18.5384 26.9232 18.5384 26.4748V16.894H17.9058L14.3286 17.9112V18.9221L14.5838 18.9524C15.3111 19.0388 15.6453 19.1577 15.8105 19.3054C15.9514 19.4315 16.0144 19.6229 16.0144 20.0645V26.4748C16.0144 26.9232 15.9555 27.104 15.8693 27.2026C15.7809 27.3038 15.6077 27.3844 15.1744 27.4599L15.1733 27.4601L14.2854 27.6074Z" fill="#B8B8B8"/>
<path d="M20.9659 27.6074V28.7849H26.9479V27.6074L26.06 27.4601L26.0588 27.4599C25.6255 27.3844 25.4524 27.3038 25.364 27.2026C25.2778 27.104 25.2189 26.9232 25.2189 26.4748V11H24.5863L21.0092 12.0173V13.0281L21.2643 13.0584C21.9916 13.1448 22.3258 13.2637 22.491 13.4114C22.632 13.5376 22.6949 13.7289 22.6949 14.1706V26.4748C22.6949 26.9232 22.636 27.104 22.5498 27.2026C22.4614 27.3038 22.2883 27.3844 21.855 27.4599L21.8539 27.4601L20.9659 27.6074Z" fill="#B8B8B8"/>
<path d="M27.8023 27.6074V28.7849H33.7842V27.6074L32.8963 27.4601L32.8952 27.4599C32.4619 27.3844 32.2887 27.3038 32.2004 27.2026C32.1142 27.104 32.0553 26.9232 32.0553 26.4748V19.7225C32.9051 18.9977 33.6431 18.6748 34.6402 18.6748C35.4613 18.6748 36.009 18.8467 36.3516 19.1524C36.6874 19.4522 36.8794 19.9293 36.8794 20.6668V26.4748C36.8794 26.9232 36.8205 27.104 36.7343 27.2026C36.6459 27.3038 36.4728 27.3844 36.0395 27.4599L36.0384 27.4601L35.1504 27.6074V28.7849H41.1324V27.6074L40.2445 27.4601L40.2434 27.4599C39.81 27.3844 39.6369 27.3038 39.5485 27.2026C39.4623 27.104 39.4034 26.9232 39.4034 26.4748V20.0215C39.4034 19.0298 39.0709 18.2141 38.4338 17.6498C37.8013 17.0896 36.9037 16.8079 35.8289 16.8079C35.01 16.8079 34.3167 16.9256 33.6446 17.2069C33.0885 17.4397 32.5581 17.78 31.9904 18.2405V16.894H31.3571L27.8455 17.9124V18.9221L28.1007 18.9524C28.828 19.0388 29.1622 19.1577 29.3274 19.3054C29.4683 19.4315 29.5313 19.6229 29.5313 20.0645V26.4748C29.5313 26.9232 29.4723 27.104 29.3862 27.2026C29.2978 27.3038 29.1246 27.3844 28.6913 27.4599L28.6902 27.4601L27.8023 27.6074Z" fill="#B8B8B8"/>
<path fill-rule="evenodd" clip-rule="evenodd" d="M44.4002 20.7119C44.6814 20.594 44.9535 20.3966 45.0166 20.1034C45.1588 19.4468 45.4166 18.9946 45.7272 18.7083C46.035 18.4247 46.4118 18.2876 46.83 18.2876C47.382 18.2876 47.7962 18.4647 48.0688 18.7337C48.3411 19.0026 48.4948 19.3855 48.4857 19.8423L48.4857 19.8435L48.4269 21.7743L48.0721 21.9015C45.9823 22.649 44.551 23.4163 43.6374 24.1965C42.7189 24.9809 42.3046 25.7967 42.3046 26.6254C42.3046 27.1711 42.4597 27.7733 42.9127 28.2399C43.3684 28.7094 44.0853 29 45.1226 29C45.7103 29 46.284 28.9267 46.8785 28.6888C47.4012 28.4797 47.9273 28.1485 48.4875 27.6476C48.5428 27.8426 48.6282 28.0656 48.7686 28.2697C49.0264 28.6444 49.455 28.9355 50.1367 28.9355C50.4596 28.9355 50.9871 28.8618 51.9249 28.5584L52.8899 28.3115V27.3234L52.6192 27.3059C52.2048 27.2791 51.8748 27.2489 51.6112 27.203C51.3458 27.1568 51.1696 27.0981 51.0507 27.0267C50.9412 26.961 50.8748 26.8815 50.8319 26.7685C50.785 26.6452 50.7615 26.4689 50.7717 26.2062L50.7717 26.2054L50.9879 19.6429L50.9879 19.6421C51.012 18.7559 50.6529 18.0339 50.0206 17.5414C49.3968 17.0555 48.5282 16.8079 47.5432 16.8079C46.4865 16.8079 45.3597 17.172 44.4125 17.7483C43.4674 18.3233 42.6685 19.1298 42.3034 20.0442L42.2995 20.0539L42.2964 20.0638C42.2551 20.1939 42.2348 20.3362 42.2738 20.4747C42.3161 20.6248 42.4158 20.7282 42.5318 20.7923C42.6388 20.8515 42.7608 20.8786 42.8725 20.893C42.9871 20.9079 43.1137 20.9119 43.2424 20.9119C43.7033 20.9119 44.0999 20.8377 44.4002 20.7119ZM45.6516 24.6751C46.1384 24.2024 46.9768 23.6758 48.3846 23.1326L48.2747 26.3613C47.7777 26.692 47.2286 27.0041 46.3545 27.0041C45.8569 27.0041 45.5299 26.9018 45.3307 26.7389C45.1425 26.5849 45.0231 26.3391 45.0231 25.937C45.0231 25.5922 45.1479 25.1643 45.6516 24.6751Z" fill="#B8B8B8"/>
<path d="M15.4957 14.2566C15.4957 15.175 16.1937 15.8138 17.0603 15.8138C17.9084 15.8138 18.6032 15.1718 18.6032 14.2566C18.6032 13.3596 17.9051 12.7209 17.0603 12.7209C16.1971 12.7209 15.4957 13.3564 15.4957 14.2566Z" fill="#B8B8B8"/>
</svg>
