<svg width="135" height="42" viewBox="0 0 135 42" fill="none" xmlns="http://www.w3.org/2000/svg">
<path fill-rule="evenodd" clip-rule="evenodd" d="M20.708 6L24.5433 6L37.7096 21.0488L24.4444 36H20.7069L7.54199 20.9528L20.708 6ZM20.9882 7.57567L9.20721 20.9554L21.2696 34.7425H22.7842L10.7184 20.9515L20.9957 9.34969L23.19 11.9075L23.1929 11.9108L30.5142 20.3253H32.2144L20.9882 7.57567ZM32.2088 21.5828H30.5114L23.3564 29.686L24.1757 30.6512L32.2088 21.5828ZM22.5322 28.7285L29.3997 20.951L22.7179 13.2715L15.8505 21.049L22.5322 28.7285ZM14.7453 20.4097L21.8918 12.3162L20.9807 11.2541L12.9133 20.3612L14.7453 20.4097ZM12.9666 21.6205L14.7296 21.6672L22.0576 30.0896L24.1557 32.5613L34.4367 20.9553L22.3756 7.25749L23.9806 7.25749L36.0416 21.043L24.1689 34.4247L12.9666 21.6205Z" fill="#B8B8B8"/>
<path fill-rule="evenodd" clip-rule="evenodd" d="M110.549 7.5H108.847V18.5989H110.405L110.48 17.6487C111.032 18.3997 111.916 18.7746 112.916 18.7746C114.002 18.7746 114.892 18.3693 115.508 17.6734C116.123 16.9796 116.456 16.0094 116.456 14.8947C116.456 13.7606 116.14 12.7661 115.545 12.052C114.947 11.3347 114.078 10.9122 113.004 10.9122C111.992 10.9122 111.109 11.269 110.549 11.9621V7.5ZM110.564 14.8361C110.564 14.1339 110.768 13.5442 111.127 13.1325C111.484 12.7233 112.004 12.4774 112.666 12.4774C113.328 12.4774 113.844 12.7232 114.197 13.132C114.553 13.5434 114.753 14.1332 114.753 14.8361C114.753 15.5467 114.552 16.1402 114.197 16.5533C113.844 16.9637 113.328 17.2095 112.666 17.2095C112.003 17.2095 111.483 16.9667 111.127 16.558C110.768 16.1468 110.564 15.5536 110.564 14.8361Z" fill="#B8B8B8"/>
<path d="M119.169 7.5H117.466V18.5989H119.169V7.5Z" fill="#B8B8B8"/>
<path d="M48.5212 7.69038H46.7598V14.675C46.7598 15.9325 47.161 16.962 47.9015 17.6769C48.6414 18.3912 49.7025 18.7746 50.9906 18.7746C52.272 18.7746 53.3294 18.3872 54.0671 17.6711C54.8054 16.9546 55.2067 15.9254 55.2067 14.675V7.69038H53.4306V14.5872C53.4306 15.4009 53.2074 16.0146 52.8043 16.4246C52.4018 16.8342 51.7979 17.063 50.9906 17.063C50.1749 17.063 49.5635 16.8373 49.1557 16.4292C48.7479 16.021 48.5212 15.4079 48.5212 14.5872V7.69038Z" fill="#B8B8B8"/>
<path d="M73.6841 8.87661H71.9815V11.1173H70.5709V12.5945H71.9815V18.5989H73.6841V12.5945H75.0947V11.1173H73.6841V8.87661Z" fill="#B8B8B8"/>
<path d="M60.7609 10.9122C59.853 10.9122 59.0136 11.2822 58.4839 11.9367L58.3743 11.1173H56.8239V18.5989H58.5266V14.6457C58.5266 13.9774 58.7065 13.4396 59.024 13.0715C59.3389 12.7064 59.8029 12.492 60.4082 12.492C60.9079 12.492 61.2919 12.6297 61.5534 12.9142C61.8173 13.2013 61.9814 13.6645 61.9814 14.3675V18.5989H63.684V14.0599C63.684 13.1221 63.4622 12.3319 62.974 11.7744C62.4825 11.2131 61.7426 10.9122 60.7609 10.9122Z" fill="#B8B8B8"/>
<path d="M67.4367 10.9122C66.6166 10.9122 65.903 11.1278 65.3906 11.5285C64.8747 11.932 64.5724 12.5164 64.5724 13.2252C64.5724 13.7853 64.7336 14.2483 65.0772 14.6111C65.4171 14.9698 65.9206 15.2149 66.5762 15.3726L66.5775 15.3729L67.8394 15.6654C68.2021 15.7577 68.4135 15.8688 68.5351 15.9944C68.6505 16.1136 68.7013 16.2628 68.7013 16.4763C68.7013 16.7541 68.5869 16.9684 68.3697 17.1193C68.1455 17.2751 67.8 17.3706 67.3339 17.3706C66.9021 17.3706 66.5742 17.2663 66.3577 17.0943C66.1457 16.9259 66.0252 16.6808 66.0252 16.3592V16.199H64.3814V16.3592C64.3814 17.0856 64.6692 17.6957 65.1874 18.1212C65.7026 18.5441 66.4325 18.7746 67.3045 18.7746C68.1821 18.7746 68.9393 18.5523 69.4812 18.1394C70.027 17.7236 70.3451 17.1205 70.3451 16.3885C70.3451 15.8213 70.184 15.3715 69.8457 15.0263C69.5125 14.6861 69.0233 14.464 68.4001 14.3143L67.1377 14.0071L67.1372 14.0069C66.7984 13.9224 66.5632 13.807 66.4146 13.6697C66.2712 13.5373 66.2015 13.3785 66.2015 13.1813C66.2015 12.8949 66.3045 12.6843 66.4902 12.5408C66.6816 12.3927 66.9798 12.3017 67.3926 12.3017C67.7829 12.3017 68.0719 12.4072 68.2649 12.5779C68.4564 12.7475 68.5706 12.9965 68.5839 13.3196L68.5902 13.4732H70.2311L70.2275 13.3096C70.2119 12.5866 69.9296 11.9821 69.4348 11.5603C68.9422 11.1402 68.2521 10.9122 67.4367 10.9122Z" fill="#B8B8B8"/>
<path fill-rule="evenodd" clip-rule="evenodd" d="M88.1513 10.9122C87.134 10.9122 86.2352 11.3013 85.6714 12.0608L85.5961 11.1173H84.038V21.8061H85.7406V17.7878C86.2962 18.4431 87.1646 18.7893 88.1513 18.7893C89.2618 18.7893 90.142 18.3599 90.7417 17.6384C91.3386 16.9204 91.6475 15.9257 91.6475 14.8068C91.6475 13.6783 91.319 12.7046 90.7115 12.0106C90.1021 11.3142 89.2229 10.9122 88.1513 10.9122ZM85.7553 14.8654C85.7553 14.1479 85.9599 13.5547 86.3184 13.1435C86.6747 12.7348 87.1946 12.492 87.8574 12.492C88.5194 12.492 89.0355 12.7378 89.3884 13.1482C89.7437 13.5613 89.9448 14.1548 89.9448 14.8654C89.9448 15.5683 89.7439 16.1581 89.3886 16.5695C89.0357 16.9783 88.5194 17.2241 87.8574 17.2241C87.1953 17.2241 86.6751 16.9782 86.3184 16.569C85.9595 16.1573 85.7553 15.5676 85.7553 14.8654Z" fill="#B8B8B8"/>
<path fill-rule="evenodd" clip-rule="evenodd" d="M96.7413 10.9122C95.724 10.9122 94.8252 11.3013 94.2614 12.0608L94.1861 11.1173H92.628V21.8061H94.3306V17.7878C94.8862 18.4431 95.7545 18.7893 96.7413 18.7893C97.8518 18.7893 98.732 18.3599 99.3317 17.6384C99.9286 16.9204 100.237 15.9257 100.237 14.8068C100.237 13.6783 99.9089 12.7046 99.3015 12.0106C98.6921 11.3142 97.8129 10.9122 96.7413 10.9122ZM94.3453 14.8654C94.3453 14.1479 94.5499 13.5547 94.9084 13.1435C95.2647 12.7348 95.7846 12.492 96.4474 12.492C97.1094 12.492 97.6255 12.7378 97.9784 13.1482C98.3337 13.5613 98.5348 14.1548 98.5348 14.8654C98.5348 15.5683 98.3339 16.1581 97.9786 16.5695C97.6257 16.9783 97.1094 17.2241 96.4474 17.2241C95.7853 17.2241 95.2651 16.9782 94.9084 16.569C94.5495 16.1573 94.3453 15.5676 94.3453 14.8654Z" fill="#B8B8B8"/>
<path fill-rule="evenodd" clip-rule="evenodd" d="M104.332 10.9122C103.379 10.9122 102.57 11.1647 101.994 11.6248C101.416 12.0875 101.086 12.7524 101.086 13.5474V13.7076H102.612V13.5474C102.612 13.1606 102.758 12.8655 103.025 12.6624C103.297 12.4548 103.714 12.3309 104.273 12.3309C104.738 12.3309 105.117 12.4332 105.378 12.655C105.634 12.8729 105.802 13.2288 105.802 13.7963V13.8532L103.688 14.0174C102.822 14.085 102.117 14.3302 101.626 14.745C101.13 15.1637 100.865 15.7441 100.865 16.447C100.865 17.1377 101.108 17.7251 101.567 18.1383C102.024 18.5501 102.679 18.7746 103.48 18.7746C104.483 18.7746 105.387 18.4038 105.891 17.758L105.998 18.5989H107.476V13.9428C107.476 12.9419 107.163 12.1772 106.599 11.6643C106.037 11.1537 105.248 10.9122 104.332 10.9122ZM104.155 15.2739L104.157 15.2738L105.817 15.1414V15.3487C105.817 15.9914 105.628 16.4977 105.301 16.8421C104.975 17.1855 104.494 17.3852 103.877 17.3852C103.448 17.3852 103.124 17.2937 102.91 17.1322C102.704 16.9759 102.583 16.7404 102.583 16.4031C102.583 16.0948 102.689 15.8504 102.924 15.6645C103.167 15.4724 103.561 15.3312 104.155 15.2739Z" fill="#B8B8B8"/>
<path fill-rule="evenodd" clip-rule="evenodd" d="M123.862 10.9122C122.777 10.9122 121.855 11.317 121.206 12.0202C120.557 12.7223 120.19 13.7112 120.19 14.8654C120.19 16.0135 120.565 16.9922 121.226 17.685C121.887 18.3785 122.823 18.7746 123.921 18.7746C124.836 18.7746 125.617 18.5523 126.217 18.1201C126.82 17.6869 127.229 17.0513 127.413 16.2484L127.458 16.0525H125.842L125.809 16.1687C125.702 16.5426 125.49 16.824 125.186 17.0143C124.878 17.2063 124.466 17.312 123.95 17.312C123.301 17.312 122.807 17.1148 122.461 16.7554C122.141 16.4223 121.933 15.9337 121.863 15.2887L127.403 15.2741V14.6018C127.403 13.5064 127.057 12.582 126.434 11.9303C125.811 11.2779 124.922 10.9122 123.862 10.9122ZM125.695 14.0462H121.907C122.008 13.5327 122.217 13.1371 122.513 12.8629C122.842 12.5582 123.293 12.3895 123.862 12.3895C124.436 12.3895 124.893 12.575 125.205 12.8863C125.487 13.1673 125.663 13.5621 125.695 14.0462Z" fill="#B8B8B8"/>
<path fill-rule="evenodd" clip-rule="evenodd" d="M79.158 10.9269C76.9093 10.9269 75.2505 12.5509 75.2505 14.8508C75.2505 17.1506 76.9093 18.7746 79.158 18.7746C81.3925 18.7746 83.0509 17.1502 83.0509 14.8508C83.0509 12.5514 81.3925 10.9269 79.158 10.9269ZM76.9678 14.8508C76.9678 14.1379 77.1953 13.5452 77.5772 13.1324C77.9582 12.7206 78.5022 12.4774 79.158 12.4774C79.8062 12.4774 80.3504 12.7204 80.7336 13.1327C81.1175 13.5458 81.3483 14.1386 81.3483 14.8508C81.3483 15.5629 81.1175 16.1557 80.7336 16.5688C80.3504 16.9811 79.8062 17.2241 79.158 17.2241C78.5022 17.2241 77.9582 16.9809 77.5772 16.5691C77.1953 16.1563 76.9678 15.5636 76.9678 14.8508Z" fill="#B8B8B8"/>
<path d="M55.3647 24.0779C54.778 24.0779 54.293 24.5433 54.293 25.146C54.293 25.7324 54.7763 26.2142 55.3647 26.2142C55.953 26.2142 56.4364 25.7324 56.4364 25.146C56.4364 24.5433 55.9513 24.0779 55.3647 24.0779Z" fill="#B8B8B8"/>
<path d="M53.561 24.1657H46.8332V35.0743H48.5946V30.5783H52.7676V28.9546H48.5946V25.8041H53.561V24.1657Z" fill="#B8B8B8"/>
<path d="M61.631 27.3876C60.7231 27.3876 59.8838 27.7576 59.3541 28.4121L59.2444 27.5926H57.6941V35.0743H59.3967V31.1211C59.3967 30.4527 59.5766 29.9149 59.8942 29.5469C60.2091 29.1818 60.673 28.9674 61.2784 28.9674C61.7781 28.9674 62.162 29.105 62.4235 29.3895C62.6874 29.6766 62.8515 30.1399 62.8515 30.8428V35.0743H64.5541V30.5353C64.5541 29.5975 64.3323 28.8072 63.8441 28.2497C63.3526 27.6885 62.6127 27.3876 61.631 27.3876Z" fill="#B8B8B8"/>
<path fill-rule="evenodd" clip-rule="evenodd" d="M69.0395 27.3876C68.0867 27.3876 67.2769 27.64 66.7018 28.1002C66.1234 28.5629 65.7931 29.2277 65.7931 30.0227V30.1829H67.3194V30.0227C67.3194 29.636 67.4649 29.3409 67.7319 29.1377C68.0047 28.9302 68.4212 28.8063 68.9807 28.8063C69.4455 28.8063 69.8241 28.9085 70.0849 29.1304C70.3409 29.3482 70.5097 29.7041 70.5097 30.2717V30.3285L68.3951 30.4928C67.529 30.5603 66.8242 30.8055 66.333 31.2204C65.8373 31.639 65.5727 32.2194 65.5727 32.9224C65.5727 33.6131 65.8152 34.2004 66.274 34.6137C66.731 35.0255 67.3864 35.25 68.1872 35.25C69.1905 35.25 70.0942 34.8792 70.5983 34.2334L70.7051 35.0743H72.183V30.4181C72.183 29.4173 71.8699 28.6526 71.3059 28.1397C70.7443 27.629 69.9551 27.3876 69.0395 27.3876ZM68.8626 31.7493L68.8639 31.7492L70.5244 31.6168V31.824C70.5244 32.4667 70.3356 32.973 70.0083 33.3175C69.6819 33.6609 69.2018 33.8606 68.584 33.8606C68.1553 33.8606 67.8311 33.769 67.6177 33.6076C67.4111 33.4513 67.29 33.2158 67.29 32.8785C67.29 32.5702 67.3968 32.3257 67.6315 32.1398C67.874 31.9477 68.2679 31.8066 68.8626 31.7493Z" fill="#B8B8B8"/>
<path d="M77.4909 27.3876C76.583 27.3876 75.7436 27.7576 75.2139 28.4121L75.1043 27.5926H73.5539V35.0743H75.2566V31.1211C75.2566 30.4527 75.4365 29.9149 75.754 29.5469C76.0689 29.1818 76.5329 28.9674 77.1383 28.9674C77.6379 28.9674 78.0219 29.105 78.2834 29.3895C78.5473 29.6766 78.7114 30.1399 78.7114 30.8428V35.0743H80.414V30.5353C80.414 29.5975 80.1922 28.8072 79.704 28.2497C79.2125 27.6885 78.4726 27.3876 77.4909 27.3876Z" fill="#B8B8B8"/>
<path d="M85.0022 27.3876C83.9099 27.3876 82.9844 27.7921 82.3329 28.4954C81.6825 29.1975 81.315 30.1866 81.315 31.3408C81.315 32.5013 81.6746 33.4801 82.3206 34.1703C82.9677 34.8615 83.8899 35.25 84.9875 35.25C86.7889 35.25 88.2012 34.1643 88.4958 32.526L88.5297 32.3375H86.836L86.8022 32.4526C86.5751 33.225 85.9102 33.6995 84.9875 33.6995C84.3778 33.6995 83.8877 33.469 83.5474 33.0663C83.2047 32.6609 83.0029 32.0672 83.0029 31.3261C83.0029 30.58 83.2181 29.9831 83.575 29.5752C83.9302 29.1691 84.436 28.9381 85.0463 28.9381C85.9093 28.9381 86.5719 29.3817 86.7861 30.2092L86.8172 30.3294H88.5106L88.4817 30.1445C88.351 29.3094 87.9534 28.6171 87.3469 28.1347C86.7411 27.6528 85.9364 27.3876 85.0022 27.3876Z" fill="#B8B8B8"/>
<path fill-rule="evenodd" clip-rule="evenodd" d="M92.6161 27.3876C91.5308 27.3876 90.609 27.7924 89.9595 28.4955C89.3111 29.1976 88.9436 30.1866 88.9436 31.3408C88.9436 32.4889 89.3192 33.4675 89.9796 34.1604C90.6406 34.8538 91.5766 35.25 92.6749 35.25C93.5895 35.25 94.3703 35.0276 94.9711 34.5955C95.5734 34.1622 95.9828 33.5267 96.167 32.7238L96.2119 32.5279H94.596L94.5627 32.6441C94.4555 33.018 94.244 33.2993 93.9395 33.4896C93.6321 33.6817 93.2197 33.7874 92.7042 33.7874C92.0552 33.7874 91.5607 33.5902 91.215 33.2308C90.8946 32.8977 90.6866 32.409 90.6168 31.7641L96.1563 31.7495V31.0772C96.1563 29.9818 95.8109 29.0574 95.1881 28.4057C94.5646 27.7532 93.6757 27.3876 92.6161 27.3876ZM94.4485 30.5216H90.6606C90.7616 30.0081 90.9711 29.6124 91.2671 29.3383C91.5961 29.0336 92.0469 28.8649 92.6161 28.8649C93.1903 28.8649 93.6466 29.0503 93.9589 29.3617C94.2409 29.6427 94.4169 30.0375 94.4485 30.5216Z" fill="#B8B8B8"/>
<path d="M56.2307 27.5926H54.5281V35.0743H56.2307V27.5926Z" fill="#B8B8B8"/>
</svg>
