<svg width="102" height="42" viewBox="0 0 102 42" fill="none" xmlns="http://www.w3.org/2000/svg">
<g clip-path="url(#clip0_310_2997)">
<path d="M0.0541992 22.3338L0.0542856 14.0103H4.39447L4.39438 22.3338C4.39438 23.2828 5.30187 23.8759 6.56443 23.8759C7.82699 23.8759 8.73457 23.2828 8.73457 22.3338L8.73466 14.0103H13.0748V22.3338C13.0748 25.9123 10.2339 28.1266 6.56443 28.1266C2.89505 28.1266 0.0541992 25.9123 0.0541992 22.3338Z" fill="#B8B8B8"/>
<path d="M14.3584 14.0107H18.6985V23.6985H25.0114V27.8503H14.3583L14.3584 14.0107Z" fill="#B8B8B8"/>
<path d="M26.2965 18.1626H22.2523V14.0107H34.6809V18.1626H30.6367V27.8503H26.2965V18.1626Z" fill="#B8B8B8"/>
<path d="M35.962 23.6985H38.5266L38.5267 18.1626H35.962L35.9621 14.0107H45.4316V18.1626H42.8669V23.6985H45.4315V27.8503H35.962V23.6985Z" fill="#B8B8B8"/>
<path d="M46.7138 14.0103H51.6458L54.0328 19.6647H54.8219L57.2091 14.0103H62.141L62.1409 27.8498H57.8008V22.2942H57.0118L55.6308 25.6553H53.224L51.843 22.2942H51.0538V27.8498H46.7137L46.7138 14.0103Z" fill="#B8B8B8"/>
<path d="M78.1989 27.5533V27.8498H73.7404L72.9316 24.9039H68.5914L67.7826 27.8498H63.3241V27.5533L67.3289 14.0103H74.214L78.1989 27.5533ZM72.0241 21.543L71.1561 18.3599H70.3669L69.4989 21.543H72.0241Z" fill="#B8B8B8"/>
<path d="M80.9237 18.1621H76.8795V14.0103H89.3081V18.1621H85.2639L85.2638 27.8499L80.9237 27.8498V18.1621Z" fill="#B8B8B8"/>
<path d="M90.591 14.0107H101.442L101.441 18.1033H94.9312V19.4873H100.534V22.3738H94.9312V23.7578H101.441V27.8504H90.5909L90.591 14.0107Z" fill="#B8B8B8"/>
</g>
<defs>
<clipPath id="clip0_310_2997">
<rect width="101.5" height="14" fill="white" transform="translate(0 14)"/>
</clipPath>
</defs>
</svg>
