<svg width="296" height="261" viewBox="0 0 296 261" fill="none" xmlns="http://www.w3.org/2000/svg">
<g clip-path="url(#clip0_1611_2039)">
<rect width="296" height="260.835" fill="#010101"/>
<path d="M91.8904 122.94C93.7229 124.729 93.7229 127.629 91.8904 129.417L76.2849 144.644C75.3686 145.538 73.8828 145.538 72.9665 144.644C72.0503 143.75 72.0504 142.3 72.9665 141.406L91.8904 122.94ZM91.4998 133.436C93.3322 135.225 93.3322 138.124 91.4998 139.912L88.0476 143.281C86.215 145.069 83.2435 145.069 81.4109 143.281L91.4998 133.436ZM72.2888 131.953C74.3527 129.939 77.5109 129.756 79.3435 131.544L68.7546 141.877C67.7227 142.884 66.1436 142.976 65.2273 142.082C64.3111 141.188 64.4046 139.647 65.4363 138.639L72.2888 131.953ZM62.2048 131.362C63.1142 130.461 64.5942 130.455 65.5105 131.349C66.4267 132.244 66.4323 133.699 65.5232 134.599C64.6139 135.5 63.1338 135.506 62.2175 134.612C61.3013 133.718 61.2957 132.263 62.2048 131.362ZM79.9138 114.063C80.8386 113.161 82.3505 113.173 83.2908 114.091C84.183 114.961 84.1954 116.361 83.3181 117.218L70.7839 129.449C69.8828 130.328 68.4092 130.317 67.4929 129.423C66.5766 128.529 66.5643 127.09 67.4656 126.211L79.9138 114.063ZM87.5515 117.05C88.5803 116.046 90.1577 115.957 91.074 116.851C91.9901 117.746 91.8986 119.284 90.8699 120.288L84.0115 126.98C81.9539 128.988 78.8001 129.166 76.9675 127.378L87.5515 117.05ZM68.613 114.97C70.4456 113.182 73.4162 113.182 75.2488 114.97L62.5662 127.346C60.7339 125.557 60.7341 122.658 62.5662 120.87L68.613 114.97Z" fill="white"/>
<path d="M119.666 141.172C117.603 141.172 115.767 140.72 114.156 139.816C112.574 138.883 111.331 137.598 110.427 135.959C109.523 134.32 109.071 132.413 109.071 130.238C109.071 128.034 109.508 126.098 110.384 124.431C111.289 122.764 112.532 121.465 114.114 120.532C115.724 119.6 117.589 119.134 119.708 119.134C121.771 119.134 123.565 119.6 125.091 120.532C126.616 121.437 127.803 122.651 128.651 124.177C129.498 125.703 129.922 127.384 129.922 129.221C129.922 129.503 129.908 129.814 129.88 130.153C129.88 130.464 129.866 130.817 129.837 131.212H113.478C113.619 133.247 114.283 134.801 115.47 135.874C116.685 136.92 118.084 137.443 119.666 137.443C120.937 137.443 121.997 137.16 122.844 136.595C123.72 136.002 124.37 135.21 124.794 134.222H129.286C128.721 136.199 127.591 137.852 125.896 139.18C124.229 140.508 122.152 141.172 119.666 141.172ZM119.666 122.821C118.168 122.821 116.84 123.273 115.682 124.177C114.524 125.053 113.817 126.381 113.563 128.161H125.43C125.345 126.522 124.766 125.223 123.692 124.262C122.618 123.301 121.276 122.821 119.666 122.821Z" fill="white"/>
<path d="M133.312 140.663V119.642H137.296L137.635 123.33C138.285 122.03 139.231 121.013 140.474 120.278C141.746 119.515 143.201 119.134 144.84 119.134C147.383 119.134 149.374 119.925 150.815 121.507C152.285 123.089 153.019 125.449 153.019 128.585V140.663H148.569V129.051C148.569 124.982 146.902 122.948 143.568 122.948C141.901 122.948 140.517 123.541 139.415 124.728C138.341 125.915 137.804 127.61 137.804 129.814V140.663H133.312Z" fill="white"/>
<path d="M164.795 141.172C162.252 141.172 160.246 140.381 158.777 138.799C157.336 137.216 156.615 134.857 156.615 131.721V119.642C159.096 119.642 161.107 121.654 161.107 124.135V131.255C161.107 135.323 162.774 137.358 166.108 137.358C167.775 137.358 169.146 136.764 170.219 135.578C171.293 134.391 171.83 132.696 171.83 130.492V119.642H176.322V140.663H172.339L171.999 136.976C171.35 138.276 170.389 139.307 169.118 140.07C167.874 140.805 166.433 141.172 164.795 141.172Z" fill="white"/>
<path d="M180.766 140.663V119.642H184.75L185.131 122.609C185.809 121.535 186.699 120.688 187.801 120.066C188.931 119.445 190.231 119.134 191.7 119.134C195.034 119.134 197.351 120.448 198.651 123.075C199.414 121.86 200.431 120.9 201.702 120.193C203.002 119.487 204.4 119.134 205.898 119.134C208.525 119.134 210.588 119.925 212.086 121.507C213.583 123.089 214.332 125.449 214.332 128.585V140.663H209.839V129.051C209.839 124.982 208.285 122.948 205.177 122.948C203.595 122.948 202.295 123.541 201.278 124.728C200.289 125.915 199.795 127.61 199.795 129.814V140.663H195.303V129.051C195.303 124.982 193.734 122.948 190.598 122.948C189.044 122.948 187.759 123.541 186.742 124.728C185.753 125.915 185.258 127.61 185.258 129.814V140.663H180.766Z" fill="white"/>
<path d="M225.436 141.172C223.656 141.172 222.187 140.875 221.029 140.282C219.87 139.689 219.008 138.912 218.443 137.951C217.878 136.962 217.596 135.889 217.596 134.73C217.596 132.696 218.387 131.085 219.969 129.899C221.551 128.712 223.812 128.119 226.75 128.119H232.26V127.737C232.26 126.098 231.808 124.869 230.903 124.05C230.028 123.231 228.883 122.821 227.471 122.821C226.227 122.821 225.14 123.132 224.207 123.753C223.303 124.347 222.752 125.237 222.554 126.423H218.062C218.203 124.898 218.712 123.598 219.588 122.524C220.492 121.422 221.622 120.589 222.978 120.024C224.363 119.43 225.874 119.134 227.513 119.134C230.451 119.134 232.726 119.911 234.336 121.465C235.947 122.99 236.752 125.081 236.752 127.737V140.663H232.853L232.472 137.061C231.878 138.219 231.017 139.194 229.886 139.985C228.756 140.776 227.273 141.172 225.436 141.172ZM226.326 137.527C227.541 137.527 228.558 137.245 229.378 136.68C230.225 136.086 230.875 135.309 231.327 134.349C231.808 133.388 232.104 132.328 232.217 131.17H227.216C225.436 131.17 224.165 131.481 223.402 132.102C222.667 132.724 222.3 133.501 222.3 134.433C222.3 135.394 222.653 136.157 223.36 136.722C224.094 137.259 225.083 137.527 226.326 137.527Z" fill="white"/>
<g opacity="0.11">
<path d="M327.962 162.556C340.019 174.32 340.019 193.395 327.962 205.16L225.299 305.34C219.271 311.222 209.497 311.222 203.469 305.34C197.441 299.457 197.441 289.919 203.469 284.037L327.962 162.556ZM325.393 231.603C337.45 243.368 337.449 262.443 325.393 274.208L302.68 296.371C290.624 308.136 271.077 308.136 259.02 296.371L325.393 231.603ZM199.001 221.85C212.58 208.6 233.361 207.396 245.418 219.16L175.754 287.14C168.965 293.765 158.574 294.367 152.545 288.485C146.517 282.603 147.134 272.463 153.923 265.838L199.001 221.85ZM132.665 217.956C138.647 212.029 148.383 211.993 154.412 217.875C160.44 223.757 160.477 233.331 154.495 239.258C148.512 245.185 138.776 245.221 132.748 239.339C126.719 233.456 126.682 223.883 132.665 217.956ZM249.168 104.151C255.252 98.2142 265.199 98.2945 271.385 104.331C277.256 110.059 277.334 119.271 271.56 124.905L189.1 205.371C183.171 211.156 173.478 211.078 167.45 205.195C161.421 199.313 161.341 189.854 167.27 184.068L249.168 104.151ZM299.418 123.794C306.187 117.189 316.561 116.604 322.589 122.486C328.618 128.369 328.018 138.492 321.25 145.097L276.127 189.127C262.59 202.336 241.843 203.507 229.787 191.742L299.418 123.794ZM174.82 110.111C186.876 98.3462 206.424 98.3462 218.481 110.111L135.043 191.531C122.987 179.766 122.987 160.691 135.043 148.926L174.82 110.111Z" fill="url(#paint0_linear_1611_2039)"/>
</g>
</g>
<defs>
<linearGradient id="paint0_linear_1611_2039" x1="231.503" y1="99.7505" x2="231.503" y2="273.401" gradientUnits="userSpaceOnUse">
<stop stop-color="white"/>
<stop offset="1" stop-color="white" stop-opacity="0"/>
</linearGradient>
<clipPath id="clip0_1611_2039">
<rect width="296" height="260.835" fill="white"/>
</clipPath>
</defs>
</svg>
