<svg width="296" height="261" viewBox="0 0 296 261" fill="none" xmlns="http://www.w3.org/2000/svg">
<g clip-path="url(#clip0_1677_5542)">
<rect width="296" height="260.835" fill="#06003B"/>
<g opacity="0.5" filter="url(#filter0_f_1677_5542)">
<rect x="-69.0581" y="184" width="434.151" height="182.225" fill="url(#paint0_linear_1677_5542)"/>
</g>
<path d="M141.38 139.381C143.229 136.677 145.527 135.347 148.847 135.208C152.396 135.058 155.256 137.228 155.94 140.731C156.301 142.575 156.159 144.884 156.16 146.796L156.162 156.092L150.49 156.103C150.395 152.91 150.523 149.674 150.476 146.476C150.46 145.353 150.528 144.454 150.327 143.332C149.809 140.447 146.825 139.736 144.434 140.769C143.418 141.206 142.844 141.609 142.041 142.388C141.893 145.666 142 149.776 142.002 153.117L142.003 156.097L136.247 156.105C136.19 153.308 136.277 150.442 136.242 147.64C136.226 146.398 136.319 144.395 136.107 143.226C135.951 142.318 135.437 141.51 134.681 140.984C132.525 139.511 129.03 140.698 127.649 142.712C127.716 147.132 127.634 151.652 127.662 156.087C126.055 156.178 123.573 156.1 121.894 156.108C121.806 151.364 121.931 146.581 121.881 141.833C121.859 139.813 121.866 137.756 121.911 135.737L127.714 135.745C127.576 136.845 127.756 138.101 127.548 139.217C127.659 139.041 127.774 138.868 127.891 138.696C129.393 136.52 131.479 135.681 133.949 135.23C134.792 135.085 136.665 135.322 137.477 135.622C139.478 136.363 140.48 137.552 141.38 139.381Z" fill="#FEFEFE"/>
<path d="M169.375 134.931C175.48 134.278 180.954 138.714 181.582 144.824C182.209 150.935 177.752 156.392 171.642 156.995C165.567 157.594 160.15 153.167 159.526 147.092C158.902 141.017 163.305 135.58 169.375 134.931ZM171.156 151.688C174.311 151.354 176.603 148.53 176.281 145.373C175.959 142.215 173.145 139.912 169.988 140.222C166.813 140.533 164.496 143.367 164.819 146.541C165.143 149.716 167.984 152.024 171.156 151.688Z" fill="#FEFEFE"/>
<path d="M190.075 135.761C193.244 135.639 197.114 135.738 200.325 135.745C200.263 137.115 200.342 138.523 200.319 139.897C200.307 140.617 199.065 140.379 198.494 140.376L193.831 140.36C192.73 140.357 190.916 140.175 190.02 140.904C189.309 141.484 189.732 142.266 190.227 142.836C190.949 143.157 191.797 143.119 192.574 143.106C194.822 143.067 197.374 143.121 199.196 144.634C200.523 145.742 201.206 147.204 201.327 148.923C201.611 152.969 198.978 155.724 195.058 156.084C191.651 156.165 187.977 156.095 184.544 156.106C184.517 154.714 184.492 152.851 184.571 151.484C186.686 151.439 188.859 151.52 190.972 151.479C192.339 151.453 194.811 151.795 195.674 150.515C195.975 150.064 196.085 149.511 195.978 148.98C195.511 146.637 191.774 147.62 190.004 147.361C188.754 147.261 187.69 146.949 186.628 146.257C184.113 144.616 183.579 140.729 185.268 138.32C186.484 136.586 188.108 136.129 190.075 135.761Z" fill="#FEFEFE"/>
<path d="M84.4588 128H92.7359C93.5715 128.295 94.6437 128.301 95.6414 128.669C99.3012 130.019 102.013 132.417 103.688 135.92C105.181 139.044 105.06 141.562 105.038 144.883C105.03 145.966 105.077 147.3 105.016 148.345C104.653 148.918 102.886 150.595 102.332 151.145L97.1573 156.307L91.8987 161.574C91.2186 162.252 90.098 163.451 89.4083 164.045H81.8238C81.4965 163.944 80.7074 163.828 80.3176 163.76C79.0626 163.543 78.2654 163.309 77.1171 162.778C73.5448 161.127 70.94 158.246 69.6466 154.53C69.3101 153.563 69.2775 152.527 69 151.75V143.475C69.8042 142.616 70.6393 141.778 71.4808 140.956C75.8475 136.689 80.0716 132.242 84.4588 128ZM97.0934 156.091C97.1646 155.622 97.1342 154.578 97.1339 154.071L97.1291 150.275L97.1297 144.601C97.1331 143.547 97.1883 141.806 97.031 140.807C96.8846 139.867 96.5124 138.977 95.9466 138.213C94.1785 135.803 91.9243 135.795 89.2389 135.806L85.2935 135.814L79.633 135.81C78.8222 135.809 77.5554 135.766 76.7796 135.818C76.7161 136.387 76.7911 137.055 76.7964 137.652L76.8037 141.406L76.8034 147.234C76.7996 148.298 76.7296 150.128 76.9027 151.111C77.0781 152.149 77.5122 153.126 78.1652 153.952C80.0742 156.335 82.5715 156.158 85.3039 156.152L90.428 156.144L94.7569 156.15C95.2722 156.15 96.6639 156.178 97.0934 156.091Z" fill="url(#paint1_radial_1677_5542)"/>
<path d="M226 147.369C225.889 147.66 225.801 148.175 225.734 148.493C224.217 155.751 215.743 158.563 209.481 155.577C206.994 154.397 205.08 152.277 204.157 149.684C203.198 146.963 203.378 143.722 204.6 141.102C207.228 135.469 214.824 133.787 220.184 136.385C222.635 137.558 224.516 139.663 225.406 142.232C225.683 143.046 225.761 143.852 226 144.54V147.369ZM215.465 151.68C218.613 151.304 220.865 148.453 220.505 145.303C220.144 142.152 217.307 139.884 214.155 140.228C210.982 140.575 208.694 143.439 209.057 146.613C209.42 149.787 212.295 152.06 215.465 151.68Z" fill="#FEFEFE"/>
</g>
<defs>
<filter id="filter0_f_1677_5542" x="-164.636" y="88.4224" width="625.306" height="373.38" filterUnits="userSpaceOnUse" color-interpolation-filters="sRGB">
<feFlood flood-opacity="0" result="BackgroundImageFix"/>
<feBlend mode="normal" in="SourceGraphic" in2="BackgroundImageFix" result="shape"/>
<feGaussianBlur stdDeviation="47.7888" result="effect1_foregroundBlur_1677_5542"/>
</filter>
<linearGradient id="paint0_linear_1677_5542" x1="365.093" y1="186.719" x2="-35.8586" y2="277.705" gradientUnits="userSpaceOnUse">
<stop offset="0.0564376" stop-color="#4FE4FF"/>
<stop offset="0.189987" stop-color="#4CBDEF"/>
<stop offset="0.45647" stop-color="#FF23BA"/>
<stop offset="0.556166" stop-color="#FF3500"/>
<stop offset="0.802262" stop-color="#F5A852"/>
<stop offset="1" stop-color="#FFF789"/>
</linearGradient>
<radialGradient id="paint1_radial_1677_5542" cx="0" cy="0" r="1" gradientTransform="matrix(30.0412 -38.7482 32.6698 46.8583 72.3796 166.748)" gradientUnits="userSpaceOnUse">
<stop offset="0.0794361" stop-color="#FFF789"/>
<stop offset="0.360358" stop-color="#F5A852"/>
<stop offset="0.538222" stop-color="#FF3500"/>
<stop offset="0.693535" stop-color="#FF23BA"/>
<stop offset="0.908682" stop-color="#4CBDEF"/>
<stop offset="1" stop-color="#4FE4FF"/>
</radialGradient>
<clipPath id="clip0_1677_5542">
<rect width="296" height="260.835" fill="white"/>
</clipPath>
</defs>
</svg>
