<svg width="296" height="261" viewBox="0 0 296 261" fill="none" xmlns="http://www.w3.org/2000/svg">
<g clip-path="url(#clip0_1677_5542)">
<rect width="296" height="260.835" fill="#06003B"/>
<g opacity="0.5" filter="url(#filter0_f_1677_5542)">
<rect x="-69.0581" y="184" width="434.151" height="182.225" fill="url(#paint0_linear_1677_5542)"/>
</g>
<path d="M132.38 123.381C134.229 120.677 136.527 119.347 139.847 119.208C143.396 119.058 146.256 121.228 146.94 124.731C147.301 126.575 147.159 128.884 147.16 130.796L147.162 140.092L141.49 140.103C141.395 136.91 141.523 133.674 141.476 130.476C141.46 129.353 141.528 128.454 141.327 127.332C140.809 124.447 137.825 123.736 135.434 124.769C134.418 125.206 133.844 125.609 133.041 126.388C132.893 129.666 133 133.776 133.002 137.117L133.003 140.097L127.247 140.105C127.19 137.308 127.277 134.442 127.242 131.64C127.226 130.398 127.319 128.395 127.107 127.226C126.951 126.318 126.437 125.51 125.681 124.984C123.525 123.511 120.03 124.698 118.649 126.712C118.716 131.132 118.634 135.652 118.662 140.087C117.055 140.178 114.573 140.1 112.894 140.108C112.806 135.364 112.931 130.581 112.881 125.833C112.859 123.813 112.866 121.756 112.911 119.737L118.714 119.745C118.576 120.845 118.756 122.101 118.548 123.217C118.659 123.041 118.774 122.868 118.891 122.696C120.393 120.52 122.479 119.681 124.949 119.23C125.792 119.085 127.665 119.322 128.477 119.622C130.478 120.363 131.48 121.552 132.38 123.381Z" fill="#FEFEFE"/>
<path d="M160.375 118.931C166.48 118.278 171.954 122.714 172.582 128.824C173.209 134.935 168.752 140.392 162.642 140.995C156.567 141.594 151.15 137.167 150.526 131.092C149.902 125.017 154.305 119.58 160.375 118.931ZM162.156 135.688C165.311 135.354 167.603 132.53 167.281 129.373C166.959 126.215 164.145 123.912 160.988 124.222C157.813 124.533 155.496 127.367 155.819 130.541C156.143 133.716 158.984 136.024 162.156 135.688Z" fill="#FEFEFE"/>
<path d="M181.075 119.761C184.244 119.639 188.114 119.738 191.325 119.745C191.263 121.115 191.342 122.523 191.319 123.897C191.307 124.617 190.065 124.379 189.494 124.376L184.831 124.36C183.73 124.357 181.916 124.175 181.02 124.904C180.309 125.484 180.732 126.266 181.227 126.836C181.949 127.157 182.797 127.119 183.574 127.106C185.822 127.067 188.374 127.121 190.196 128.634C191.523 129.742 192.206 131.204 192.327 132.923C192.611 136.969 189.978 139.724 186.058 140.084C182.651 140.165 178.977 140.095 175.544 140.106C175.517 138.714 175.492 136.851 175.571 135.484C177.686 135.439 179.859 135.52 181.972 135.479C183.339 135.453 185.811 135.795 186.674 134.515C186.975 134.064 187.085 133.511 186.978 132.98C186.511 130.637 182.774 131.62 181.004 131.361C179.754 131.261 178.69 130.949 177.628 130.257C175.113 128.616 174.579 124.729 176.268 122.32C177.484 120.586 179.108 120.129 181.075 119.761Z" fill="#FEFEFE"/>
<path d="M75.4588 112H83.7359C84.5715 112.295 85.6437 112.301 86.6414 112.669C90.3012 114.019 93.0134 116.417 94.6882 119.92C96.1811 123.044 96.0603 125.562 96.0376 128.883C96.0302 129.966 96.077 131.3 96.0161 132.345C95.6534 132.918 93.8856 134.595 93.3317 135.145L88.1573 140.307L82.8987 145.574C82.2186 146.252 81.098 147.451 80.4083 148.045H72.8238C72.4965 147.944 71.7074 147.828 71.3176 147.76C70.0626 147.543 69.2654 147.309 68.1171 146.778C64.5448 145.127 61.94 142.246 60.6466 138.53C60.3101 137.563 60.2775 136.527 60 135.75V127.475C60.8042 126.616 61.6393 125.778 62.4808 124.956C66.8475 120.689 71.0716 116.242 75.4588 112ZM88.0934 140.091C88.1646 139.622 88.1342 138.578 88.1339 138.071L88.1291 134.275L88.1297 128.601C88.1331 127.547 88.1883 125.806 88.031 124.807C87.8846 123.867 87.5124 122.977 86.9466 122.213C85.1785 119.803 82.9243 119.795 80.2389 119.806L76.2935 119.814L70.633 119.81C69.8222 119.809 68.5554 119.766 67.7796 119.818C67.7161 120.387 67.7911 121.055 67.7964 121.652L67.8037 125.406L67.8034 131.234C67.7996 132.298 67.7296 134.128 67.9027 135.111C68.0781 136.149 68.5122 137.126 69.1652 137.952C71.0742 140.335 73.5715 140.158 76.3039 140.152L81.428 140.144L85.7569 140.15C86.2722 140.15 87.6639 140.178 88.0934 140.091Z" fill="url(#paint1_radial_1677_5542)"/>
<path d="M217 131.369C216.889 131.66 216.801 132.175 216.734 132.493C215.217 139.751 206.743 142.563 200.481 139.577C197.994 138.397 196.08 136.277 195.157 133.684C194.198 130.963 194.378 127.722 195.6 125.102C198.228 119.469 205.824 117.787 211.184 120.385C213.635 121.558 215.516 123.663 216.406 126.232C216.683 127.046 216.761 127.852 217 128.54V131.369ZM206.465 135.68C209.613 135.304 211.865 132.453 211.505 129.303C211.144 126.152 208.307 123.884 205.155 124.228C201.982 124.575 199.694 127.439 200.057 130.613C200.42 133.787 203.295 136.06 206.465 135.68Z" fill="#FEFEFE"/>
</g>
<defs>
<filter id="filter0_f_1677_5542" x="-164.636" y="88.4224" width="625.306" height="373.38" filterUnits="userSpaceOnUse" color-interpolation-filters="sRGB">
<feFlood flood-opacity="0" result="BackgroundImageFix"/>
<feBlend mode="normal" in="SourceGraphic" in2="BackgroundImageFix" result="shape"/>
<feGaussianBlur stdDeviation="47.7888" result="effect1_foregroundBlur_1677_5542"/>
</filter>
<linearGradient id="paint0_linear_1677_5542" x1="365.093" y1="186.719" x2="-35.8586" y2="277.705" gradientUnits="userSpaceOnUse">
<stop offset="0.0564376" stop-color="#4FE4FF"/>
<stop offset="0.189987" stop-color="#4CBDEF"/>
<stop offset="0.45647" stop-color="#FF23BA"/>
<stop offset="0.556166" stop-color="#FF3500"/>
<stop offset="0.802262" stop-color="#F5A852"/>
<stop offset="1" stop-color="#FFF789"/>
</linearGradient>
<radialGradient id="paint1_radial_1677_5542" cx="0" cy="0" r="1" gradientTransform="matrix(30.0412 -38.7482 32.6698 46.8583 63.3796 150.748)" gradientUnits="userSpaceOnUse">
<stop offset="0.0794361" stop-color="#FFF789"/>
<stop offset="0.360358" stop-color="#F5A852"/>
<stop offset="0.538222" stop-color="#FF3500"/>
<stop offset="0.693535" stop-color="#FF23BA"/>
<stop offset="0.908682" stop-color="#4CBDEF"/>
<stop offset="1" stop-color="#4FE4FF"/>
</radialGradient>
<clipPath id="clip0_1677_5542">
<rect width="296" height="260.835" fill="white"/>
</clipPath>
</defs>
</svg>
