<svg width="95" height="95" viewBox="0 0 95 95" fill="none" xmlns="http://www.w3.org/2000/svg">
<path fill-rule="evenodd" clip-rule="evenodd" d="M49.7376 36.0937C50.4601 35.3762 51.6456 35.3904 52.3856 36.1254C53.0878 36.8228 53.1012 37.9401 52.4156 38.621L42.6239 48.3445C41.9198 49.0436 40.7645 49.0298 40.0434 48.3136C39.3224 47.5974 39.3086 46.45 40.0126 45.7509L49.7376 36.0937ZM35.9029 49.8457C35.1925 50.5619 35.2012 51.7231 35.9223 52.4393C36.6434 53.1555 37.8038 53.1555 38.5141 52.4392C39.2245 51.723 39.2158 50.5617 38.4947 49.8455C37.7736 49.1293 36.6132 49.1294 35.9029 49.8457ZM58.4956 38.3499C57.7746 37.6337 56.5385 37.7001 55.7348 38.4982L47.4663 46.7091C48.9084 48.1415 51.3806 48.0087 52.988 46.4125L58.3461 41.0918C59.1498 40.2937 59.2167 39.0661 58.4956 38.3499ZM59.154 43.2128C60.5961 44.6452 60.6047 46.9589 59.173 48.3806L46.9823 60.4864C46.2665 61.1972 45.1016 61.1929 44.3805 60.4767C43.6594 59.7605 43.6552 58.6036 44.371 57.8928L59.154 43.2128ZM58.8978 56.7551C60.3294 55.3334 60.3209 53.0197 58.8787 51.5873L50.9972 59.4139C52.4394 60.8463 54.7691 60.855 56.2007 59.4333L58.8978 56.7551ZM43.811 50.3477C45.4235 48.7464 47.8998 48.6096 49.3419 50.042L41.0696 58.2566C40.2634 59.0572 39.0253 59.1257 38.3042 58.4095C37.5831 57.6933 37.6521 56.4636 38.4584 55.663L43.811 50.3477ZM46.0828 36.8031C44.6406 35.3707 42.3109 35.3621 40.8793 36.7837L36.1559 41.4741C34.7243 42.8958 34.7328 45.2095 36.175 46.6419L46.0828 36.8031Z" fill="#666666"/>
<circle cx="47.4531" cy="47.4533" r="37.2115" stroke="#666666" stroke-width="0.943847"/>
<path d="M43.8242 3.49805C45.9473 1.80496 48.959 1.80496 51.082 3.49805L52.7646 4.83887C54.4784 6.20544 56.7482 6.65758 58.8545 6.05078L60.9219 5.45508C63.5312 4.70345 66.3134 5.85581 67.6269 8.23242L68.668 10.1152C69.7282 12.0335 71.6521 13.3189 73.8301 13.5645L75.9687 13.8057C78.6669 14.1098 80.7964 16.2394 81.1006 18.9375L81.3418 21.0762C81.5873 23.2542 82.8728 25.178 84.791 26.2383L86.6738 27.2793C89.0504 28.5928 90.2027 31.3751 89.4512 33.9844L88.8564 36.0518C88.2496 38.1581 88.7007 40.4288 90.0674 42.1426L91.4092 43.8242C93.1021 45.9472 93.102 48.959 91.4092 51.082L90.0674 52.7646C88.7008 54.4784 88.2497 56.7482 88.8564 58.8545L89.4512 60.9219C90.2028 63.5312 89.0504 66.3134 86.6738 67.6269L84.791 68.668C82.8728 69.7282 81.5873 71.6521 81.3418 73.8301L81.1006 75.9687C80.7964 78.6669 78.6669 80.7964 75.9687 81.1006L73.8301 81.3418C71.6521 81.5873 69.7282 82.8728 68.668 84.791L67.6269 86.6738C66.3134 89.0504 63.5312 90.2028 60.9219 89.4512L58.8545 88.8564C56.7482 88.2497 54.4784 88.7008 52.7646 90.0674L51.082 91.4092C48.959 93.102 45.9472 93.1021 43.8242 91.4092L42.1426 90.0674C40.4288 88.7007 38.1581 88.2496 36.0518 88.8564L33.9844 89.4512C31.3751 90.2027 28.5928 89.0504 27.2793 86.6738L26.2383 84.791C25.178 82.8728 23.2542 81.5873 21.0762 81.3418L18.9375 81.1006C16.2394 80.7964 14.1098 78.6669 13.8057 75.9687L13.5645 73.8301C13.3189 71.6521 12.0335 69.7282 10.1152 68.668L8.23242 67.6269C5.85581 66.3134 4.70345 63.5312 5.45508 60.9219L6.05078 58.8545C6.65758 56.7482 6.20544 54.4784 4.83887 52.7646L3.49805 51.082C1.80496 48.959 1.80496 45.9473 3.49805 43.8242L4.83887 42.1426C6.20557 40.4288 6.6576 38.1581 6.05078 36.0518L5.45508 33.9844C4.70352 31.3751 5.85584 28.5928 8.23242 27.2793L10.1152 26.2383C12.0335 25.178 13.3189 23.2542 13.5645 21.0762L13.8057 18.9375C14.1099 16.2394 16.2394 14.1099 18.9375 13.8057L21.0762 13.5645C23.2542 13.3189 25.178 12.0335 26.2383 10.1152L27.2793 8.23242C28.5928 5.85584 31.3751 4.70352 33.9844 5.45508L36.0518 6.05078C38.1581 6.6576 40.4288 6.20557 42.1426 4.83887L43.8242 3.49805Z" stroke="#666666" stroke-width="0.943847"/>
<path d="M32.2059 28.9146L28.9069 24.5245L31.865 22.3016L32.4401 23.0668L30.4101 24.5923L31.1962 25.6384L33.074 24.2273L33.6491 24.9925L31.7713 26.4036L32.559 27.4518L34.5976 25.9199L35.1726 26.6852L32.2059 28.9146Z" fill="#666666"/>
<path d="M40.1421 18.6393L41.9964 23.8082L41.0525 24.1469L37.6366 21.7003L37.5987 21.7139L38.7658 24.9672L37.673 25.3592L35.8187 20.1903L36.7777 19.8462L40.1751 22.2966L40.2205 22.2803L39.0543 19.0295L40.1421 18.6393Z" fill="#666666"/>
<path d="M47.6553 17.8552L48.8157 17.8165L48.9346 21.3808C48.9479 21.781 48.864 22.1343 48.6828 22.4409C48.5035 22.7473 48.246 22.9902 47.9103 23.1695C47.5746 23.3471 47.1799 23.4434 46.7261 23.4585C46.2705 23.4737 45.8693 23.4039 45.5225 23.2492C45.1757 23.0926 44.9026 22.8674 44.7032 22.5736C44.5038 22.2797 44.3974 21.9327 44.3841 21.5325L44.2652 17.9683L45.4256 17.9296L45.5412 21.3947C45.5482 21.6037 45.5999 21.788 45.6964 21.9475C45.7948 22.107 45.9295 22.2304 46.1005 22.3177C46.2715 22.405 46.4687 22.4449 46.692 22.4375C46.9171 22.43 47.1112 22.377 47.2743 22.2786C47.4391 22.1801 47.5644 22.048 47.6501 21.8824C47.7376 21.7167 47.7778 21.5294 47.7709 21.3203L47.6553 17.8552Z" fill="#666666"/>
<path d="M53.0877 18.4177L54.4556 18.8409L54.81 22.8126L54.8715 22.8316L57.4066 19.7537L58.7745 20.1769L57.1516 25.4231L56.0757 25.0903L57.132 21.6756L57.0885 21.6621L54.6825 24.6312L53.9498 24.4046L53.6445 20.5828L53.6009 20.5693L52.5407 23.9967L51.4648 23.6639L53.0877 18.4177Z" fill="#666666"/>
<path d="M59.7307 27.1895L58.7279 26.4532L63.506 23.1487L64.712 24.0342L62.9879 29.581L61.985 28.8447L63.3836 24.6157L63.349 24.5903L59.7307 27.1895ZM60.9455 25.4036L63.3144 27.1429L62.778 27.8734L60.4092 26.1341L60.9455 25.4036Z" fill="#666666"/>
<path d="M74.1942 31.7342C74.1942 31.7342 74.891 32.9543 74.5256 34.0512C74.1602 35.1482 72.8708 35.7066 72.8708 35.7066C72.8708 35.7066 72.174 34.4865 72.5394 33.3895C72.9048 32.2926 74.1942 31.7342 74.1942 31.7342Z" fill="#666666"/>
<path d="M71.3038 36.7403C71.3038 36.7403 70.5901 35.53 69.4564 35.3031C68.3227 35.0762 67.1982 35.9187 67.1982 35.9187C67.1982 35.9187 67.9118 37.129 69.0456 37.3559C70.1793 37.5828 71.3038 36.7403 71.3038 36.7403Z" fill="#666666"/>
<path d="M76.8916 37.0514C76.8916 37.0514 77.2538 38.409 76.6204 39.3763C75.9869 40.3436 74.5977 40.5542 74.5977 40.5542C74.5977 40.5542 74.2355 39.1966 74.869 38.2293C75.5024 37.2621 76.8916 37.0514 76.8916 37.0514Z" fill="#666666"/>
<path d="M72.8188 41.154C72.8188 41.154 72.4379 39.8016 71.3997 39.2927C70.3614 38.7838 69.0591 39.3112 69.0591 39.3112C69.0591 39.3112 69.44 40.6636 70.4782 41.1725C71.5164 41.6814 72.8188 41.154 72.8188 41.154Z" fill="#666666"/>
<path d="M77.9112 43.4349C77.9112 43.4349 77.9889 44.8378 77.1716 45.6556C76.3542 46.4734 74.9513 46.3963 74.9513 46.3963C74.9513 46.3963 74.8735 44.9934 75.6908 44.1756C76.5082 43.3578 77.9112 43.4349 77.9112 43.4349Z" fill="#666666"/>
<path d="M73.0874 46.6207C73.0874 46.6207 72.9902 45.2189 72.0776 44.5091C71.1649 43.7992 69.7824 44.05 69.7824 44.05C69.7824 44.05 69.8796 45.4517 70.7922 46.1616C71.7049 46.8714 73.0874 46.6207 73.0874 46.6207Z" fill="#666666"/>
<path d="M78.3539 48.8014C78.3539 48.8014 78.2194 50.2 77.2882 50.8853C76.3569 51.5706 74.9816 51.2831 74.9816 51.2831C74.9816 51.2831 75.1161 49.8845 76.0473 49.1992C76.9785 48.5139 78.3539 48.8014 78.3539 48.8014Z" fill="#666666"/>
<path d="M73.1052 51.2242C73.1052 51.2242 73.2203 49.8238 72.425 48.9845C71.6297 48.1453 70.2252 48.1849 70.2252 48.1849C70.2252 48.1849 70.1101 49.5853 70.9054 50.4245C71.7007 51.2638 73.1052 51.2242 73.1052 51.2242Z" fill="#666666"/>
<path d="M77.0279 54.9782C77.0279 54.9782 76.6282 56.3252 75.583 56.8196C74.5378 57.314 73.243 56.7685 73.243 56.7685C73.243 56.7685 73.6427 55.4215 74.6879 54.9271C75.7331 54.4327 77.0279 54.9782 77.0279 54.9782Z" fill="#666666"/>
<path d="M71.4125 56.3515C71.4125 56.3515 71.7935 54.9991 71.1736 54.0231C70.5537 53.0471 69.1675 52.8172 69.1675 52.8172C69.1675 52.8172 68.7865 54.1696 69.4064 55.1456C70.0264 56.1216 71.4125 56.3515 71.4125 56.3515Z" fill="#666666"/>
<path d="M75.4886 60.7136C75.4886 60.7136 74.8228 61.9509 73.6989 62.222C72.5749 62.4931 71.4183 61.6953 71.4183 61.6953C71.4183 61.6953 72.084 60.458 73.208 60.1869C74.332 59.9158 75.4886 60.7136 75.4886 60.7136Z" fill="#666666"/>
<path d="M69.7113 60.9144C69.7113 60.9144 70.3598 59.668 69.9517 58.5862C69.5436 57.5044 68.2334 56.9969 68.2334 56.9969C68.2334 56.9969 67.5848 58.2433 67.9929 59.3251C68.401 60.4069 69.7113 60.9144 69.7113 60.9144Z" fill="#666666"/>
<path d="M72.2382 65.4586C72.2382 65.4586 71.4062 66.5908 70.2553 66.7022C69.1045 66.8136 68.0707 65.862 68.0707 65.862C68.0707 65.862 68.9028 64.7298 70.0536 64.6184C71.2045 64.507 72.2382 65.4586 72.2382 65.4586Z" fill="#666666"/>
<path d="M66.4896 64.8502C66.4896 64.8502 67.3059 63.7066 67.053 62.5783C66.8 61.4501 65.5736 60.7645 65.5736 60.7645C65.5736 60.7645 64.7572 61.9081 65.0102 63.0363C65.2631 64.1646 66.4896 64.8502 66.4896 64.8502Z" fill="#666666"/>
<path d="M68.7221 69.5808C68.7221 69.5808 67.6754 70.5181 66.5261 70.3909C65.3769 70.2638 64.5605 69.1202 64.5605 69.1202C64.5605 69.1202 65.6072 68.1829 66.7564 68.3101C67.9056 68.4373 68.7221 69.5808 68.7221 69.5808Z" fill="#666666"/>
<path d="M63.2207 67.8053C63.2207 67.8053 64.2544 66.8536 64.2384 65.6975C64.2224 64.5414 63.1628 63.6187 63.1628 63.6187C63.1628 63.6187 62.1291 64.5704 62.1451 65.7265C62.1611 66.8826 63.2207 67.8053 63.2207 67.8053Z" fill="#666666"/>
<path d="M64.1801 73.2441C64.1801 73.2441 62.9923 73.9947 61.8801 73.6786C60.768 73.3624 60.1526 72.0993 60.1526 72.0993C60.1526 72.0993 61.3404 71.3487 62.4525 71.6648C63.5647 71.9809 64.1801 73.2441 64.1801 73.2441Z" fill="#666666"/>
<path d="M59.0497 70.5801C59.0497 70.5801 60.227 69.8131 60.403 68.6704C60.5791 67.5277 59.6873 66.4419 59.6873 66.4419C59.6873 66.4419 58.51 67.2088 58.3339 68.3516C58.1578 69.4943 59.0497 70.5801 59.0497 70.5801Z" fill="#666666"/>
<path d="M58.7132 76.1452C58.7132 76.1452 57.3971 76.6372 56.373 76.1004C55.3489 75.5637 55.0047 74.2014 55.0047 74.2014C55.0047 74.2014 56.3208 73.7094 57.3449 74.2462C58.369 74.7829 58.7132 76.1452 58.7132 76.1452Z" fill="#666666"/>
<path d="M54.2355 72.4888C54.2355 72.4888 55.5447 71.9787 55.9506 70.896C56.3566 69.8134 55.7055 68.5683 55.7055 68.5683C55.7055 68.5683 54.3963 69.0784 53.9904 70.1611C53.5845 71.2437 54.2355 72.4888 54.2355 72.4888Z" fill="#666666"/>
<path d="M52.6306 77.6237C52.6306 77.6237 51.234 77.7771 50.3732 77.0051C49.5125 76.2332 49.5136 74.8281 49.5136 74.8281C49.5136 74.8281 50.9103 74.6746 51.771 75.4466C52.6318 76.2186 52.6306 77.6237 52.6306 77.6237Z" fill="#666666"/>
<path d="M49.189 72.9794C49.189 72.9794 50.5834 72.8066 51.243 71.8569C51.9025 70.9073 51.5774 69.5403 51.5774 69.5403C51.5774 69.5403 50.183 69.7131 49.5234 70.6628C48.8639 71.6124 49.189 72.9794 49.189 72.9794Z" fill="#666666"/>
<path d="M21.2125 31.7347C21.2125 31.7347 20.5157 32.9548 20.8811 34.0517C21.2466 35.1487 22.5359 35.7071 22.5359 35.7071C22.5359 35.7071 23.2328 34.487 22.8673 33.39C22.5019 32.2931 21.2125 31.7347 21.2125 31.7347Z" fill="#666666"/>
<path d="M24.1027 36.7407C24.1027 36.7407 24.8164 35.5303 25.9501 35.3035C27.0838 35.0766 28.2083 35.919 28.2083 35.919C28.2083 35.919 27.4947 37.1294 26.3609 37.3563C25.2272 37.5832 24.1027 36.7407 24.1027 36.7407Z" fill="#666666"/>
<path d="M18.5148 37.0513C18.5148 37.0513 18.1527 38.4089 18.7861 39.3762C19.4196 40.3434 20.8088 40.5541 20.8088 40.5541C20.8088 40.5541 21.1709 39.1965 20.5375 38.2292C19.904 37.262 18.5148 37.0513 18.5148 37.0513Z" fill="#666666"/>
<path d="M22.5879 41.1539C22.5879 41.1539 22.9688 39.8014 24.007 39.2925C25.0452 38.7837 26.3475 39.3111 26.3475 39.3111C26.3475 39.3111 25.9666 40.6635 24.9284 41.1724C23.8902 41.6813 22.5879 41.1539 22.5879 41.1539Z" fill="#666666"/>
<path d="M17.4949 43.436C17.4949 43.436 17.4172 44.8389 18.2345 45.6567C19.0519 46.4745 20.4549 46.3974 20.4549 46.3974C20.4549 46.3974 20.5326 44.9945 19.7153 44.1767C18.8979 43.3589 17.4949 43.436 17.4949 43.436Z" fill="#666666"/>
<path d="M22.3188 46.6218C22.3188 46.6218 22.4159 45.22 23.3286 44.5102C24.2412 43.8003 25.6237 44.0511 25.6237 44.0511C25.6237 44.0511 25.5266 45.4528 24.6139 46.1627C23.7013 46.8725 22.3188 46.6218 22.3188 46.6218Z" fill="#666666"/>
<path d="M17.0524 48.8016C17.0524 48.8016 17.1869 50.2002 18.1181 50.8856C19.0493 51.5709 20.4247 51.2834 20.4247 51.2834C20.4247 51.2834 20.2902 49.8847 19.359 49.1994C18.4277 48.5141 17.0524 48.8016 17.0524 48.8016Z" fill="#666666"/>
<path d="M22.3012 51.2248C22.3012 51.2248 22.1861 49.8244 22.9814 48.9851C23.7767 48.1459 25.1812 48.1855 25.1812 48.1855C25.1812 48.1855 25.2963 49.5859 24.501 50.4251C23.7057 51.2644 22.3012 51.2248 22.3012 51.2248Z" fill="#666666"/>
<path d="M18.3783 54.9789C18.3783 54.9789 18.7781 56.3259 19.8232 56.8203C20.8684 57.3147 22.1633 56.7692 22.1633 56.7692C22.1633 56.7692 21.7636 55.4222 20.7184 54.9278C19.6732 54.4334 18.3783 54.9789 18.3783 54.9789Z" fill="#666666"/>
<path d="M23.9937 56.3521C23.9937 56.3521 23.6127 54.9997 24.2326 54.0237C24.8525 53.0477 26.2387 52.8178 26.2387 52.8178C26.2387 52.8178 26.6197 54.1702 25.9998 55.1462C25.3798 56.1222 23.9937 56.3521 23.9937 56.3521Z" fill="#666666"/>
<path d="M19.9175 60.715C19.9175 60.715 20.5832 61.9524 21.7072 62.2235C22.8312 62.4946 23.9878 61.6968 23.9878 61.6968C23.9878 61.6968 23.322 60.4594 22.1981 60.1883C21.0741 59.9172 19.9175 60.715 19.9175 60.715Z" fill="#666666"/>
<path d="M25.6949 60.9156C25.6949 60.9156 25.0463 59.6692 25.4544 58.5874C25.8625 57.5056 27.1728 56.9981 27.1728 56.9981C27.1728 56.9981 27.8213 58.2445 27.4132 59.3263C27.0051 60.4081 25.6949 60.9156 25.6949 60.9156Z" fill="#666666"/>
<path d="M23.1679 65.4593C23.1679 65.4593 24 66.5915 25.1508 66.7029C26.3017 66.8143 27.3355 65.8627 27.3355 65.8627C27.3355 65.8627 26.5034 64.7305 25.3525 64.6191C24.2017 64.5077 23.1679 65.4593 23.1679 65.4593Z" fill="#666666"/>
<path d="M28.9165 64.85C28.9165 64.85 28.1002 63.7064 28.3531 62.5782C28.606 61.45 29.8325 60.7644 29.8325 60.7644C29.8325 60.7644 30.6489 61.908 30.3959 63.0362C30.143 64.1644 28.9165 64.85 28.9165 64.85Z" fill="#666666"/>
<path d="M26.6842 69.5812C26.6842 69.5812 27.7309 70.5185 28.8801 70.3913C30.0293 70.2641 30.8458 69.1206 30.8458 69.1206C30.8458 69.1206 29.799 68.1833 28.6498 68.3105C27.5006 68.4377 26.6842 69.5812 26.6842 69.5812Z" fill="#666666"/>
<path d="M32.1856 67.8058C32.1856 67.8058 31.1519 66.8541 31.1679 65.698C31.1839 64.5419 32.2435 63.6192 32.2435 63.6192C32.2435 63.6192 33.2772 64.5709 33.2612 65.727C33.2452 66.8831 32.1856 67.8058 32.1856 67.8058Z" fill="#666666"/>
<path d="M31.2262 73.2451C31.2262 73.2451 32.414 73.9957 33.5262 73.6795C34.6383 73.3634 35.2537 72.1003 35.2537 72.1003C35.2537 72.1003 34.0659 71.3497 32.9538 71.6658C31.8416 71.9819 31.2262 73.2451 31.2262 73.2451Z" fill="#666666"/>
<path d="M36.3568 70.5814C36.3568 70.5814 35.1795 69.8145 35.0034 68.6717C34.8274 67.529 35.7192 66.4432 35.7192 66.4432C35.7192 66.4432 36.8965 67.2102 37.0725 68.3529C37.2486 69.4957 36.3568 70.5814 36.3568 70.5814Z" fill="#666666"/>
<path d="M36.6932 76.1458C36.6932 76.1458 38.0093 76.6378 39.0334 76.101C40.0575 75.5643 40.4017 74.202 40.4017 74.202C40.4017 74.202 39.0856 73.71 38.0615 74.2468C37.0374 74.7836 36.6932 76.1458 36.6932 76.1458Z" fill="#666666"/>
<path d="M41.1707 72.4888C41.1707 72.4888 39.8615 71.9787 39.4556 70.896C39.0497 69.8134 39.7008 68.5683 39.7008 68.5683C39.7008 68.5683 41.01 69.0784 41.4159 70.1611C41.8218 71.2437 41.1707 72.4888 41.1707 72.4888Z" fill="#666666"/>
<path d="M42.7756 77.6243C42.7756 77.6243 44.1723 77.7777 45.033 77.0058C45.8938 76.2338 45.8926 74.8287 45.8926 74.8287C45.8926 74.8287 44.496 74.6753 43.6352 75.4472C42.7745 76.2192 42.7756 77.6243 42.7756 77.6243Z" fill="#666666"/>
<path d="M46.2173 72.9795C46.2173 72.9795 44.8229 72.8067 44.1634 71.8571C43.5038 70.9074 43.8289 69.5405 43.8289 69.5405C43.8289 69.5405 45.2233 69.7132 45.8829 70.6629C46.5424 71.6125 46.2173 72.9795 46.2173 72.9795Z" fill="#666666"/>
</svg>
